<?xml version="1.0" encoding="utf-8"?>
<!-- Generator: Adobe Illustrator 16.0.0, SVG Export Plug-In . SVG Version: 6.00 Build 0)  -->
<!DOCTYPE svg PUBLIC "-//W3C//DTD SVG 1.1//EN" "http://www.w3.org/Graphics/SVG/1.1/DTD/svg11.dtd">
<svg version="1.1" id="Слой_1" xmlns="http://www.w3.org/2000/svg" xmlns:xlink="http://www.w3.org/1999/xlink" x="0px" y="0px"
	 width="749.715px" height="753.747px" viewBox="0 0 749.715 753.747" enable-background="new 0 0 749.715 753.747"
	 xml:space="preserve">
<g>
	<path fill="#184967" d="M37.813,176.349C-5.869,132.668-11.33,88.985,37.811,39.845c49.145-49.144,92.824-43.682,136.506,0
		l203.392,203.394L578.372,42.576c35.491-35.493,87.364-49.142,136.506,0c49.144,49.141,35.491,101.013,0,136.504L514.216,379.743
		l200.66,200.66c43.683,43.683,49.142,87.36,0,136.506c-49.142,49.14-92.822,43.681-136.504,0L377.709,516.248L177.048,716.909
		c-35.49,35.491-87.362,49.142-136.504,0s-35.492-101.016,0-136.506l200.661-200.66L37.813,176.349z"/>
</g>
</svg>
