<?xml version="1.0" encoding="utf-8"?>
<!-- Generator: Adobe Illustrator 16.0.0, SVG Export Plug-In . SVG Version: 6.00 Build 0)  -->
<!DOCTYPE svg PUBLIC "-//W3C//DTD SVG 1.1//EN" "http://www.w3.org/Graphics/SVG/1.1/DTD/svg11.dtd">
<svg version="1.1" id="Слой_1" xmlns="http://www.w3.org/2000/svg" xmlns:xlink="http://www.w3.org/1999/xlink" x="0px" y="0px"
	 width="23.8px" height="23.1px" viewBox="0 0 23.8 23.1" style="enable-background:new 0 0 23.8 23.1;" xml:space="preserve">
<style type="text/css">
<![CDATA[
	.st0{fill:#707274;}
]]>
</style>
<path class="st0" d="M19,15.6h-2.4c-0.3,0-0.5-0.2-0.5-0.5s0.2-0.5,0.5-0.5H19c0.9,0,1.8-0.4,2.4-1.1c0.9-0.8,1.4-2,1.4-3.2
	c0-2.3-1.9-4.2-4.2-4.2c-0.4,0-0.9,0.1-1.3,0.2c-0.1,0-0.3,0-0.4-0.1c-0.1-0.1-0.2-0.2-0.2-0.4c-0.3-2.8-2.6-5-5.5-5
	c-3,0-5.5,2.5-5.5,5.5c0,0.4,0,0.7,0.1,1.1c0,0.1,0,0.3-0.1,0.4C5.6,8.1,5.5,8.2,5.3,8.2H4.2C2.4,8.2,1,9.6,1,11.4
	c0,1.8,1.4,3.2,3.2,3.2h3c0.3,0,0.5,0.2,0.5,0.5s-0.2,0.5-0.5,0.5h-3c-2.3,0-4.2-1.9-4.2-4.2c0-2.3,1.9-4.2,4.2-4.2h0.5
	c0-0.2,0-0.5,0-0.7C4.7,2.9,7.6,0,11.2,0c3.2,0,5.8,2.2,6.4,5.3c0.3-0.1,0.7-0.1,1-0.1c2.9,0,5.2,2.3,5.2,5.2c0,1.5-0.6,2.9-1.7,3.9
	C21.4,15.1,20.2,15.6,19,15.6"/>
<path class="st0" d="M11.9,23.1c-0.1,0-0.2,0-0.3-0.1l-5.8-4.2c-0.2-0.2-0.3-0.5-0.1-0.7c0.2-0.2,0.5-0.3,0.7-0.1l5.5,4l5.5-4
	c0.2-0.2,0.5-0.1,0.7,0.1c0.2,0.2,0.1,0.5-0.1,0.7L12.2,23C12.1,23,12,23.1,11.9,23.1"/>
<path class="st0" d="M11.9,23.1c-0.3,0-0.5-0.2-0.5-0.5V9.7c0-0.3,0.2-0.5,0.5-0.5s0.5,0.2,0.5,0.5v12.8
	C12.4,22.8,12.2,23.1,11.9,23.1"/>
</svg>
