<?xml version="1.0" encoding="utf-8"?>
<!-- Generator: Adobe Illustrator 16.0.0, SVG Export Plug-In . SVG Version: 6.00 Build 0)  -->
<!DOCTYPE svg PUBLIC "-//W3C//DTD SVG 1.1//EN" "http://www.w3.org/Graphics/SVG/1.1/DTD/svg11.dtd">
<svg version="1.1" id="Слой_1" xmlns="http://www.w3.org/2000/svg" xmlns:xlink="http://www.w3.org/1999/xlink" x="0px" y="0px"
	 width="60.5px" height="60.5px" viewBox="0 0 60.5 60.5" style="enable-background:new 0 0 60.5 60.5;" xml:space="preserve">
<style type="text/css">
<![CDATA[
	.st0{clip-path:url(#SVGID_2_);fill:#5B5D60;}
]]>
</style>
<g>
	<defs>
		<rect id="SVGID_1_" width="60.5" height="60.5"/>
	</defs>
	<clipPath id="SVGID_2_">
		<use xlink:href="#SVGID_1_"  style="overflow:visible;"/>
	</clipPath>
	<path class="st0" d="M30.2,60.5C13.6,60.5,0,46.9,0,30.2S13.6,0,30.2,0c16.7,0,30.2,13.6,30.2,30.2S46.9,60.5,30.2,60.5 M30.2,1.3
		c-15.9,0-28.9,13-28.9,28.9c0,15.9,13,28.9,28.9,28.9c15.9,0,28.9-13,28.9-28.9C59.1,14.3,46.2,1.3,30.2,1.3"/>
	<path class="st0" d="M44.8,43.1H15.7c-0.4,0-0.7-0.3-0.7-0.7V18.1c0-0.4,0.3-0.7,0.7-0.7h29.1c0.4,0,0.7,0.3,0.7,0.7v24.3
		C45.5,42.8,45.2,43.1,44.8,43.1 M16.4,41.7h27.8V18.8H16.4V41.7z"/>
	<path class="st0" d="M44.8,38.6c-0.1,0-0.3-0.1-0.4-0.2l-6.6-5.4L31,37.5l-8.6-9.3l-6.2,6.4c-0.3,0.3-0.7,0.3-1,0
		c-0.3-0.3-0.3-0.7,0-0.9l7.2-7.5l8.8,9.5l6.6-4.4l7.4,6c0.3,0.2,0.3,0.7,0.1,0.9C45.2,38.5,45,38.6,44.8,38.6"/>
	<path class="st0" d="M31.8,29.4c-2.3,0-4.1-1.9-4.1-4.1c0-2.3,1.9-4.1,4.1-4.1c2.3,0,4.1,1.9,4.1,4.1C36,27.6,34.1,29.4,31.8,29.4
		 M31.8,22.5c-1.5,0-2.8,1.3-2.8,2.8c0,1.5,1.3,2.8,2.8,2.8c1.5,0,2.8-1.3,2.8-2.8C34.6,23.7,33.4,22.5,31.8,22.5"/>
</g>
</svg>
