<?xml version="1.0" encoding="utf-8"?>
<!-- Generator: Adobe Illustrator 16.0.0, SVG Export Plug-In . SVG Version: 6.00 Build 0)  -->
<!DOCTYPE svg PUBLIC "-//W3C//DTD SVG 1.1//EN" "http://www.w3.org/Graphics/SVG/1.1/DTD/svg11.dtd">
<svg version="1.1" id="Слой_1" xmlns="http://www.w3.org/2000/svg" xmlns:xlink="http://www.w3.org/1999/xlink" x="0px" y="0px"
	 width="45px" height="45px" viewBox="0 0 45 45" style="enable-background:new 0 0 45 45;" xml:space="preserve">
<style type="text/css">
<![CDATA[
	.st0{clip-path:url(#SVGID_2_);fill:#FFFFFF;}
	.st1{clip-path:url(#SVGID_4_);fill:#FFFFFF;}
]]>
</style>
<g>
	<defs>
		<rect id="SVGID_1_" width="45" height="45"/>
	</defs>
	<clipPath id="SVGID_2_">
		<use xlink:href="#SVGID_1_"  style="overflow:visible;"/>
	</clipPath>
	<path class="st0" d="M22.5,45C10.1,45,0,34.9,0,22.5S10.1,0,22.5,0C34.9,0,45,10.1,45,22.5S34.9,45,22.5,45 M22.5,1
		C10.6,1,1,10.6,1,22.5C1,34.4,10.6,44,22.5,44C34.4,44,44,34.4,44,22.5C44,10.6,34.4,1,22.5,1"/>
</g>
<g>
	<defs>
		<rect id="SVGID_3_" width="45" height="45"/>
	</defs>
	<clipPath id="SVGID_4_">
		<use xlink:href="#SVGID_3_"  style="overflow:visible;"/>
	</clipPath>
	<path class="st1" d="M21,30.3c-5.2,0-9.5-4.2-9.5-9.5c0-5.2,4.3-9.5,9.5-9.5c5.2,0,9.5,4.2,9.5,9.5C30.5,26.1,26.3,30.3,21,30.3
		 M21,12.4c-4.7,0-8.5,3.8-8.5,8.5c0,4.7,3.8,8.5,8.5,8.5c4.7,0,8.5-3.8,8.5-8.5C29.5,16.2,25.7,12.4,21,12.4"/>
	<path class="st1" d="M32.9,33.6c-0.1,0-0.3,0-0.4-0.1L27,27.9c-0.2-0.2-0.2-0.5,0-0.7s0.5-0.2,0.7,0l5.6,5.6c0.2,0.2,0.2,0.5,0,0.7
		C33.2,33.6,33,33.6,32.9,33.6"/>
	<path class="st1" d="M21,25.2c-0.3,0-0.5-0.2-0.5-0.5v-7.9c0-0.3,0.2-0.5,0.5-0.5s0.5,0.2,0.5,0.5v7.9C21.5,25,21.3,25.2,21,25.2"
		/>
	<path class="st1" d="M25,21.2h-7.9c-0.3,0-0.5-0.2-0.5-0.5s0.2-0.5,0.5-0.5H25c0.3,0,0.5,0.2,0.5,0.5S25.3,21.2,25,21.2"/>
</g>
</svg>
