<?xml version="1.0" encoding="utf-8"?>
<!-- Generator: Adobe Illustrator 16.0.0, SVG Export Plug-In . SVG Version: 6.00 Build 0)  -->
<!DOCTYPE svg PUBLIC "-//W3C//DTD SVG 1.1//EN" "http://www.w3.org/Graphics/SVG/1.1/DTD/svg11.dtd">
<svg version="1.1" id="Слой_1" xmlns="http://www.w3.org/2000/svg" xmlns:xlink="http://www.w3.org/1999/xlink" x="0px" y="0px"
	 width="21.8px" height="22.2px" viewBox="0 0 21.8 22.2" style="enable-background:new 0 0 21.8 22.2;" xml:space="preserve">
<style type="text/css">
<![CDATA[
	.st0{fill:#FFFFFF;}
]]>
</style>
<path class="st0" d="M9.5,18.9C4.2,18.9,0,14.7,0,9.5C0,4.3,4.2,0,9.5,0c5.2,0,9.5,4.2,9.5,9.5C18.9,14.7,14.7,18.9,9.5,18.9 M9.5,1
	C4.8,1,1,4.8,1,9.5c0,4.7,3.8,8.5,8.5,8.5c4.7,0,8.5-3.8,8.5-8.5C17.9,4.8,14.1,1,9.5,1"/>
<path class="st0" d="M21.3,22.2c-0.1,0-0.3,0-0.4-0.1l-5.6-5.6c-0.2-0.2-0.2-0.5,0-0.7s0.5-0.2,0.7,0l5.6,5.6c0.2,0.2,0.2,0.5,0,0.7
	C21.6,22.2,21.5,22.2,21.3,22.2"/>
<path class="st0" d="M9.5,13.8c-0.3,0-0.5-0.2-0.5-0.5V5.4c0-0.3,0.2-0.5,0.5-0.5S10,5.1,10,5.4v7.9C10,13.6,9.7,13.8,9.5,13.8"/>
<path class="st0" d="M13.4,9.9H5.5C5.3,9.9,5,9.6,5,9.4s0.2-0.5,0.5-0.5h7.9c0.3,0,0.5,0.2,0.5,0.5S13.7,9.9,13.4,9.9"/>
</svg>
