<?xml version="1.0" encoding="utf-8"?>
<!-- Generator: Adobe Illustrator 16.0.0, SVG Export Plug-In . SVG Version: 6.00 Build 0)  -->
<!DOCTYPE svg PUBLIC "-//W3C//DTD SVG 1.1//EN" "http://www.w3.org/Graphics/SVG/1.1/DTD/svg11.dtd">
<svg version="1.1" id="Слой_1" xmlns="http://www.w3.org/2000/svg" xmlns:xlink="http://www.w3.org/1999/xlink" x="0px" y="0px"
	 width="749.715px" height="753.747px" viewBox="0 0 749.715 753.747" enable-background="new 0 0 749.715 753.747"
	 xml:space="preserve">
<g>
	<path fill="#FFFFFF" d="M724.179,652.009l-0.006-0.005l-5.349-5.343l-0.041,0.036L538.638,469.245
		c34.714-48.598,55.357-107.952,55.357-172.249C593.995,132.986,461.032,0,296.997,0C132.965,0,0,132.986,0,296.997
		c0,164.047,132.965,296.999,296.997,296.999c60.781,0,117.251-18.317,164.319-49.665L646.65,726.884l20.211,20.195
		c12.948,12.983,40.524,6.426,61.572-14.622c21.041-21.048,27.579-48.618,14.637-61.566L724.179,652.009z M301.036,505.828
		c-115.321,0-208.82-93.488-208.82-208.832c0-115.336,93.499-208.819,208.82-208.819c115.342,0,208.83,93.483,208.83,208.819
		C509.865,412.34,416.378,505.828,301.036,505.828"/>
</g>
</svg>
