<?xml version="1.0" encoding="utf-8"?>
<!-- Generator: Adobe Illustrator 16.0.0, SVG Export Plug-In . SVG Version: 6.00 Build 0)  -->
<!DOCTYPE svg PUBLIC "-//W3C//DTD SVG 1.1//EN" "http://www.w3.org/Graphics/SVG/1.1/DTD/svg11.dtd">
<svg version="1.1" id="Слой_1" xmlns="http://www.w3.org/2000/svg" xmlns:xlink="http://www.w3.org/1999/xlink" x="0px" y="0px"
	 width="10px" height="10px" viewBox="0 0 10 10" style="enable-background:new 0 0 10 10;" xml:space="preserve">
<style type="text/css">
<![CDATA[
	.st0{fill-rule:evenodd;clip-rule:evenodd;fill:#FFFFFF;}
]]>
</style>
<g>
	<path class="st0" d="M0.7,5c0-1.5,0-2.9,0-4.4c0-0.2,0.1-0.3,0.2-0.5C1,0,1.2,0,1.3,0c1,0,2,0,3.1,0C5,0,5.6,0,6.2,0
		c0.4,0,0.7,0.1,1,0.4C7.7,1,8.3,1.5,8.9,2.1c0.3,0.3,0.4,0.6,0.4,1c0,2.1,0,4.2,0,6.3c0,0.2-0.1,0.4-0.3,0.5C8.9,10,8.8,10,8.7,10
		c-0.4,0-0.9,0-1.3,0c-2,0-4.1,0-6.1,0C1,10,0.8,9.9,0.8,9.6c0-0.1,0-0.2,0-0.2C0.7,7.9,0.7,6.5,0.7,5z M1.4,0.7c0,2.9,0,5.7,0,8.6
		c2.4,0,4.8,0,7.1,0c0-1.9,0-3.8,0-5.7c0,0-0.1,0-0.1,0c-0.7,0-1.5,0-2.2,0c-0.1,0-0.2,0-0.3-0.1C5.8,3.4,5.7,3.2,5.7,3
		c0-0.7,0-1.5,0-2.2c0,0,0-0.1,0-0.1C4.3,0.7,2.9,0.7,1.4,0.7z M8.5,2.9c0-0.1-0.1-0.2-0.1-0.2C8.3,2.5,8.3,2.5,8.2,2.4
		c-0.5-0.5-1-1-1.5-1.5C6.6,0.8,6.5,0.8,6.4,0.8c0,0.7,0,1.4,0,2.1C7.1,2.9,7.8,2.9,8.5,2.9z"/>
	<path class="st0" d="M5,7.1c0.6,0,1.3,0,1.9,0c0.2,0,0.2,0.1,0.2,0.2c0,0.1,0,0.2,0,0.3c0,0.1-0.1,0.2-0.2,0.2c-1.3,0-2.6,0-3.9,0
		c-0.1,0-0.2-0.1-0.2-0.2c0-0.1,0-0.2,0-0.3c0-0.1,0.1-0.2,0.2-0.2C3.7,7.1,4.4,7.1,5,7.1z"/>
	<path class="st0" d="M5,5C4.4,5,3.7,5,3.1,5C2.9,5,2.9,4.9,2.9,4.8c0-0.1,0-0.2,0-0.3c0-0.1,0.1-0.2,0.2-0.2c1.3,0,2.6,0,3.9,0
		c0.1,0,0.2,0.1,0.2,0.2c0,0.1,0,0.2,0,0.3C7.1,4.9,7.1,5,6.9,5C6.3,5,5.6,5,5,5z"/>
	<path class="st0" d="M5,6.4c-0.6,0-1.3,0-1.9,0c-0.2,0-0.2-0.1-0.2-0.2c0-0.1,0-0.2,0-0.3c0-0.1,0.1-0.2,0.2-0.2c1.3,0,2.6,0,3.9,0
		c0.1,0,0.2,0.1,0.2,0.2c0,0.1,0,0.2,0,0.3c0,0.1-0.1,0.2-0.2,0.2C6.3,6.4,5.6,6.4,5,6.4z"/>
</g>
</svg>
