<?xml version="1.0" encoding="utf-8"?>
<!-- Generator: Adobe Illustrator 16.0.0, SVG Export Plug-In . SVG Version: 6.00 Build 0)  -->
<!DOCTYPE svg PUBLIC "-//W3C//DTD SVG 1.1//EN" "http://www.w3.org/Graphics/SVG/1.1/DTD/svg11.dtd">
<svg version="1.1" id="Слой_1" xmlns="http://www.w3.org/2000/svg" xmlns:xlink="http://www.w3.org/1999/xlink" x="0px" y="0px"
	 width="181.5px" height="51.5px" viewBox="0 0 181.5 51.5" style="enable-background:new 0 0 181.5 51.5;" xml:space="preserve">
<style type="text/css">
<![CDATA[
	.st0{fill:#80B2C2;}
	.st1{fill:none;}
]]>
</style>
<path class="st0" d="M24.2,51.5V50V51.5z"/>
<path class="st0" d="M25.8,51.5V50V51.5z"/>
<path class="st0" d="M2.4,25.8l23.3,23.3l23.3-23.3L25.8,2.4L2.4,25.8z M25.8,51.5c-0.3,0-0.5-0.1-0.7-0.3L0.3,26.5
	C0.1,26.3,0,26,0,25.8c0-0.3,0.1-0.5,0.3-0.7L25.1,0.3c0.4-0.4,1-0.4,1.4,0l24.8,24.8c0.4,0.4,0.4,1,0,1.4L26.5,51.2
	C26.3,51.4,26,51.5,25.8,51.5"/>
<path class="st0" d="M6.4,25.8l19.4,19.3l19.3-19.3L25.8,6.4L6.4,25.8z M25.8,46.3c-0.1,0-0.3,0-0.4-0.1L5.4,26.1
	c-0.1-0.1-0.1-0.2-0.1-0.4c0-0.1,0.1-0.3,0.1-0.4L25.4,5.4c0.2-0.2,0.5-0.2,0.7,0l20.1,20.1c0.1,0.1,0.1,0.2,0.1,0.4
	c0,0.1-0.1,0.3-0.1,0.4L26.1,46.2C26,46.3,25.9,46.3,25.8,46.3"/>
<path class="st0" d="M25.8,5.9c-0.3,0-0.5-0.2-0.5-0.5V1.6c0-0.3,0.2-0.5,0.5-0.5c0.3,0,0.5,0.2,0.5,0.5v3.8
	C26.3,5.7,26,5.9,25.8,5.9"/>
<path class="st0" d="M16.4,36.6c-0.3,0-0.5-0.2-0.5-0.5V15.6c0-0.3,0.2-0.5,0.5-0.5c0.3,0,0.5,0.2,0.5,0.5v20.5
	C16.9,36.4,16.6,36.6,16.4,36.6"/>
<path class="st0" d="M25.8,50.1c-0.3,0-0.5-0.2-0.5-0.5v-3.8c0-0.3,0.2-0.5,0.5-0.5c0.3,0,0.5,0.2,0.5,0.5v3.8
	C26.3,49.9,26,50.1,25.8,50.1"/>
<path class="st0" d="M5.6,26.1H1.8c-0.3,0-0.5-0.2-0.5-0.5s0.2-0.5,0.5-0.5h3.8c0.3,0,0.5,0.2,0.5,0.5S5.8,26.1,5.6,26.1"/>
<path class="st0" d="M49.8,26.1H46c-0.3,0-0.5-0.2-0.5-0.5s0.2-0.5,0.5-0.5h3.8c0.3,0,0.5,0.2,0.5,0.5S50,26.1,49.8,26.1"/>
<path class="st0" d="M19.1,25.7l6.5,6.5l12.8-12.7l-6.5-6.5L19.1,25.7z M25.6,33.4c-0.1,0-0.3,0-0.4-0.1L18,26
	c-0.1-0.1-0.1-0.2-0.1-0.4c0-0.1,0.1-0.3,0.1-0.4l13.5-13.4c0.1-0.1,0.2-0.1,0.4-0.1h0c0.1,0,0.3,0.1,0.4,0.1l7.2,7.2
	c0.1,0.1,0.1,0.2,0.1,0.4c0,0.1-0.1,0.3-0.1,0.4L25.9,33.2C25.8,33.3,25.7,33.4,25.6,33.4"/>
<path class="st0" d="M18.1,14.6l0,9l12.3-12.2l-4.5-4.5L18.1,14.6z M17.5,25.3c-0.1,0-0.1,0-0.2,0C17.2,25.2,17,25,17,24.8l0-10.4
	c0-0.1,0.1-0.3,0.1-0.4l8.3-8.3c0.2-0.2,0.5-0.2,0.7,0l5.2,5.2c0.1,0.1,0.1,0.2,0.1,0.4c0,0.1-0.1,0.3-0.1,0.4L17.9,25.2
	C17.8,25.3,17.7,25.3,17.5,25.3"/>
<path class="st0" d="M35.4,25.4l0,9l9.1-9L40,20.8L35.4,25.4z M34.9,36.1c-0.1,0-0.1,0-0.2,0c-0.2-0.1-0.3-0.3-0.3-0.5l0-10.4
	c0-0.1,0.1-0.3,0.1-0.4l5.1-5.1c0.2-0.2,0.5-0.2,0.7,0l5.2,5.2c0.1,0.1,0.1,0.2,0.1,0.4c0,0.1-0.1,0.3-0.1,0.4L35.2,35.9
	C35.1,36,35,36.1,34.9,36.1"/>
<rect class="st1" width="51.5" height="51.5"/>
<g>
	<path class="st0" d="M62.8,30.5l0.6,2.9l0.7-2.8l4-13.7h1.4l4,13.7l0.7,2.8l0.6-2.9L78.1,17h1.6L75,35.6h-1.5L69.3,21l-0.5-1.8
		L68.3,21L64,35.6h-1.5L57.8,17h1.6L62.8,30.5z"/>
	<path class="st0" d="M93,26.7h-8.7v7.6h10v1.3H82.8V17h11.5v1.3h-9.9v7H93V26.7z"/>
	<path class="st0" d="M99.2,34.2h9.2v1.3H97.6V17h1.6V34.2z"/>
	<path class="st0" d="M123.7,29.8c-0.2,2-0.9,3.5-2.1,4.5c-1.2,1-2.8,1.6-4.7,1.6c-1.4,0-2.6-0.3-3.7-1c-1.1-0.7-1.9-1.7-2.5-2.9
		c-0.6-1.3-0.9-2.7-0.9-4.3v-2.4c0-1.6,0.3-3.1,0.9-4.4c0.6-1.3,1.4-2.3,2.5-3c1.1-0.7,2.3-1,3.7-1c2,0,3.6,0.5,4.7,1.6
		c1.2,1.1,1.8,2.6,2,4.5h-1.6c-0.4-3.2-2.1-4.7-5.1-4.7c-1.7,0-3,0.6-4,1.9c-1,1.3-1.5,3-1.5,5.2v2.3c0,2.1,0.5,3.9,1.5,5.1
		s2.3,1.9,3.9,1.9c1.6,0,2.9-0.4,3.7-1.2c0.8-0.8,1.3-2,1.5-3.5H123.7z"/>
	<path class="st0" d="M141.2,27.3c0,1.7-0.3,3.2-0.9,4.5s-1.4,2.3-2.5,3c-1.1,0.7-2.4,1-3.8,1c-2.2,0-3.9-0.8-5.3-2.3
		c-1.3-1.6-2-3.6-2-6.3v-1.9c0-1.7,0.3-3.2,0.9-4.5s1.4-2.3,2.5-3c1.1-0.7,2.4-1.1,3.8-1.1c1.4,0,2.7,0.3,3.8,1
		c1.1,0.7,1.9,1.7,2.5,2.9c0.6,1.3,0.9,2.7,0.9,4.4V27.3z M139.7,25.3c0-2.2-0.5-4-1.5-5.3s-2.4-1.9-4.2-1.9c-1.7,0-3.1,0.6-4.1,1.9
		c-1,1.3-1.5,3-1.5,5.3v1.9c0,2.2,0.5,3.9,1.5,5.2c1,1.3,2.4,1.9,4.2,1.9c1.8,0,3.2-0.6,4.2-1.9c1-1.3,1.5-3,1.5-5.3V25.3z"/>
	<path class="st0" d="M147.3,17l6.8,16.4L161,17h2.1v18.6h-1.6v-8.1l0.1-8.3l-6.9,16.4h-1.2l-6.9-16.3l0.1,8.2v8.1h-1.6V17H147.3z"
		/>
	<path class="st0" d="M178,26.7h-8.7v7.6h10v1.3h-11.6V17h11.5v1.3h-9.9v7h8.7V26.7z"/>
</g>
</svg>
