<?xml version="1.0" encoding="utf-8"?>
<!-- Generator: Adobe Illustrator 16.0.0, SVG Export Plug-In . SVG Version: 6.00 Build 0)  -->
<!DOCTYPE svg PUBLIC "-//W3C//DTD SVG 1.1//EN" "http://www.w3.org/Graphics/SVG/1.1/DTD/svg11.dtd">
<svg version="1.1" id="Layer_1" xmlns="http://www.w3.org/2000/svg" xmlns:xlink="http://www.w3.org/1999/xlink" x="0px" y="0px"
	 width="2514.7px" height="757.6px" viewBox="0 0 2514.7 757.6" enable-background="new 0 0 2514.7 757.6" xml:space="preserve">
<polygon fill-rule="evenodd" clip-rule="evenodd" fill="#ED1C24" points="90.3,381.1 0,381.1 376.5,757.6 376.5,667.3 249.4,540.2 
	245.5,536.3 244.9,535.6 "/>
<polygon fill-rule="evenodd" clip-rule="evenodd" fill="#ED1C24" points="381.1,757.6 757.6,381.1 667.3,381.1 514.4,534 
	510.5,537.9 381.1,667.3 "/>
<polygon fill-rule="evenodd" clip-rule="evenodd" fill="#0057A8" points="376.5,90.3 376.5,0 0,376.5 90.3,376.5 244.9,222 
	245.5,221.3 249.4,217.4 "/>
<polygon fill-rule="evenodd" clip-rule="evenodd" fill="#0057A8" points="757.6,376.5 381.1,0 381.1,90.3 458.8,168.1 460.4,169.7 
	462,171.3 584.1,293.4 585.7,295 587.4,296.6 667.3,376.5 "/>
<polygon fill-rule="evenodd" clip-rule="evenodd" fill="#0057A8" points="458.8,174.5 254.1,379.2 376.2,501.3 510.5,367 510.5,367 
	511.2,366.3 515.1,362.4 580.9,296.6 "/>
<linearGradient id="SVGID_1_" gradientUnits="userSpaceOnUse" x1="514.2134" y1="241.1973" x2="330.4656" y2="424.945">
	<stop  offset="0" style="stop-color:#0057A8"/>
	<stop  offset="1" style="stop-color:#758AC5"/>
</linearGradient>
<polygon fill-rule="evenodd" clip-rule="evenodd" fill="url(#SVGID_1_)" points="457.2,204.1 283.7,377.5 377.9,471.8 491.7,357.9 
	491.7,357.9 492.3,357.3 495.6,354 551.4,298.3 "/>
<polygon fill-rule="evenodd" clip-rule="evenodd" fill="#ED1C24" points="455.6,171.3 378.8,94.5 249.4,223.9 249.4,377.4 "/>
<polygon fill-rule="evenodd" clip-rule="evenodd" fill="#0057A8" points="244.9,228.5 94.5,378.8 244.9,529.2 "/>
<polygon fill-rule="evenodd" clip-rule="evenodd" fill="#0057A8" points="584.1,299.8 515.1,368.9 515.1,526.9 663.1,378.8 "/>
<linearGradient id="SVGID_2_" gradientUnits="userSpaceOnUse" x1="410.6304" y1="100.3472" x2="657.3133" y2="347.0301">
	<stop  offset="0" style="stop-color:#0057A8"/>
	<stop  offset="0.51" style="stop-color:#C5CCE8"/>
	<stop  offset="1" style="stop-color:#0057A8"/>
</linearGradient>
<polygon fill-rule="evenodd" clip-rule="evenodd" fill="url(#SVGID_2_)" points="417.2,100.3 657.3,340.4 650.7,347 410.6,106.9 "/>
<linearGradient id="SVGID_3_" gradientUnits="userSpaceOnUse" x1="100.3467" y1="347.0068" x2="347.03" y2="100.3235">
	<stop  offset="0" style="stop-color:#0057A8"/>
	<stop  offset="0.51" style="stop-color:#C5CCE8"/>
	<stop  offset="1" style="stop-color:#0057A8"/>
</linearGradient>
<polygon fill-rule="evenodd" clip-rule="evenodd" fill="url(#SVGID_3_)" points="100.3,340.4 340.4,100.3 347,106.9 106.9,347 "/>
<linearGradient id="SVGID_4_" gradientUnits="userSpaceOnUse" x1="526.9253" y1="374.3711" x2="588.6127" y2="312.6837">
	<stop  offset="0" style="stop-color:#0057A8"/>
	<stop  offset="0.51" style="stop-color:#C5CCE8"/>
	<stop  offset="1" style="stop-color:#0057A8"/>
</linearGradient>
<polygon fill-rule="evenodd" clip-rule="evenodd" fill="url(#SVGID_4_)" points="525,370.8 585.1,310.7 590.6,316.2 530.4,376.3 "/>
<linearGradient id="SVGID_5_" gradientUnits="userSpaceOnUse" x1="528.1646" y1="387.894" x2="528.1646" y2="501.1396">
	<stop  offset="0" style="stop-color:#0057A8"/>
	<stop  offset="0.51" style="stop-color:#C5CCE8"/>
	<stop  offset="1" style="stop-color:#0057A8"/>
</linearGradient>
<rect x="524.3" y="387.9" fill-rule="evenodd" clip-rule="evenodd" fill="url(#SVGID_5_)" width="7.8" height="113.2"/>
<linearGradient id="SVGID_6_" gradientUnits="userSpaceOnUse" x1="657.2886" y1="410.6299" x2="410.6053" y2="657.3132">
	<stop  offset="0" style="stop-color:#ED1C24"/>
	<stop  offset="0.5" style="stop-color:#FEE7DC"/>
	<stop  offset="1" style="stop-color:#ED1C24"/>
</linearGradient>
<polygon fill-rule="evenodd" clip-rule="evenodd" fill="url(#SVGID_6_)" points="657.3,417.2 417.2,657.3 410.6,650.7 650.7,410.6 
	"/>
<linearGradient id="SVGID_7_" gradientUnits="userSpaceOnUse" x1="443.6958" y1="166.4609" x2="268.5769" y2="341.5798">
	<stop  offset="0" style="stop-color:#ED1C24"/>
	<stop  offset="0.5" style="stop-color:#FEE7DC"/>
	<stop  offset="1" style="stop-color:#ED1C24"/>
</linearGradient>
<polygon fill-rule="evenodd" clip-rule="evenodd" fill="url(#SVGID_7_)" points="443.7,172 274.1,341.6 268.6,336.1 438.2,166.5 "/>
<linearGradient id="SVGID_8_" gradientUnits="userSpaceOnUse" x1="100.3472" y1="410.6304" x2="347.0301" y2="657.3133">
	<stop  offset="0" style="stop-color:#ED1C24"/>
	<stop  offset="0.5" style="stop-color:#FEE7DC"/>
	<stop  offset="1" style="stop-color:#ED1C24"/>
</linearGradient>
<polygon fill-rule="evenodd" clip-rule="evenodd" fill="url(#SVGID_8_)" points="106.9,410.6 347,650.7 340.4,657.3 100.3,417.2 "/>
<linearGradient id="SVGID_9_" gradientUnits="userSpaceOnUse" x1="229.8838" y1="264.0605" x2="229.8838" y2="498.0205">
	<stop  offset="0" style="stop-color:#0057A8"/>
	<stop  offset="0.51" style="stop-color:#C5CCE8"/>
	<stop  offset="1" style="stop-color:#0057A8"/>
</linearGradient>
<rect x="225.2" y="264.1" fill-rule="evenodd" clip-rule="evenodd" fill="url(#SVGID_9_)" width="9.3" height="234"/>
<g>
	<path fill="#142438" d="M952.9,391.3h-15.5v53.2h-26.8V314.2h26.8v52.2h12.3l31.9-52.2h32.8l-40.2,61.7l44.4,68.6h-32L952.9,391.3z
		"/>
	<path fill="#142438" d="M1055.6,398.6v45.9h-26.8V314.2h50.8c9.8,0,18.4,1.8,25.8,5.4s13.1,8.7,17.1,15.3c4,6.6,6,14.1,6,22.5
		c0,12.8-4.4,22.8-13.1,30.2c-8.7,7.4-20.8,11.1-36.3,11.1H1055.6z M1055.6,376.9h24c7.1,0,12.5-1.7,16.2-5
		c3.7-3.3,5.6-8.1,5.6-14.3c0-6.4-1.9-11.5-5.6-15.5c-3.8-3.9-8.9-6-15.6-6.1h-24.6V376.9z"/>
	<path fill="#142438" d="M1225.4,387.9h-51.5V423h60.5v21.6H1147V314.2h87.2V336h-60.3V367h51.5V387.9z"/>
	<path fill="#142438" d="M1323.6,417.7h-47.1l-8.9,26.8H1239l48.5-130.3h24.9l48.8,130.3h-28.5L1323.6,417.7z M1283.8,395.9h32.6
		l-16.4-48.8L1283.8,395.9z"/>
	<path fill="#142438" d="M1460.7,336h-39.9v108.5h-26.8V336h-39.4v-21.7h106.1V336z"/>
	<path fill="#142438" d="M1554.1,314.2h26.9v130.3h-26.9V358l-52.2,86.5h-26.8V314.2h26.8v86.7L1554.1,314.2z"/>
	<path fill="#142438" d="M1604.3,444.5V314.2h45.6c15.8,0,27.8,3,36,9.1c8.2,6.1,12.3,14.9,12.3,26.6c0,6.4-1.6,12-4.9,16.9
		c-3.3,4.9-7.8,8.4-13.7,10.7c6.7,1.7,11.9,5,15.8,10.1c3.8,5.1,5.8,11.3,5.8,18.6c0,12.5-4,22-12,28.5c-8,6.4-19.4,9.7-34.2,9.8
		H1604.3z M1631.2,368.8h19.9c13.5-0.2,20.3-5.6,20.3-16.2c0-5.9-1.7-10.2-5.1-12.8c-3.4-2.6-8.8-3.9-16.2-3.9h-18.8V368.8z
		 M1631.2,387.8V423h23c6.3,0,11.3-1.5,14.8-4.5c3.5-3,5.3-7.2,5.3-12.5c0-11.9-6.2-18-18.5-18.2H1631.2z"/>
	<path fill="#142438" d="M1769.9,399.1h-50.4v-20.8h50.4V399.1z"/>
	<path fill="#142438" d="M1827.4,314.2l33.5,94.5l33.3-94.5h35.3v130.3h-26.9v-35.6l2.7-61.5l-35.2,97.1h-18.4l-35.1-97l2.7,61.4
		v35.6h-26.8V314.2H1827.4z"/>
	<path fill="#142438" d="M2028,417.7h-47.1l-8.9,26.8h-28.5l48.5-130.3h24.9l48.8,130.3h-28.5L2028,417.7z M1988.2,395.9h32.6
		l-16.4-48.8L1988.2,395.9z"/>
	<path fill="#142438" d="M2178.2,401.1c-1,14-6.2,25.1-15.5,33.1c-9.3,8.1-21.6,12.1-36.9,12.1c-16.7,0-29.8-5.6-39.4-16.9
		c-9.6-11.2-14.4-26.7-14.4-46.3v-8c0-12.5,2.2-23.6,6.6-33.1c4.4-9.5,10.7-16.9,18.9-22c8.2-5.1,17.7-7.7,28.6-7.7
		c15,0,27.1,4,36.3,12.1c9.2,8.1,14.5,19.4,15.9,33.9h-26.8c-0.7-8.4-3-14.5-7-18.3c-4-3.8-10.2-5.7-18.4-5.7
		c-8.9,0-15.6,3.2-20.1,9.6c-4.4,6.4-6.7,16.4-6.8,29.8v9.8c0,14.1,2.1,24.4,6.4,30.9c4.3,6.5,11,9.8,20.2,9.8
		c8.3,0,14.5-1.9,18.6-5.7c4.1-3.8,6.4-9.6,7-17.6H2178.2z"/>
	<path fill="#142438" d="M2291.3,336h-39.9v108.5h-26.8V336h-39.4v-21.7h106.1V336z"/>
	<path fill="#142438" d="M2385,387.9h-51.5V423h60.5v21.6h-87.3V314.2h87.2V336h-60.3V367h51.5V387.9z"/>
	<path fill="#142438" d="M2436.5,398.6v45.9h-26.8V314.2h50.8c9.8,0,18.4,1.8,25.8,5.4s13.1,8.7,17.1,15.3c4,6.6,6,14.1,6,22.5
		c0,12.8-4.4,22.8-13.1,30.2c-8.7,7.4-20.8,11.1-36.3,11.1H2436.5z M2436.5,376.9h24c7.1,0,12.5-1.7,16.2-5
		c3.7-3.3,5.6-8.1,5.6-14.3c0-6.4-1.9-11.5-5.6-15.5c-3.8-3.9-8.9-6-15.6-6.1h-24.6V376.9z"/>
</g>
</svg>
