<?xml version="1.0" encoding="utf-8"?>
<!-- Generator: Adobe Illustrator 16.0.0, SVG Export Plug-In . SVG Version: 6.00 Build 0)  -->
<!DOCTYPE svg PUBLIC "-//W3C//DTD SVG 1.1//EN" "http://www.w3.org/Graphics/SVG/1.1/DTD/svg11.dtd">
<svg version="1.1" id="Layer_1" xmlns="http://www.w3.org/2000/svg" xmlns:xlink="http://www.w3.org/1999/xlink" x="0px" y="0px"
	 width="757.6px" height="757.6px" viewBox="0 0 757.6 757.6" enable-background="new 0 0 757.6 757.6" xml:space="preserve">
<polygon fill-rule="evenodd" clip-rule="evenodd" fill="#ED1C24" points="90.3,381.1 0,381.1 376.5,757.6 376.5,667.3 249.4,540.2 
	245.5,536.3 244.9,535.6 "/>
<polygon fill-rule="evenodd" clip-rule="evenodd" fill="#ED1C24" points="381.1,757.6 757.6,381.1 667.3,381.1 514.4,534 
	510.5,537.9 381.1,667.3 "/>
<polygon fill-rule="evenodd" clip-rule="evenodd" fill="#0057A8" points="376.5,90.3 376.5,0 0,376.5 90.3,376.5 244.9,222 
	245.5,221.3 249.4,217.4 "/>
<polygon fill-rule="evenodd" clip-rule="evenodd" fill="#0057A8" points="757.6,376.5 381.1,0 381.1,90.3 458.8,168.1 460.4,169.7 
	462,171.3 584.1,293.4 585.7,295 587.4,296.6 667.3,376.5 "/>
<polygon fill-rule="evenodd" clip-rule="evenodd" fill="#0057A8" points="458.8,174.5 254.1,379.2 376.2,501.3 510.5,367 510.5,367 
	511.2,366.3 515.1,362.4 580.9,296.6 "/>
<linearGradient id="SVGID_1_" gradientUnits="userSpaceOnUse" x1="514.2134" y1="241.1973" x2="330.4656" y2="424.945">
	<stop  offset="0" style="stop-color:#0057A8"/>
	<stop  offset="1" style="stop-color:#758AC5"/>
</linearGradient>
<polygon fill-rule="evenodd" clip-rule="evenodd" fill="url(#SVGID_1_)" points="457.2,204.1 283.7,377.5 377.9,471.8 491.7,357.9 
	491.7,357.9 492.3,357.3 495.6,354 551.4,298.3 "/>
<polygon fill-rule="evenodd" clip-rule="evenodd" fill="#ED1C24" points="455.6,171.3 378.8,94.5 249.4,223.9 249.4,377.4 "/>
<polygon fill-rule="evenodd" clip-rule="evenodd" fill="#0057A8" points="244.9,228.5 94.5,378.8 244.9,529.2 "/>
<polygon fill-rule="evenodd" clip-rule="evenodd" fill="#0057A8" points="584.1,299.8 515.1,368.9 515.1,526.9 663.1,378.8 "/>
<linearGradient id="SVGID_2_" gradientUnits="userSpaceOnUse" x1="410.6304" y1="100.3472" x2="657.3133" y2="347.0301">
	<stop  offset="0" style="stop-color:#0057A8"/>
	<stop  offset="0.51" style="stop-color:#C5CCE8"/>
	<stop  offset="1" style="stop-color:#0057A8"/>
</linearGradient>
<polygon fill-rule="evenodd" clip-rule="evenodd" fill="url(#SVGID_2_)" points="417.2,100.3 657.3,340.4 650.7,347 410.6,106.9 "/>
<linearGradient id="SVGID_3_" gradientUnits="userSpaceOnUse" x1="100.3467" y1="347.0068" x2="347.03" y2="100.3235">
	<stop  offset="0" style="stop-color:#0057A8"/>
	<stop  offset="0.51" style="stop-color:#C5CCE8"/>
	<stop  offset="1" style="stop-color:#0057A8"/>
</linearGradient>
<polygon fill-rule="evenodd" clip-rule="evenodd" fill="url(#SVGID_3_)" points="100.3,340.4 340.4,100.3 347,106.9 106.9,347 "/>
<linearGradient id="SVGID_4_" gradientUnits="userSpaceOnUse" x1="526.9253" y1="374.3711" x2="588.6127" y2="312.6837">
	<stop  offset="0" style="stop-color:#0057A8"/>
	<stop  offset="0.51" style="stop-color:#C5CCE8"/>
	<stop  offset="1" style="stop-color:#0057A8"/>
</linearGradient>
<polygon fill-rule="evenodd" clip-rule="evenodd" fill="url(#SVGID_4_)" points="525,370.8 585.1,310.7 590.6,316.2 530.4,376.3 "/>
<linearGradient id="SVGID_5_" gradientUnits="userSpaceOnUse" x1="528.1646" y1="387.894" x2="528.1646" y2="501.1396">
	<stop  offset="0" style="stop-color:#0057A8"/>
	<stop  offset="0.51" style="stop-color:#C5CCE8"/>
	<stop  offset="1" style="stop-color:#0057A8"/>
</linearGradient>
<rect x="524.3" y="387.9" fill-rule="evenodd" clip-rule="evenodd" fill="url(#SVGID_5_)" width="7.8" height="113.2"/>
<linearGradient id="SVGID_6_" gradientUnits="userSpaceOnUse" x1="657.2886" y1="410.6299" x2="410.6053" y2="657.3132">
	<stop  offset="0" style="stop-color:#ED1C24"/>
	<stop  offset="0.5" style="stop-color:#FEE7DC"/>
	<stop  offset="1" style="stop-color:#ED1C24"/>
</linearGradient>
<polygon fill-rule="evenodd" clip-rule="evenodd" fill="url(#SVGID_6_)" points="657.3,417.2 417.2,657.3 410.6,650.7 650.7,410.6 
	"/>
<linearGradient id="SVGID_7_" gradientUnits="userSpaceOnUse" x1="443.6958" y1="166.4609" x2="268.5769" y2="341.5798">
	<stop  offset="0" style="stop-color:#ED1C24"/>
	<stop  offset="0.5" style="stop-color:#FEE7DC"/>
	<stop  offset="1" style="stop-color:#ED1C24"/>
</linearGradient>
<polygon fill-rule="evenodd" clip-rule="evenodd" fill="url(#SVGID_7_)" points="443.7,172 274.1,341.6 268.6,336.1 438.2,166.5 "/>
<linearGradient id="SVGID_8_" gradientUnits="userSpaceOnUse" x1="100.3472" y1="410.6304" x2="347.0301" y2="657.3133">
	<stop  offset="0" style="stop-color:#ED1C24"/>
	<stop  offset="0.5" style="stop-color:#FEE7DC"/>
	<stop  offset="1" style="stop-color:#ED1C24"/>
</linearGradient>
<polygon fill-rule="evenodd" clip-rule="evenodd" fill="url(#SVGID_8_)" points="106.9,410.6 347,650.7 340.4,657.3 100.3,417.2 "/>
<linearGradient id="SVGID_9_" gradientUnits="userSpaceOnUse" x1="229.8838" y1="264.0605" x2="229.8838" y2="498.0205">
	<stop  offset="0" style="stop-color:#0057A8"/>
	<stop  offset="0.51" style="stop-color:#C5CCE8"/>
	<stop  offset="1" style="stop-color:#0057A8"/>
</linearGradient>
<rect x="225.2" y="264.1" fill-rule="evenodd" clip-rule="evenodd" fill="url(#SVGID_9_)" width="9.3" height="234"/>
</svg>
