<?xml version="1.0" encoding="utf-8"?>
<!-- Generator: Adobe Illustrator 16.0.0, SVG Export Plug-In . SVG Version: 6.00 Build 0)  -->
<!DOCTYPE svg PUBLIC "-//W3C//DTD SVG 1.1//EN" "http://www.w3.org/Graphics/SVG/1.1/DTD/svg11.dtd">
<svg version="1.1" id="Слой_1" xmlns="http://www.w3.org/2000/svg" xmlns:xlink="http://www.w3.org/1999/xlink" x="0px" y="0px"
	 width="21px" height="23.1px" viewBox="0 0 21 23.1" style="enable-background:new 0 0 21 23.1;" xml:space="preserve">
<style type="text/css">
<![CDATA[
	.st0{clip-path:url(#SVGID_2_);fill:#FFFFFF;}
]]>
</style>
<g>
	<defs>
		<rect id="SVGID_1_" width="21" height="23.1"/>
	</defs>
	<clipPath id="SVGID_2_">
		<use xlink:href="#SVGID_1_"  style="overflow:visible;"/>
	</clipPath>
	<path class="st0" d="M19.5,23.1h-18c-0.8,0-1.5-0.7-1.5-1.5V10.9c0-0.8,0.7-1.5,1.5-1.5h18c0.8,0,1.5,0.7,1.5,1.5v10.7
		C21,22.4,20.3,23.1,19.5,23.1 M1.5,10.4c-0.3,0-0.5,0.2-0.5,0.5v10.7c0,0.3,0.2,0.5,0.5,0.5h18c0.3,0,0.5-0.2,0.5-0.5V10.9
		c0-0.3-0.2-0.5-0.5-0.5H1.5z"/>
	<path class="st0" d="M16.9,10.2c-0.3,0-0.5-0.2-0.5-0.5V6.9c0-3.3-2.7-5.9-5.9-5.9C7.2,1,4.6,3.7,4.6,6.9v2.8
		c0,0.3-0.2,0.5-0.5,0.5S3.6,9.9,3.6,9.7V6.9C3.6,3.1,6.7,0,10.5,0c3.8,0,6.9,3.1,6.9,6.9v2.8C17.4,9.9,17.2,10.2,16.9,10.2"/>
	<path class="st0" d="M12,19.6H9V17c-0.7-0.5-1.1-1.3-1.1-2.1c0-1.4,1.2-2.6,2.6-2.6c1.4,0,2.6,1.2,2.6,2.6c0,0.8-0.4,1.6-1.1,2.1
		V19.6z M10,18.6h1v-2.1l0.3-0.1c0.5-0.3,0.8-0.8,0.8-1.4c0-0.9-0.7-1.6-1.6-1.6c-0.9,0-1.6,0.7-1.6,1.6c0,0.6,0.3,1.1,0.8,1.4
		l0.3,0.1V18.6z"/>
</g>
</svg>
