<?xml version="1.0" encoding="utf-8"?>
<!-- Generator: Adobe Illustrator 16.0.0, SVG Export Plug-In . SVG Version: 6.00 Build 0)  -->
<!DOCTYPE svg PUBLIC "-//W3C//DTD SVG 1.1//EN" "http://www.w3.org/Graphics/SVG/1.1/DTD/svg11.dtd">
<svg version="1.1" id="Слой_1" xmlns="http://www.w3.org/2000/svg" xmlns:xlink="http://www.w3.org/1999/xlink" x="0px" y="0px"
	 width="922.5px" height="922.5px" viewBox="0 0 922.5 922.5" style="enable-background:new 0 0 922.5 922.5;" xml:space="preserve"
	>
<style type="text/css">
<![CDATA[
	.st0{clip-path:url(#SVGID_2_);fill:#FFFFFF;}
]]>
</style>
<g>
	<defs>
		<rect id="SVGID_1_" width="922.5" height="922.5"/>
	</defs>
	<clipPath id="SVGID_2_">
		<use xlink:href="#SVGID_1_"  style="overflow:visible;"/>
	</clipPath>
	<path class="st0" d="M373.3,692.8c-19.7,11.4-35.8,2-35.8-20.7l0.1-169.4c0-22.8,0-60,0.1-82.8l0.1-169.4
		c0-22.8,16.1-32.1,35.9-20.7l254.7,211.1c19.7,11.4,19.7,30,0,41.4L373.3,692.8z"/>
	<path class="st0" d="M461.3,40c56.9,0,112.1,11.1,164,33.1c50.2,21.2,95.2,51.6,133.9,90.3c38.7,38.7,69.1,83.8,90.3,133.9
		c22,51.9,33.1,107.1,33.1,164c0,56.9-11.1,112.1-33.1,164c-21.2,50.2-51.6,95.2-90.3,133.9c-38.7,38.7-83.8,69.1-133.9,90.3
		c-51.9,22-107.1,33.1-164,33.1c-56.9,0-112.1-11.1-164-33.1c-50.2-21.2-95.2-51.6-133.9-90.3c-38.7-38.7-69.1-83.8-90.3-133.9
		c-22-51.9-33.1-107.1-33.1-164c0-56.9,11.1-112.1,33.1-164c21.2-50.2,51.6-95.2,90.3-133.9c38.7-38.7,83.8-69.1,133.9-90.3
		C349.2,51.1,404.4,40,461.3,40 M461.3,0C206.5,0,0,206.5,0,461.3C0,716,206.5,922.5,461.3,922.5S922.5,716,922.5,461.3
		C922.5,206.5,716,0,461.3,0"/>
</g>
</svg>
