<?xml version="1.0" encoding="utf-8"?>
<!-- Generator: Adobe Illustrator 16.0.0, SVG Export Plug-In . SVG Version: 6.00 Build 0)  -->
<!DOCTYPE svg PUBLIC "-//W3C//DTD SVG 1.1//EN" "http://www.w3.org/Graphics/SVG/1.1/DTD/svg11.dtd">
<svg version="1.1" id="Слой_1" xmlns="http://www.w3.org/2000/svg" xmlns:xlink="http://www.w3.org/1999/xlink" x="0px" y="0px"
	 width="12.8px" height="8.6px" viewBox="0 0 12.8 8.6" style="enable-background:new 0 0 12.8 8.6;" xml:space="preserve">
<style type="text/css">
<![CDATA[
	.st0{fill:#869FAE;}
	.st1{fill:none;}
]]>
</style>
<path class="st0" d="M3.1,8.6h1l-2-3c0.3,0.2,0.6,0.3,1,0.3c0.5,0,0.9-0.1,1.3-0.4c0.4-0.3,0.7-0.6,1-1.1c0.2-0.5,0.4-0.9,0.4-1.4
	c0-0.5-0.1-1-0.4-1.5C5.1,1,4.7,0.7,4.3,0.4S3.4,0,2.9,0c-0.5,0-1,0.1-1.4,0.4C1,0.7,0.6,1,0.4,1.5C0.1,1.9,0,2.4,0,2.9
	c0,0.3,0,0.6,0.1,0.9c0.1,0.2,0.2,0.5,0.3,0.7s0.3,0.6,0.7,1L3.1,8.6z"/>
<path class="st0" d="M10.1,8.6h1l-2-3c0.3,0.2,0.6,0.3,1,0.3c0.5,0,0.9-0.1,1.3-0.4c0.4-0.3,0.7-0.6,1-1.1c0.2-0.5,0.4-0.9,0.4-1.4
	c0-0.5-0.1-1-0.4-1.5c-0.3-0.5-0.6-0.8-1-1.1S10.4,0,9.9,0c-0.5,0-1,0.1-1.4,0.4C8,0.7,7.7,1,7.4,1.5S7.1,2.4,7.1,2.9
	c0,0.3,0,0.6,0.1,0.9c0.1,0.2,0.2,0.5,0.3,0.7s0.3,0.6,0.7,1L10.1,8.6z"/>
<rect class="st1" width="12.8" height="8.6"/>
</svg>
