<?xml version="1.0" encoding="utf-8"?>
<!-- Generator: Adobe Illustrator 16.0.0, SVG Export Plug-In . SVG Version: 6.00 Build 0)  -->
<!DOCTYPE svg PUBLIC "-//W3C//DTD SVG 1.1//EN" "http://www.w3.org/Graphics/SVG/1.1/DTD/svg11.dtd">
<svg version="1.1" id="Слой_1" xmlns="http://www.w3.org/2000/svg" xmlns:xlink="http://www.w3.org/1999/xlink" x="0px" y="0px"
	 width="12.8px" height="8.6px" viewBox="0 0 12.8 8.6" style="enable-background:new 0 0 12.8 8.6;" xml:space="preserve">
<style type="text/css">
<![CDATA[
	.st0{fill:#869FAE;}
	.st1{fill:none;}
]]>
</style>
<path class="st0" d="M9.7,0h-1l2,3c-0.3-0.2-0.6-0.3-1-0.3c-0.5,0-0.9,0.1-1.3,0.4C8,3.4,7.7,3.7,7.4,4.2C7.2,4.6,7.1,5.1,7.1,5.6
	c0,0.5,0.1,1,0.4,1.5c0.3,0.5,0.6,0.8,1,1.1s0.9,0.4,1.4,0.4c0.5,0,1-0.1,1.4-0.4c0.4-0.3,0.8-0.6,1-1.1c0.3-0.5,0.4-0.9,0.4-1.5
	c0-0.3,0-0.6-0.1-0.9c-0.1-0.2-0.2-0.5-0.3-0.7c-0.1-0.2-0.3-0.6-0.7-1L9.7,0z"/>
<path class="st0" d="M2.7,0h-1l2,3C3.4,2.8,3,2.7,2.7,2.7c-0.5,0-0.9,0.1-1.3,0.4c-0.4,0.3-0.7,0.6-1,1.1C0.1,4.6,0,5.1,0,5.6
	c0,0.5,0.1,1,0.4,1.5c0.3,0.5,0.6,0.8,1,1.1s0.9,0.4,1.4,0.4c0.5,0,1-0.1,1.4-0.4c0.4-0.3,0.8-0.6,1-1.1s0.4-0.9,0.4-1.5
	c0-0.3,0-0.6-0.1-0.9C5.5,4.5,5.4,4.3,5.3,4C5.2,3.8,5,3.5,4.7,3L2.7,0z"/>
<rect y="0" class="st1" width="12.8" height="8.6"/>
</svg>
