<?xml version="1.0" encoding="utf-8"?>
<!-- Generator: Adobe Illustrator 16.0.0, SVG Export Plug-In . SVG Version: 6.00 Build 0)  -->
<!DOCTYPE svg PUBLIC "-//W3C//DTD SVG 1.1//EN" "http://www.w3.org/Graphics/SVG/1.1/DTD/svg11.dtd">
<svg version="1.1" id="Слой_1" xmlns="http://www.w3.org/2000/svg" xmlns:xlink="http://www.w3.org/1999/xlink" x="0px" y="0px"
	 width="21.3px" height="24.2px" viewBox="0 0 21.3 24.2" style="enable-background:new 0 0 21.3 24.2;" xml:space="preserve">
<style type="text/css">
<![CDATA[
	.st0{clip-path:url(#SVGID_2_);fill:none;stroke:#FFFFFF;stroke-miterlimit:10;}
	.st1{clip-path:url(#SVGID_2_);fill:#FFFFFF;}
]]>
</style>
<g>
	<defs>
		<rect id="SVGID_1_" y="0" width="21.3" height="24.2"/>
	</defs>
	<clipPath id="SVGID_2_">
		<use xlink:href="#SVGID_1_"  style="overflow:visible;"/>
	</clipPath>
	<path class="st1" d="M10.7,23.7c-5.6,0-10.2-4.6-10.2-10.2c0-0.3,0.2-0.5,0.5-0.5s0.5,0.2,0.5,0.5c0,5.1,4.1,9.2,9.2,9.2
		c5.1,0,9.2-4.1,9.2-9.2c0-5.1-4.1-9.2-9.2-9.2c-0.3,0-0.5-0.2-0.5-0.5c0-0.3,0.2-0.5,0.5-0.5c5.6,0,10.2,4.6,10.2,10.2
		C20.8,19.2,16.3,23.7,10.7,23.7"/>
	<path class="st0" d="M10.7,23.7c-5.6,0-10.2-4.6-10.2-10.2c0-0.3,0.2-0.5,0.5-0.5s0.5,0.2,0.5,0.5c0,5.1,4.1,9.2,9.2,9.2
		c5.1,0,9.2-4.1,9.2-9.2c0-5.1-4.1-9.2-9.2-9.2c-0.3,0-0.5-0.2-0.5-0.5c0-0.3,0.2-0.5,0.5-0.5c5.6,0,10.2,4.6,10.2,10.2
		C20.8,19.2,16.3,23.7,10.7,23.7z"/>
	<path class="st1" d="M12.4,7.6c-0.1,0-0.3-0.1-0.4-0.2l-2.7-3c-0.2-0.2-0.2-0.5,0-0.7l2.7-3c0.2-0.2,0.5-0.2,0.7,0
		c0.2,0.2,0.2,0.5,0,0.7L10.3,4l2.4,2.7c0.2,0.2,0.2,0.5,0,0.7C12.6,7.5,12.5,7.6,12.4,7.6"/>
	<path class="st0" d="M12.4,7.6c-0.1,0-0.3-0.1-0.4-0.2l-2.7-3c-0.2-0.2-0.2-0.5,0-0.7l2.7-3c0.2-0.2,0.5-0.2,0.7,0
		c0.2,0.2,0.2,0.5,0,0.7L10.3,4l2.4,2.7c0.2,0.2,0.2,0.5,0,0.7C12.6,7.5,12.5,7.6,12.4,7.6z"/>
</g>
</svg>
