<?xml version="1.0" encoding="utf-8"?>
<!-- Generator: Adobe Illustrator 16.0.0, SVG Export Plug-In . SVG Version: 6.00 Build 0)  -->
<!DOCTYPE svg PUBLIC "-//W3C//DTD SVG 1.1//EN" "http://www.w3.org/Graphics/SVG/1.1/DTD/svg11.dtd">
<svg version="1.1" id="Слой_1" xmlns="http://www.w3.org/2000/svg" xmlns:xlink="http://www.w3.org/1999/xlink" x="0px" y="0px"
	 width="16.3px" height="22.1px" viewBox="0 0 16.3 22.1" style="enable-background:new 0 0 16.3 22.1;" xml:space="preserve">
<style type="text/css">
<![CDATA[
	.st0{clip-path:url(#SVGID_2_);fill:#FFFFFF;}
]]>
</style>
<g>
	<defs>
		<rect id="SVGID_1_" y="0" width="16.3" height="22.1"/>
	</defs>
	<clipPath id="SVGID_2_">
		<use xlink:href="#SVGID_1_"  style="overflow:visible;"/>
	</clipPath>
	<path class="st0" d="M8.2,9.8c-2.4,0-4.3-2.2-4.3-4.9C3.9,2.2,5.9,0,8.2,0c2.4,0,4.3,2.2,4.3,4.9C12.5,7.6,10.6,9.8,8.2,9.8 M8.2,1
		C6.4,1,4.9,2.7,4.9,4.9c0,2.1,1.5,3.9,3.3,3.9c1.8,0,3.3-1.7,3.3-3.9C11.5,2.7,10,1,8.2,1"/>
	<path class="st0" d="M15.5,22.1H0.8c-0.3,0-0.5-0.2-0.5-0.5L0,17c-0.1-1.5,1.1-3.3,2.6-3.9c3.6-1.3,7.5-1.3,11,0
		c1.7,0.6,2.7,2.5,2.6,3.9L16,21.7C15.9,21.9,15.7,22.1,15.5,22.1 M1.3,21.1H15l0.3-4.3c0.1-1-0.8-2.4-2-2.9c-3.3-1.2-7-1.2-10.3,0
		c-1.2,0.4-2,1.9-2,2.9L1.3,21.1z"/>
</g>
</svg>
