<?xml version="1.0" encoding="utf-8"?>
<!-- Generator: Adobe Illustrator 16.0.0, SVG Export Plug-In . SVG Version: 6.00 Build 0)  -->
<!DOCTYPE svg PUBLIC "-//W3C//DTD SVG 1.1//EN" "http://www.w3.org/Graphics/SVG/1.1/DTD/svg11.dtd">
<svg version="1.1" id="Слой_1" xmlns="http://www.w3.org/2000/svg" xmlns:xlink="http://www.w3.org/1999/xlink" x="0px" y="0px"
	 width="62.1px" height="65.2px" viewBox="0 0 62.1 65.2" style="enable-background:new 0 0 62.1 65.2;" xml:space="preserve">
<style type="text/css">
<![CDATA[
	.st0{fill-rule:evenodd;clip-rule:evenodd;fill:#184967;}
]]>
</style>
<path class="st0" d="M0,34.9h5.4c0-0.3,0.2-0.6,0.4-0.7l20.2-10c-0.7-1-1.1-2.2-1.1-3.5c0-0.8,0.2-1.6,0.5-2.4
	c0.3-0.8,0.8-1.4,1.3-2c0.4-0.4,0.9-0.8,1.5-1.1c0.3-0.2,0.7-0.3,1-0.4v-0.6c-0.5-0.1-0.9-0.3-1.2-0.7c-0.4-0.4-0.7-1-0.9-1.7
	l-2.1-9.3C25,2.6,25,2.4,25,2.3c0-0.6,0.3-1.1,0.6-1.5C26,0.4,26.5,0.2,27,0.1C27.2,0,27.4,0,27.6,0h7c0.2,0,0.4,0,0.6,0.1
	c0.5,0.1,1,0.4,1.3,0.7c0.4,0.4,0.6,0.9,0.6,1.5c0,0.1,0,0.3-0.1,0.4L34.9,12c-0.1,0.6-0.4,1.2-0.9,1.7c-0.3,0.3-0.7,0.6-1.2,0.7
	v2.1c0,0.5-0.2,0.9-0.5,1.3c-0.3,0.3-0.8,0.5-1.2,0.5c-0.4,0-0.7,0.1-1,0.2c-0.3,0.1-0.6,0.3-0.8,0.6c-0.3,0.2-0.4,0.5-0.6,0.8
	c-0.1,0.3-0.2,0.6-0.2,1c0,0.3,0.1,0.7,0.2,1c0.1,0.3,0.3,0.6,0.6,0.8c0,0,0,0.1,0.1,0.1l1.4-0.7c0.2-0.1,0.5-0.1,0.7,0l1.4,0.7
	c0,0,0.1,0,0.1-0.1c0.3-0.2,0.4-0.5,0.6-0.8c0.1-0.3,0.2-0.6,0.2-1c0-0.5,0.2-1,0.5-1.3c0.3-0.3,0.8-0.5,1.3-0.5
	c0.5,0,1,0.2,1.3,0.5c0.3,0.3,0.5,0.8,0.5,1.3c0,0.8-0.2,1.6-0.5,2.3c-0.2,0.4-0.4,0.8-0.6,1.1l20.2,10c0.3,0.1,0.4,0.4,0.4,0.7h5.4
	v30.2H0V34.9z M7.9,34.9h46.4L35,25.5c-0.5,0.4-1,0.8-1.6,1c-0.7,0.3-1.5,0.5-2.3,0.5c-0.8,0-1.6-0.2-2.4-0.5
	c-0.6-0.3-1.1-0.6-1.6-1L7.9,34.9z M42.7,54.1v7h-2.4v-7H39l1.2-1.5l1.3-1.5l1.2,1.5l1.3,1.5H42.7z M39,62h11v1.3H39V62z M48.7,54.1
	v7h-2.4v-7h-1.3l1.2-1.5l1.3-1.5l1.2,1.5l1.3,1.5H48.7z M56.6,62.7c0,0.3-0.3,0.6-0.6,0.6c-0.3,0-0.6-0.3-0.6-0.6V37.4
	c0-0.3,0.3-0.6,0.6-0.6c0.3,0,0.6,0.3,0.6,0.6V62.7z M6.7,62.7c0,0.3-0.3,0.6-0.6,0.6c-0.3,0-0.6-0.3-0.6-0.6V37.4
	c0-0.3,0.3-0.6,0.6-0.6c0.3,0,0.6,0.3,0.6,0.6V62.7z"/>
</svg>
