<?xml version="1.0" encoding="utf-8"?>
<!-- Generator: Adobe Illustrator 16.0.0, SVG Export Plug-In . SVG Version: 6.00 Build 0)  -->
<!DOCTYPE svg PUBLIC "-//W3C//DTD SVG 1.1//EN" "http://www.w3.org/Graphics/SVG/1.1/DTD/svg11.dtd">
<svg version="1.1" id="Слой_1" xmlns="http://www.w3.org/2000/svg" xmlns:xlink="http://www.w3.org/1999/xlink" x="0px" y="0px"
	 width="29.1px" height="29.1px" viewBox="0 0 29.1 29.1" style="enable-background:new 0 0 29.1 29.1;" xml:space="preserve">
<style type="text/css">
<![CDATA[
	.st0{fill:#184967;}
]]>
</style>
<path class="st0" d="M26.4,12.6l2.7-1.3l-1.9-4.6l-2.8,0.9c-0.8-1.1-1.7-2-2.8-2.8l0.9-2.8L17.8,0l-1.3,2.7c-1.3-0.2-2.7-0.2-3.9,0
	L11.2,0L6.6,1.9l0.9,2.8c-1.1,0.8-2,1.7-2.8,2.8L1.9,6.6L0,11.2l2.7,1.3c-0.2,1.3-0.2,2.7,0,3.9L0,17.8l1.9,4.6l2.8-0.9
	c0.8,1.1,1.7,2,2.8,2.8l-0.9,2.8l4.6,1.9l1.3-2.7c1.3,0.2,2.7,0.2,3.9,0l1.3,2.7l4.6-1.9l-0.9-2.8c1.1-0.8,2-1.7,2.8-2.8l2.8,0.9
	l1.9-4.6l-2.7-1.3C26.6,15.2,26.6,13.8,26.4,12.6 M16.4,19c-2.5,1-5.3-0.1-6.3-2.6c-1-2.5,0.1-5.3,2.6-6.3c2.5-1,5.3,0.1,6.3,2.6
	S18.8,18,16.4,19"/>
</svg>
