<?xml version="1.0" encoding="utf-8"?>
<!-- Generator: Adobe Illustrator 16.0.0, SVG Export Plug-In . SVG Version: 6.00 Build 0)  -->
<!DOCTYPE svg PUBLIC "-//W3C//DTD SVG 1.1//EN" "http://www.w3.org/Graphics/SVG/1.1/DTD/svg11.dtd">
<svg version="1.1" id="Слой_1" xmlns="http://www.w3.org/2000/svg" xmlns:xlink="http://www.w3.org/1999/xlink" x="0px" y="0px"
	 width="111.571px" height="111.571px" viewBox="0 0 111.571 111.571" enable-background="new 0 0 111.571 111.571"
	 xml:space="preserve">
<g>
	<defs>
		<rect id="SVGID_1_" width="111.571" height="111.571"/>
	</defs>
	<clipPath id="SVGID_2_">
		<use xlink:href="#SVGID_1_"  overflow="visible"/>
	</clipPath>
	<path clip-path="url(#SVGID_2_)" fill-rule="evenodd" clip-rule="evenodd" fill="#e7e7e7" d="M55.785,0
		C71.19,0,85.138,6.244,95.232,16.338c10.095,10.095,16.339,24.042,16.339,39.447c0,15.404-6.244,29.351-16.339,39.446
		c-10.095,10.095-24.042,16.339-39.447,16.339c-15.404,0-29.351-6.244-39.446-16.339C6.244,85.136,0,71.19,0,55.786
		C0,40.38,6.244,26.434,16.339,16.338C26.434,6.244,40.381,0,55.785,0 M93.095,18.477C83.546,8.929,70.355,3.022,55.785,3.022
		c-14.57,0-27.761,5.906-37.308,15.454C8.929,28.024,3.023,41.215,3.023,55.786s5.906,27.761,15.454,37.308
		c9.547,9.548,22.738,15.454,37.308,15.454c14.57,0,27.761-5.906,37.31-15.454c9.548-9.547,15.453-22.737,15.453-37.308
		S102.643,28.024,93.095,18.477"/>
	<path clip-path="url(#SVGID_2_)" fill-rule="evenodd" clip-rule="evenodd" fill="#e7e7e7" d="M19.162,38.76h8.963
		c3.339,0,3.277,0.539,4.294,2.299c3.67,6.358,8.773,15.721,12.676,15.122V43.697c0-4.879-3.227-2.69-3.407-4.447
		c-0.092-0.904,1.543-2.376,4.549-2.376h10.354c2.653,0,2.923,1.456,2.913,2.956c-0.03,5.584-0.063,10.767-0.096,16.351
		c5.271-0.464,9.139-8.348,12.365-14.463c1.78-3.373,2.067-2.958,4.701-2.958h9.95c2.246,0,2.714,0.897,1.287,3.171
		c-3.176,5.066-6.606,10.569-9.955,15.682c-1.086,1.658-1.763,1.911,0.199,4.236c3.766,4.462,7.729,8.317,11.462,12.802
		c0.845,1.016,0.558,2.511-1.826,2.513c-4.234,0.004-8.471,0.011-12.707,0.011c-1.693,0-2.342-0.048-4.387-2.213
		c-3.191-3.379-6.161-6.741-10.646-7.191v7.071c0,1.342-0.567,2.312-2.608,2.312h-8.359c-11.881,0-25.298-23.873-31.229-35.579
		C16.489,39.27,17.559,38.76,19.162,38.76"/>
</g>
</svg>
