<?xml version="1.0" encoding="utf-8"?>
<!-- Generator: Adobe Illustrator 16.0.0, SVG Export Plug-In . SVG Version: 6.00 Build 0)  -->
<!DOCTYPE svg PUBLIC "-//W3C//DTD SVG 1.1//EN" "http://www.w3.org/Graphics/SVG/1.1/DTD/svg11.dtd">
<svg version="1.1" id="Слой_1" xmlns="http://www.w3.org/2000/svg" xmlns:xlink="http://www.w3.org/1999/xlink" x="0px" y="0px"
	 width="111.571px" height="111.571px" viewBox="0 0 111.571 111.571" enable-background="new 0 0 111.571 111.571"
	 xml:space="preserve">
<g>
	<defs>
		<rect id="SVGID_1_" width="111.571" height="111.571"/>
	</defs>
	<clipPath id="SVGID_2_">
		<use xlink:href="#SVGID_1_"  overflow="visible"/>
	</clipPath>
	<path clip-path="url(#SVGID_2_)" fill-rule="evenodd" clip-rule="evenodd" fill="#00a7f6" d="M37.759,44.541h7.139v-6.604
		c0-16.936,11.414-16.133,11.414-16.133h13.496v11.361h-8.177c-5.354,0-5.845,3.85-5.845,6.111v5.265h13.207L67.03,55.785H55.786
		v34.27H44.898v-34.27h-7.139V44.541z"/>
	<path clip-path="url(#SVGID_2_)" fill-rule="evenodd" clip-rule="evenodd" fill="#00a7f6" d="M55.785,0
		C71.19,0,85.138,6.244,95.232,16.338c10.095,10.095,16.339,24.042,16.339,39.447c0,15.404-6.244,29.351-16.339,39.446
		c-10.095,10.095-24.042,16.339-39.447,16.339c-15.404,0-29.351-6.244-39.446-16.339C6.244,85.136,0,71.19,0,55.786
		C0,40.38,6.244,26.434,16.339,16.338C26.434,6.244,40.381,0,55.785,0 M93.095,18.477C83.546,8.929,70.355,3.022,55.785,3.022
		c-14.57,0-27.761,5.906-37.308,15.454C8.929,28.024,3.023,41.215,3.023,55.786c0,14.569,5.906,27.761,15.454,37.308
		c9.547,9.548,22.738,15.454,37.308,15.454c14.57,0,27.761-5.906,37.31-15.454c9.548-9.547,15.453-22.738,15.453-37.308
		C108.548,41.215,102.643,28.024,93.095,18.477"/>
</g>
</svg>
