<?xml version="1.0" encoding="utf-8"?>
<!-- Generator: Adobe Illustrator 16.0.0, SVG Export Plug-In . SVG Version: 6.00 Build 0)  -->
<!DOCTYPE svg PUBLIC "-//W3C//DTD SVG 1.1//EN" "http://www.w3.org/Graphics/SVG/1.1/DTD/svg11.dtd">
<svg version="1.1" id="Слой_1" xmlns="http://www.w3.org/2000/svg" xmlns:xlink="http://www.w3.org/1999/xlink" x="0px" y="0px"
	 width="111.571px" height="111.571px" viewBox="0 0 111.571 111.571" enable-background="new 0 0 111.571 111.571"
	 xml:space="preserve">
<g>
	<defs>
		<rect id="SVGID_1_" width="111.571" height="111.571"/>
	</defs>
	<clipPath id="SVGID_2_">
		<use xlink:href="#SVGID_1_"  overflow="visible"/>
	</clipPath>
	<path clip-path="url(#SVGID_2_)" fill-rule="evenodd" clip-rule="evenodd" fill="#e7e7e7" d="M36.714,64.685
		c-1.768-1.453-2.023-4.065-0.569-5.834c1.454-1.768,4.066-2.022,5.834-0.568c0.035,0.028,12.023,10.153,27.615-0.128
		c1.911-1.256,4.48-0.726,5.736,1.186c1.256,1.912,0.726,4.48-1.186,5.737C53.396,78.759,36.763,64.725,36.714,64.685"/>
	<path clip-path="url(#SVGID_2_)" fill-rule="evenodd" clip-rule="evenodd" fill="#e7e7e7" d="M52.386,69.716
		c1.678-1.563,4.305-1.468,5.867,0.211c1.561,1.678,1.466,4.305-0.212,5.866L44.479,88.434c-1.678,1.562-4.305,1.467-5.866-0.211
		c-1.562-1.679-1.467-4.306,0.211-5.866L52.386,69.716z"/>
	<path clip-path="url(#SVGID_2_)" fill-rule="evenodd" clip-rule="evenodd" fill="#e7e7e7" d="M52.386,75.793
		c-1.678-1.562-1.773-4.188-0.211-5.867c1.562-1.678,4.188-1.771,5.866-0.211l13.562,12.642c1.679,1.561,1.773,4.188,0.212,5.865
		c-1.562,1.679-4.188,1.773-5.867,0.212L52.386,75.793z"/>
	<path clip-path="url(#SVGID_2_)" fill-rule="evenodd" clip-rule="evenodd" fill="#e7e7e7" d="M55.552,21.328
		c4.855,0,9.253,1.969,12.435,5.152c3.184,3.183,5.152,7.579,5.152,12.435s-1.969,9.254-5.152,12.436
		c-3.182,3.183-7.579,5.151-12.435,5.151c-4.856,0-9.254-1.968-12.436-5.151c-3.183-3.182-5.151-7.58-5.151-12.436
		s1.968-9.252,5.151-12.435C46.297,23.296,50.695,21.328,55.552,21.328 M62.574,31.892c-1.797-1.797-4.279-2.909-7.022-2.909
		s-5.227,1.112-7.024,2.909c-1.797,1.797-2.909,4.28-2.909,7.023c0,2.744,1.112,5.227,2.909,7.024
		c1.797,1.797,4.281,2.909,7.024,2.909s5.226-1.112,7.022-2.909s2.909-4.28,2.909-7.024C65.483,36.171,64.371,33.688,62.574,31.892"
		/>
	<path clip-path="url(#SVGID_2_)" fill-rule="evenodd" clip-rule="evenodd" fill="#e7e7e7" d="M55.785,0
		C71.19,0,85.138,6.244,95.232,16.338c10.095,10.095,16.339,24.042,16.339,39.447c0,15.404-6.244,29.351-16.339,39.446
		c-10.095,10.095-24.042,16.339-39.447,16.339c-15.404,0-29.351-6.244-39.446-16.339C6.244,85.136,0,71.19,0,55.786
		C0,40.38,6.244,26.434,16.339,16.338C26.434,6.244,40.381,0,55.785,0 M93.095,18.477C83.546,8.929,70.355,3.022,55.785,3.022
		c-14.57,0-27.761,5.906-37.309,15.454C8.928,28.024,3.023,41.215,3.023,55.786s5.905,27.761,15.453,37.308
		c9.548,9.548,22.739,15.454,37.309,15.454c14.57,0,27.761-5.906,37.31-15.454c9.548-9.547,15.453-22.737,15.453-37.308
		S102.643,28.024,93.095,18.477"/>
</g>
</svg>
