<?xml version="1.0" encoding="utf-8"?>
<!-- Generator: Adobe Illustrator 16.0.0, SVG Export Plug-In . SVG Version: 6.00 Build 0)  -->
<!DOCTYPE svg PUBLIC "-//W3C//DTD SVG 1.1//EN" "http://www.w3.org/Graphics/SVG/1.1/DTD/svg11.dtd">
<svg version="1.1" id="Слой_1" xmlns="http://www.w3.org/2000/svg" xmlns:xlink="http://www.w3.org/1999/xlink" x="0px" y="0px"
	 width="111.571px" height="111.571px" viewBox="0 0 111.571 111.571" enable-background="new 0 0 111.571 111.571"
	 xml:space="preserve">
<g>
	<defs>
		<rect id="SVGID_1_" width="111.571" height="111.571"/>
	</defs>
	<clipPath id="SVGID_2_">
		<use xlink:href="#SVGID_1_"  overflow="visible"/>
	</clipPath>
	<path clip-path="url(#SVGID_2_)" fill-rule="evenodd" clip-rule="evenodd" fill="#e7e7e7" d="M35.31,29.55h43.412
		c1.616,0,3.085,0.66,4.147,1.723c1.063,1.062,1.723,2.531,1.723,4.147v43.412c0,1.616-0.659,3.084-1.723,4.147
		c-1.063,1.063-2.531,1.723-4.147,1.723H35.31c-1.617,0-3.085-0.66-4.148-1.723c-1.063-1.063-1.723-2.531-1.723-4.147V35.42
		c0-1.616,0.66-3.085,1.723-4.147C32.225,30.21,33.693,29.55,35.31,29.55 M78.977,52.768h-7.019c0.78,1.894,1.21,3.969,1.21,6.144
		c0,4.46-1.808,8.499-4.73,11.422s-6.961,4.731-11.422,4.731c-4.46,0-8.499-1.809-11.421-4.731s-4.731-6.962-4.731-11.422
		c0-2.175,0.43-4.25,1.21-6.144h-7.018v24.708c0,0.441,0.181,0.844,0.474,1.137s0.696,0.475,1.136,0.475h40.7
		c0.442,0,0.844-0.182,1.137-0.475c0.292-0.293,0.475-0.695,0.475-1.137V52.768z M64.537,51.391
		c-1.925-1.924-4.584-3.115-7.521-3.115s-5.598,1.191-7.521,3.115c-1.925,1.924-3.115,4.584-3.115,7.521
		c0,2.938,1.19,5.597,3.115,7.521c1.924,1.926,4.584,3.115,7.521,3.115s5.597-1.189,7.521-3.115
		c1.924-1.925,3.115-4.584,3.115-7.521C67.652,55.975,66.461,53.314,64.537,51.391"/>
	<path clip-path="url(#SVGID_2_)" fill-rule="evenodd" clip-rule="evenodd" d="M71.707,34.286h5.543
		c1.729,0,3.145,1.415,3.145,3.145v5.608c0,1.73-1.415,3.144-3.145,3.144h-5.543c-1.73,0-3.146-1.414-3.146-3.144v-5.608
		C68.562,35.701,69.977,34.286,71.707,34.286"/>
	<path clip-path="url(#SVGID_2_)" fill-rule="evenodd" clip-rule="evenodd" fill="#e7e7e7" d="M55.785,0
		C71.19,0,85.138,6.244,95.232,16.338c10.095,10.095,16.339,24.042,16.339,39.447c0,15.404-6.244,29.351-16.339,39.446
		c-10.095,10.095-24.042,16.339-39.447,16.339c-15.404,0-29.351-6.244-39.446-16.339C6.244,85.136,0,71.19,0,55.786
		C0,40.38,6.244,26.434,16.339,16.338C26.434,6.244,40.381,0,55.785,0 M93.095,18.477C83.546,8.929,70.355,3.022,55.785,3.022
		c-14.57,0-27.761,5.906-37.308,15.454C8.929,28.024,3.023,41.215,3.023,55.786s5.906,27.761,15.454,37.309
		c9.547,9.547,22.738,15.453,37.308,15.453c14.57,0,27.761-5.906,37.31-15.453c9.548-9.548,15.453-22.738,15.453-37.309
		S102.643,28.024,93.095,18.477"/>
</g>
</svg>
