<?xml version="1.0" encoding="utf-8"?>
<!-- Generator: Adobe Illustrator 16.0.0, SVG Export Plug-In . SVG Version: 6.00 Build 0)  -->
<!DOCTYPE svg PUBLIC "-//W3C//DTD SVG 1.1//EN" "http://www.w3.org/Graphics/SVG/1.1/DTD/svg11.dtd">
<svg version="1.1" id="Слой_1" xmlns="http://www.w3.org/2000/svg" xmlns:xlink="http://www.w3.org/1999/xlink" x="0px" y="0px"
	 width="111.571px" height="111.571px" viewBox="0 0 111.571 111.571" enable-background="new 0 0 111.571 111.571"
	 xml:space="preserve">
<g>
	<defs>
		<rect id="SVGID_1_" width="111.571" height="111.571"/>
	</defs>
	<clipPath id="SVGID_2_">
		<use xlink:href="#SVGID_1_"  overflow="visible"/>
	</clipPath>
	<path clip-path="url(#SVGID_2_)" fill-rule="evenodd" clip-rule="evenodd" fill="#00a7f6" d="M27.916,29.494
		c6.606,8.822,16.11,14.658,29.658,16.327c0,0-1.736-18.344,13.329-18.378c5.257-0.012,9.088,1.849,11.627,4.915
		c2.792-0.654,5.519-1.793,8.171-3.495c-0.732,3.261-2.635,5.798-5.365,7.823c2.432-0.409,4.854-1.182,7.271-2.37
		c-1.123,3.229-3.376,5.567-6.42,7.282c1.194,9.688-2.996,22.45-11.375,31.956C63.945,85.881,44.309,93.44,23.735,80.292
		c7.545,0.69,14.539-1.191,20.823-6.39c-7.071-0.518-11.386-4.137-13.409-10.333c2.245,0.329,4.328,0.249,6.152-0.474
		c-7.674-2.479-10.835-7.879-11.358-14.986c1.947,1.179,4.021,1.976,6.389,1.893C25.973,43.926,24.809,37.042,27.916,29.494"/>
	<path clip-path="url(#SVGID_2_)" fill-rule="evenodd" clip-rule="evenodd" fill="#00a7f6" d="M55.785,0
		C71.19,0,85.138,6.244,95.232,16.338c10.095,10.095,16.339,24.042,16.339,39.447c0,15.404-6.244,29.351-16.339,39.446
		c-10.095,10.095-24.042,16.339-39.447,16.339c-15.404,0-29.351-6.244-39.446-16.339C6.244,85.136,0,71.19,0,55.786
		C0,40.38,6.244,26.434,16.339,16.338C26.434,6.244,40.381,0,55.785,0 M93.095,18.477C83.546,8.929,70.355,3.022,55.785,3.022
		c-14.57,0-27.761,5.906-37.308,15.454C8.929,28.024,3.023,41.215,3.023,55.786c0,14.569,5.906,27.761,15.454,37.308
		c9.547,9.548,22.738,15.454,37.308,15.454c14.57,0,27.761-5.906,37.31-15.454c9.548-9.547,15.453-22.738,15.453-37.308
		C108.548,41.215,102.643,28.024,93.095,18.477"/>
</g>
</svg>
