<?xml version="1.0" encoding="utf-8"?>
<!-- Generator: Adobe Illustrator 16.0.0, SVG Export Plug-In . SVG Version: 6.00 Build 0)  -->
<!DOCTYPE svg PUBLIC "-//W3C//DTD SVG 1.1//EN" "http://www.w3.org/Graphics/SVG/1.1/DTD/svg11.dtd">
<svg version="1.1" id="Слой_1" xmlns="http://www.w3.org/2000/svg" xmlns:xlink="http://www.w3.org/1999/xlink" x="0px" y="0px"
	 width="103.781px" height="103.783px" viewBox="0 0 103.781 103.783" enable-background="new 0 0 103.781 103.783"
	 xml:space="preserve">
<g>
	<defs>
		<rect id="SVGID_1_" width="103.781" height="103.783"/>
	</defs>
	<clipPath id="SVGID_2_">
		<use xlink:href="#SVGID_1_"  overflow="visible"/>
	</clipPath>
	<path clip-path="url(#SVGID_2_)" fill="#FFFFFF" d="M96.37,5c1.307,0,2.411,1.105,2.411,2.413v88.958
		c0,1.307-1.104,2.412-2.411,2.412H7.411C6.104,98.783,5,97.678,5,96.371V7.414C5,6.105,6.104,5,7.411,5H96.37z M96.37,0H7.411
		C3.335,0,0,3.337,0,7.414v88.958c0,4.077,3.335,7.412,7.411,7.412H96.37c4.075,0,7.411-3.335,7.411-7.412V7.414
		C103.781,3.337,100.445,0,96.37,0"/>
	<path clip-path="url(#SVGID_2_)" fill="#FFFFFF" d="M21.65,82.997h29.152v-52H21.65V82.997z M36.227,40.547
		c1.418,0,2.566,1.151,2.566,2.57c0,1.415-1.148,2.565-2.566,2.565c-1.416,0-2.564-1.15-2.564-2.565
		C33.663,41.698,34.811,40.547,36.227,40.547 M42.188,59.274c0,0.612-0.494,1.105-1.105,1.105c-0.61,0-1.106-0.493-1.106-1.105
		v-7.273c-0.09-0.02-0.182-0.032-0.273-0.032c-0.139,0-0.268,0.023-0.395,0.059v20.035c0,0.765-0.617,1.382-1.379,1.382
		c-0.763,0-1.381-0.617-1.381-1.382V60.831h-0.642v11.232c0,0.765-0.617,1.382-1.379,1.382c-0.766,0-1.383-0.617-1.383-1.382V52.028
		c-0.123-0.036-0.256-0.059-0.395-0.059c-0.091,0-0.181,0.012-0.273,0.032v7.273c0,0.612-0.496,1.105-1.105,1.105
		c-0.61,0-1.106-0.493-1.106-1.105V48.624c0-0.613,0.496-1.748,1.106-1.748c0,0,0,0.003,0.003,0.003v-0.003h9.708v0.003
		c0,0,0-0.003,0.013-0.003c0.608,0.017,1.092,1.141,1.092,1.748V59.274z"/>
	<path clip-path="url(#SVGID_2_)" fill="#FFFFFF" d="M52.98,82.997h29.148v-52H52.98V82.997z M67.557,40.547
		c1.414,0,2.564,1.151,2.564,2.57c0,1.415-1.15,2.565-2.564,2.565c-1.42,0-2.568-1.15-2.568-2.565
		C64.988,41.698,66.137,40.547,67.557,40.547 M73.514,59.274c0,0.612-0.494,1.105-1.104,1.105c-0.611,0-1.104-0.493-1.104-1.105
		v-7.273c-0.092-0.02-0.182-0.032-0.272-0.032c-0.14,0-0.272,0.023-0.397,0.059v20.035c0,0.765-0.617,1.382-1.381,1.382
		c-0.762,0-1.381-0.617-1.381-1.382V60.831h-0.641v11.232c0,0.765-0.616,1.382-1.381,1.382c-0.762,0-1.383-0.617-1.383-1.382V52.028
		c-0.123-0.036-0.256-0.059-0.391-0.059c-0.096,0-0.186,0.012-0.277,0.032v7.273c0,0.612-0.492,1.105-1.102,1.105
		c-0.611,0-1.105-0.493-1.105-1.105V48.624c0-0.613,0.494-1.748,1.105-1.748h9.709c-0.001,0-0.001,0.003-0.001,0.003
		s0-0.003,0.013-0.003c0.604,0.014,1.092,1.139,1.092,1.748V59.274z"/>
	<rect x="35.723" y="20.787" clip-path="url(#SVGID_2_)" fill="#FFFFFF" width="32.337" height="8.74"/>
	<polygon clip-path="url(#SVGID_2_)" fill="#FFFFFF" points="90.125,45.643 84.387,53.39 87.561,53.39 87.561,63.84 92.689,63.84 
		92.689,53.39 95.863,53.39 	"/>
	<polygon clip-path="url(#SVGID_2_)" fill="#FFFFFF" points="13.658,63.84 7.918,56.093 11.094,56.093 11.094,45.643 16.222,45.643 
		16.222,56.093 19.396,56.093 	"/>
</g>
</svg>
