<?xml version="1.0" encoding="utf-8"?>
<!-- Generator: Adobe Illustrator 16.0.0, SVG Export Plug-In . SVG Version: 6.00 Build 0)  -->
<!DOCTYPE svg PUBLIC "-//W3C//DTD SVG 1.1//EN" "http://www.w3.org/Graphics/SVG/1.1/DTD/svg11.dtd">
<svg version="1.1" id="Слой_1" xmlns="http://www.w3.org/2000/svg" xmlns:xlink="http://www.w3.org/1999/xlink" x="0px" y="0px"
	 width="103.781px" height="103.782px" viewBox="0 0 103.781 103.782" enable-background="new 0 0 103.781 103.782"
	 xml:space="preserve">
<g>
	<defs>
		<rect id="SVGID_1_" width="103.781" height="103.782"/>
	</defs>
	<clipPath id="SVGID_2_">
		<use xlink:href="#SVGID_1_"  overflow="visible"/>
	</clipPath>
	<path clip-path="url(#SVGID_2_)" fill="#FFFFFF" d="M96.37,5c1.307,0,2.411,1.105,2.411,2.412v88.956
		c0,1.309-1.104,2.414-2.411,2.414H7.411C6.104,98.782,5,97.677,5,96.368V7.412C5,6.105,6.104,5,7.411,5H96.37z M96.37,0H7.411
		C3.334,0,0,3.335,0,7.412v88.956c0,4.078,3.334,7.414,7.411,7.414H96.37c4.075,0,7.411-3.336,7.411-7.414V7.412
		C103.781,3.335,100.445,0,96.37,0"/>
	<path clip-path="url(#SVGID_2_)" fill="#FFFFFF" d="M49.68,34.683c-4.961-3.074-11.428-1.531-14.469,3.392
		c-3.056,4.937-1.56,11.415,3.402,14.477c4.961,3.071,11.417,1.53,14.482-3.407C56.137,44.221,54.632,37.753,49.68,34.683
		 M48.624,46.395c-1.538,2.479-4.783,3.24-7.253,1.713c-2.49-1.537-3.241-4.785-1.709-7.266c1.533-2.469,4.774-3.234,7.257-1.701
		C49.396,40.673,50.16,43.918,48.624,46.395"/>
	<path clip-path="url(#SVGID_2_)" fill="#FFFFFF" d="M68.993,37.643c-0.234-1.051-0.738-1.942-1.357-2.442
		c-0.605-0.509-1.3-0.35-1.781-0.13l-0.229,0.075c-1.394,0.569-2.488,0.275-3.169-0.082c-0.854-0.456-1.605-1.182-2.186-2.099v0.001
		c-0.594-0.856-2.396-3.458,0.004-5.91l0.149-0.122c0.46-0.456,0.624-0.995,0.426-1.626c-0.108-0.353-0.314-0.736-0.595-1.106
		c-0.277-0.313-0.687-0.678-1.166-1.037c-0.783-0.6-1.748-0.969-2.595-0.984c-0.629,0.043-1.104,0.383-1.431,1.068l-0.13,0.202
		c-0.552,1.045-1.404,1.722-2.471,1.957c-0.972,0.299-2,0.061-2.996-0.168l-0.015-0.003c-0.553-0.137-1.059-0.331-1.504-0.577
		c-0.512-0.24-0.904-0.502-1.23-0.828c-0.821-0.807-1.193-1.901-1.078-3.162l0.01-0.104l0.035-0.098
		c0.052-0.614-0.169-1.114-0.737-1.486c-0.319-0.208-0.717-0.368-1.146-0.459c-0.433-0.063-0.974-0.085-1.572-0.048
		c-0.979,0.036-1.952,0.378-2.619,0.915c-0.46,0.429-0.604,0.992-0.41,1.734l0.046,0.176l-0.014,0.073
		c0.316,1.465-0.169,2.48-0.645,3.081c-0.567,0.875-1.542,1.364-2.402,1.795l-0.009,0.004c-0.514,0.251-1.029,0.426-1.526,0.523
		c-0.483,0.139-0.989,0.196-1.471,0.155c-0.009,0-0.019-0.001-0.028-0.002c-1.146-0.112-2.12-0.705-2.823-1.72l-0.085-0.156
		c-0.259-0.393-0.642-0.65-1.12-0.701c-0.006-0.002-0.016-0.005-0.024-0.005c-0.804-0.078-1.849,0.426-2.8,1.351
		c-0.827,0.863-1.316,1.682-1.395,2.347c-0.084,0.697,0.155,1.204,0.774,1.646l0.179,0.164c0.911,0.702,1.39,1.577,1.51,2.736
		c0.084,1.046-0.282,1.999-0.695,2.965l-0.02,0.039c-0.455,0.933-1.834,3.771-5.114,2.936l-0.179-0.068
		c-0.627-0.169-1.169-0.041-1.657,0.46c-0.587,0.571-0.829,1.696-0.975,2.611c-0.023,0.752-0.014,1.957,0.448,2.638
		c0.39,0.6,0.9,0.833,1.659,0.774l0.176-0.014l0.078,0.027c3.233-0.085,4.019,2.883,4.283,3.87l0.009,0.041
		c0.222,1.029,0.395,2.035,0.118,3.025c-0.361,1.189-1.049,1.975-2.173,2.49l-0.159,0.055c-0.599,0.275-0.932,0.724-0.982,1.424
		c-0.057,0.668,0.257,1.541,0.93,2.604c0.747,1.076,1.666,1.759,2.494,1.842c0.478,0.039,0.901-0.14,1.295-0.544l0.213-0.165
		c0.863-0.779,1.852-1.163,2.99-1.015c0.484,0.052,0.968,0.206,1.481,0.466c0.401,0.158,0.869,0.43,1.332,0.774l0.011,0.009
		c0.76,0.591,1.623,1.26,2.041,2.288c0.336,0.642,0.625,1.793-0.066,3.251l-0.089,0.147c-0.281,0.594-0.25,1.175,0.154,1.738
		c0.506,0.598,1.399,1.123,2.343,1.353c0.592,0.152,1.129,0.235,1.611,0.258c0.38-0.002,0.798-0.081,1.174-0.229
		c0.623-0.253,0.932-0.701,1.004-1.451l0.016-0.172l0.037-0.067c0.164-1.178,0.728-2.117,1.647-2.726
		c0.38-0.252,0.83-0.438,1.416-0.586c0.427-0.14,0.961-0.232,1.533-0.263h0.022c1.021-0.033,2.072-0.066,3.024,0.438
		c0.994,0.432,1.719,1.317,2.037,2.534l0.028,0.18c0.164,0.632,0.557,1.046,1.244,1.23c0.737,0.125,1.77-0.043,2.662-0.476
		c0.541-0.261,1.01-0.54,1.395-0.836c0.3-0.265,0.574-0.596,0.75-0.926c0.322-0.594,0.271-1.138-0.166-1.77l-0.115-0.219
		c-1.722-2.799,0.487-4.948,1.221-5.662l0.001,0.001c0.747-0.79,1.623-1.359,2.543-1.638c0.768-0.231,1.96-0.309,3.274,0.627
		l0.134,0.118c0.344,0.24,0.997,0.533,1.67,0.158c0.724-0.385,1.391-1.163,1.797-2.088c0.488-0.937,0.675-1.944,0.524-2.744
		c-0.133-0.772-0.771-1.101-1.285-1.24l-0.229-0.094c-1.43-0.458-2.078-1.385-2.371-2.098c-0.26-0.687-0.503-1.732-0.315-2.948
		c0.001-0.029,0.007-0.052,0.007-0.079c0.003-0.02,0.002-0.037,0.006-0.055c0.05-1.229,0.49-2.206,0.866-2.812
		c0.454-0.687,1.314-1.51,2.922-1.64l0.091-0.008l0.09,0.014c0.322-0.03,1.097-0.197,1.381-0.95
		C69.268,39.615,69.279,38.589,68.993,37.643 M53.797,52.085c-4.654,5.432-12.828,6.064-18.26,1.415
		c-5.431-4.651-6.065-12.827-1.411-18.257c4.648-5.434,12.823-6.067,18.253-1.416C57.815,38.479,58.446,46.652,53.797,52.085"/>
	<path clip-path="url(#SVGID_2_)" fill="#FFFFFF" d="M73.627,65.293c-2.904-1.801-6.692-0.897-8.474,1.986
		c-1.79,2.892-0.914,6.686,1.992,8.479c2.905,1.799,6.688,0.896,8.481-1.995C77.409,70.879,76.528,67.09,73.627,65.293
		 M73.009,72.151c-0.9,1.452-2.801,1.897-4.249,1.004c-1.457-0.9-1.896-2.803-1-4.256c0.898-1.445,2.797-1.895,4.25-0.997
		C73.461,68.801,73.908,70.701,73.009,72.151"/>
	<path clip-path="url(#SVGID_2_)" fill="#FFFFFF" d="M84.939,67.026c-0.138-0.616-0.433-1.138-0.795-1.431
		c-0.354-0.299-0.762-0.204-1.043-0.076l-0.136,0.044c-0.815,0.334-1.456,0.161-1.855-0.048c-0.5-0.268-0.94-0.692-1.28-1.229
		c-0.348-0.501-1.403-2.024,0.003-3.461l0.088-0.071c0.27-0.267,0.365-0.583,0.249-0.952c-0.063-0.207-0.185-0.432-0.348-0.648
		c-0.164-0.183-0.403-0.397-0.684-0.607c-0.459-0.351-1.023-0.567-1.52-0.575c-0.369,0.024-0.647,0.224-0.839,0.625l-0.076,0.118
		c-0.322,0.612-0.821,1.009-1.446,1.146c-0.569,0.175-1.173,0.035-1.755-0.098l-0.009-0.003c-0.323-0.08-0.62-0.193-0.881-0.338
		c-0.3-0.141-0.529-0.295-0.72-0.484c-0.481-0.474-0.698-1.114-0.633-1.853l0.007-0.061l0.021-0.058
		c0.03-0.359-0.099-0.652-0.432-0.87c-0.187-0.122-0.42-0.216-0.671-0.27c-0.254-0.037-0.57-0.05-0.922-0.027
		c-0.572,0.021-1.143,0.222-1.532,0.535c-0.271,0.251-0.354,0.581-0.241,1.017l0.027,0.103l-0.009,0.043
		c0.187,0.857-0.099,1.452-0.378,1.805c-0.332,0.512-0.902,0.799-1.406,1.051l-0.006,0.003c-0.301,0.146-0.602,0.249-0.893,0.306
		c-0.283,0.082-0.579,0.115-0.862,0.091c-0.005-0.001-0.011-0.001-0.017-0.002c-0.67-0.064-1.241-0.412-1.652-1.007l-0.051-0.091
		c-0.151-0.23-0.376-0.381-0.656-0.411c-0.003-0.001-0.009-0.002-0.014-0.002c-0.471-0.046-1.083,0.249-1.639,0.791
		c-0.484,0.505-0.771,0.984-0.817,1.374c-0.05,0.408,0.091,0.706,0.453,0.964l0.104,0.096c0.533,0.412,0.814,0.925,0.885,1.604
		c0.049,0.612-0.165,1.171-0.408,1.737l-0.012,0.021c-0.266,0.546-1.073,2.209-2.994,1.72l-0.105-0.04
		c-0.367-0.099-0.685-0.023-0.97,0.271c-0.344,0.334-0.486,0.992-0.571,1.529c-0.014,0.439-0.008,1.146,0.262,1.544
		c0.229,0.352,0.527,0.488,0.972,0.454l0.104-0.009l0.045,0.016c1.895-0.049,2.354,1.688,2.509,2.267l0.006,0.024
		c0.13,0.603,0.23,1.191,0.068,1.771c-0.211,0.696-0.613,1.156-1.271,1.458l-0.095,0.033c-0.351,0.16-0.546,0.423-0.574,0.833
		c-0.033,0.391,0.15,0.903,0.545,1.525c0.438,0.63,0.976,1.029,1.461,1.078c0.28,0.023,0.526-0.081,0.758-0.318l0.125-0.096
		c0.505-0.457,1.085-0.683,1.751-0.596c0.284,0.031,0.567,0.12,0.867,0.273c0.236,0.093,0.509,0.251,0.781,0.453l0.006,0.005
		c0.444,0.346,0.951,0.739,1.195,1.341c0.196,0.376,0.365,1.05-0.039,1.903l-0.052,0.087c-0.165,0.347-0.146,0.688,0.09,1.018
		c0.298,0.352,0.819,0.658,1.373,0.792c0.347,0.089,0.66,0.139,0.943,0.151c0.222-0.001,0.467-0.047,0.687-0.134
		c0.365-0.148,0.547-0.411,0.589-0.851l0.01-0.1l0.021-0.04c0.097-0.69,0.428-1.241,0.965-1.596
		c0.223-0.148,0.487-0.258,0.829-0.345c0.251-0.081,0.563-0.136,0.898-0.153h0.013c0.599-0.02,1.214-0.038,1.771,0.258
		c0.582,0.252,1.007,0.771,1.192,1.483l0.018,0.105c0.096,0.37,0.326,0.612,0.728,0.72c0.434,0.073,1.037-0.023,1.56-0.278
		c0.316-0.152,0.592-0.316,0.816-0.489c0.177-0.154,0.336-0.35,0.44-0.542c0.188-0.348,0.158-0.666-0.097-1.037L77.7,82.188
		c-1.008-1.639,0.285-2.898,0.715-3.316l0.001,0.001c0.438-0.463,0.95-0.796,1.489-0.96c0.449-0.135,1.147-0.18,1.917,0.367
		l0.078,0.07c0.202,0.141,0.585,0.313,0.979,0.093c0.424-0.226,0.814-0.681,1.052-1.223c0.286-0.55,0.396-1.14,0.309-1.607
		c-0.078-0.452-0.452-0.645-0.753-0.726l-0.134-0.056c-0.839-0.269-1.218-0.812-1.39-1.229c-0.151-0.402-0.294-1.015-0.185-1.728
		c0.001-0.017,0.004-0.029,0.004-0.046c0.002-0.012,0.001-0.021,0.003-0.032c0.03-0.72,0.288-1.292,0.508-1.646
		c0.267-0.403,0.771-0.885,1.711-0.961l0.054-0.004l0.053,0.008c0.188-0.018,0.643-0.115,0.809-0.557
		C85.099,68.182,85.107,67.58,84.939,67.026 M76.039,75.484c-2.726,3.181-7.513,3.551-10.694,0.829
		c-3.181-2.725-3.553-7.513-0.826-10.693c2.722-3.183,7.51-3.553,10.69-0.829C78.394,67.516,78.762,72.303,76.039,75.484"/>
</g>
</svg>
