<?xml version="1.0" encoding="utf-8"?>
<!-- Generator: Adobe Illustrator 16.0.0, SVG Export Plug-In . SVG Version: 6.00 Build 0)  -->
<!DOCTYPE svg PUBLIC "-//W3C//DTD SVG 1.1//EN" "http://www.w3.org/Graphics/SVG/1.1/DTD/svg11.dtd">
<svg version="1.1" id="Слой_1" xmlns="http://www.w3.org/2000/svg" xmlns:xlink="http://www.w3.org/1999/xlink" x="0px" y="0px"
	 width="103.783px" height="103.782px" viewBox="0 0 103.783 103.782" enable-background="new 0 0 103.783 103.782"
	 xml:space="preserve">
<g>
	<defs>
		<rect id="SVGID_1_" width="103.783" height="103.782"/>
	</defs>
	<clipPath id="SVGID_2_">
		<use xlink:href="#SVGID_1_"  overflow="visible"/>
	</clipPath>
	<path clip-path="url(#SVGID_2_)" fill="#FFFFFF" d="M96.369,5c1.309,0,2.414,1.105,2.414,2.413V96.37
		c0,1.307-1.105,2.412-2.414,2.412H7.413C6.105,98.782,5,97.677,5,96.37V7.413C5,6.105,6.105,5,7.413,5H96.369z M96.369,0H7.413
		C3.336,0,0,3.335,0,7.413V96.37c0,4.076,3.336,7.412,7.413,7.412h88.956c4.078,0,7.414-3.336,7.414-7.412V7.413
		C103.783,3.335,100.447,0,96.369,0"/>
	<path clip-path="url(#SVGID_2_)" fill="#FFFFFF" d="M41.348,24.629c0.899,0.559,1.945,0.904,3.077,0.962
		c1.711,0.095,3.31-0.491,4.523-1.515c1.332-1.114,2.216-2.756,2.313-4.625c0.194-3.587-2.556-6.645-6.138-6.841
		c-3.585-0.195-6.651,2.557-6.84,6.142C38.146,21.206,39.397,23.418,41.348,24.629"/>
	<path clip-path="url(#SVGID_2_)" fill="#FFFFFF" d="M48.536,85.589c-11.345,0-20.574-9.23-20.574-20.574
		c0-8.207,4.827-15.306,11.797-18.6l-0.766-5.767c-9.723,3.82-16.625,13.302-16.625,24.367c0,14.426,11.735,26.168,26.168,26.168
		c9.364,0,17.598-4.951,22.224-12.368l-2.959-6.585C64.875,80.026,57.341,85.589,48.536,85.589"/>
	<path clip-path="url(#SVGID_2_)" fill="#FFFFFF" d="M80.918,76.856l-7.439-16.715l-1.388-3.115
		c-0.083-0.257-0.195-0.504-0.33-0.734v-0.005c-0.307-0.521-0.743-0.965-1.263-1.282c-0.521-0.324-1.136-0.521-1.79-0.555
		c-0.143-0.012-0.28-0.012-0.414,0l-3.385,0.012l-11.031,0.042l-1.221-9.125H64.32c1.543,0,2.797-1.254,2.797-2.799
		s-1.254-2.795-2.797-2.795H51.91l-1.126-8.41c-0.145-2.406-2.08-4.515-5.179-4.507c-2.701,0.007-5.006,1.886-5.152,4.535
		c-0.012,0.236,0,0.461,0.023,0.69c0.01,0.144,0.027,0.286,0.054,0.422l1.148,8.494l0.743,5.479l1.511,11.168
		c0.011,0.346,0.057,0.682,0.14,1.004v0.007c0.24,0.958,0.778,1.803,1.517,2.44c0.737,0.636,1.672,1.064,2.711,1.174l0.012,0.008
		h0.096c0.05,0.009,0.099,0.016,0.149,0.019c0.331,0.016,0.65,0,0.964-0.044l16.3-0.39l2.65,5.775l3.693,8.043l1.957,4.265
		c0.504,1.345,1.777,2.332,3.328,2.415c2.076,0.109,3.85-1.447,3.96-3.481C81.45,78.149,81.265,77.452,80.918,76.856"/>
</g>
</svg>
