<?xml version="1.0" encoding="utf-8"?>
<!-- Generator: Adobe Illustrator 16.0.0, SVG Export Plug-In . SVG Version: 6.00 Build 0)  -->
<!DOCTYPE svg PUBLIC "-//W3C//DTD SVG 1.1//EN" "http://www.w3.org/Graphics/SVG/1.1/DTD/svg11.dtd">
<svg version="1.1" id="Слой_1" xmlns="http://www.w3.org/2000/svg" xmlns:xlink="http://www.w3.org/1999/xlink" x="0px" y="0px"
	 width="103.781px" height="103.782px" viewBox="0 0 103.781 103.782" enable-background="new 0 0 103.781 103.782"
	 xml:space="preserve">
<g>
	<defs>
		<rect id="SVGID_1_" width="103.781" height="103.782"/>
	</defs>
	<clipPath id="SVGID_2_">
		<use xlink:href="#SVGID_1_"  overflow="visible"/>
	</clipPath>
	<path clip-path="url(#SVGID_2_)" fill="#FFFFFF" d="M96.37,5c1.307,0,2.411,1.105,2.411,2.413V96.37
		c0,1.307-1.104,2.412-2.411,2.412H7.411C6.104,98.782,5,97.677,5,96.37V7.413C5,6.105,6.104,5,7.411,5H96.37z M96.37,0H7.411
		C3.334,0,0,3.335,0,7.413V96.37c0,4.076,3.334,7.412,7.411,7.412H96.37c4.075,0,7.411-3.336,7.411-7.412V7.413
		C103.781,3.335,100.445,0,96.37,0"/>
	<path clip-path="url(#SVGID_2_)" fill="#FFFFFF" d="M40.835,46.123h20.446c3.256,0,5.895-2.639,5.895-5.895V16.295
		c0-3.256-2.639-5.895-5.895-5.895H40.835c-3.256,0-5.895,2.639-5.895,5.895v23.933C34.94,43.484,37.579,46.123,40.835,46.123"/>
	<path clip-path="url(#SVGID_2_)" fill="#FFFFFF" d="M36.367,54.124h29.312c1.912,0,3.463-1.55,3.463-3.462
		c0-1.912-1.551-3.462-3.463-3.462H36.367c-1.912,0-3.462,1.55-3.462,3.462C32.905,52.574,34.455,54.124,36.367,54.124"/>
	<path clip-path="url(#SVGID_2_)" fill="#FFFFFF" d="M53.171,76.001V57.75h12.856c0.084,0.003,2.792,0.051,4.74-1.847
		c1.258-1.225,1.896-2.934,1.896-5.078v-9.053c0.229,0.057,0.469,0.087,0.716,0.087h6.007c1.656,0,3.001-1.343,3.001-3.001
		c0-1.657-1.345-3-3.001-3h-6.007c-1.656,0-3.001,1.343-3.001,3c0,0.014,0.001,0.028,0.001,0.043
		c-0.008-0.01-0.016-0.022-0.023-0.032v11.956c0,1.489-0.398,2.637-1.186,3.412c-1.237,1.219-3.1,1.204-3.118,1.204H35.999
		c-0.042,0-1.905,0.015-3.143-1.204c-0.786-0.774-1.184-1.923-1.184-3.412V39.379c0.018-0.131,0.028-0.266,0.028-0.402
		c0-1.657-1.344-3.001-3.001-3.001h-6.007c-1.657,0-3,1.344-3,3.001c0,1.657,1.343,3.001,3,3.001h6.007
		c0.228,0,0.451-0.027,0.665-0.075v8.922c0,2.144,0.638,3.853,1.896,5.078c1.947,1.897,4.656,1.85,4.77,1.846l13.306,0.001v18.223
		h-0.032"/>
	<polygon clip-path="url(#SVGID_2_)" fill="#FFFFFF" points="84.091,62.22 28.434,93.589 28.434,87.265 84.091,55.93 	"/>
</g>
</svg>
