<?xml version="1.0" encoding="utf-8"?>
<!-- Generator: Adobe Illustrator 16.0.0, SVG Export Plug-In . SVG Version: 6.00 Build 0)  -->
<!DOCTYPE svg PUBLIC "-//W3C//DTD SVG 1.1//EN" "http://www.w3.org/Graphics/SVG/1.1/DTD/svg11.dtd">
<svg version="1.1" id="Слой_1" xmlns="http://www.w3.org/2000/svg" xmlns:xlink="http://www.w3.org/1999/xlink" x="0px" y="0px"
	 width="103.781px" height="103.782px" viewBox="0 0 103.781 103.782" enable-background="new 0 0 103.781 103.782"
	 xml:space="preserve">
<g>
	<defs>
		<rect id="SVGID_1_" width="103.781" height="103.782"/>
	</defs>
	<clipPath id="SVGID_2_">
		<use xlink:href="#SVGID_1_"  overflow="visible"/>
	</clipPath>
	<path clip-path="url(#SVGID_2_)" fill="#FFFFFF" d="M96.37,5c1.307,0,2.411,1.105,2.411,2.412v88.956
		c0,1.309-1.104,2.414-2.411,2.414H7.411C6.104,98.782,5,97.677,5,96.368V7.412C5,6.105,6.104,5,7.411,5H96.37z M96.37,0H7.411
		C3.334,0,0,3.335,0,7.412v88.956c0,4.078,3.334,7.414,7.411,7.414H96.37c4.075,0,7.411-3.336,7.411-7.414V7.412
		C103.781,3.335,100.445,0,96.37,0"/>
	<path clip-path="url(#SVGID_2_)" fill="#FFFFFF" d="M63.833,53.733l9.336-2.998v-6.251h-5.523v2.223l-12.849,4.125
		C55.213,50.967,63.451,53.61,63.833,53.733"/>
	<path clip-path="url(#SVGID_2_)" fill="#FFFFFF" d="M30.612,63.822h5.525v-1.195l12.848-4.125c-1.04-0.335-8.937-2.87-9.035-2.901
		l-9.338,2.998V63.822z"/>
	<path clip-path="url(#SVGID_2_)" fill="#FFFFFF" d="M30.612,44.485v6.251c1.802,0.579,35.224,11.31,37.033,11.891v1.195h5.525
		v-5.224c-5.657-1.816-32.426-10.411-37.033-11.891v-2.223H30.612z"/>
	<path clip-path="url(#SVGID_2_)" fill="#FFFFFF" d="M63.833,75.285l9.336-2.998v-6.251h-5.523v2.223l-12.849,4.125
		C55.213,72.518,63.451,75.162,63.833,75.285"/>
	<path clip-path="url(#SVGID_2_)" fill="#FFFFFF" d="M30.612,85.374h5.525v-1.196l12.848-4.125c-1.04-0.335-8.937-2.87-9.035-2.901
		l-9.338,2.998V85.374z"/>
	<path clip-path="url(#SVGID_2_)" fill="#FFFFFF" d="M30.612,66.036v6.251c1.802,0.579,35.224,11.31,37.033,11.891v1.196h5.525
		v-5.225c-5.657-1.815-32.426-10.41-37.033-11.891v-2.223H30.612z"/>
	<rect x="24.648" y="21.373" clip-path="url(#SVGID_2_)" fill="#FFFFFF" width="14.183" height="7.549"/>
	<rect x="44.799" y="21.373" clip-path="url(#SVGID_2_)" fill="#FFFFFF" width="14.184" height="7.549"/>
	<rect x="64.951" y="21.373" clip-path="url(#SVGID_2_)" fill="#FFFFFF" width="14.182" height="7.549"/>
	<path clip-path="url(#SVGID_2_)" fill="#FFFFFF" d="M84.436,15.626H19.346c-0.246,0-0.445,0.199-0.445,0.444v26.193
		c0,0.245,0.199,0.444,0.445,0.444h65.089c0.245,0,0.443-0.199,0.443-0.444V16.07C84.879,15.825,84.681,15.626,84.436,15.626
		 M63.618,20.041h16.848v10.214H63.618V20.041z M43.466,20.041h16.848v10.214H43.466V20.041z M23.315,20.041h16.848v10.214H23.315
		V20.041z M23.24,40.042h-1.673v-1.54c0.439-0.439,3.968-3.968,4.429-4.429h3.213C28.482,34.799,23.905,39.376,23.24,40.042
		 M29.994,40.042h-3.213l5.969-5.969h3.213C35.236,34.799,30.66,39.376,29.994,40.042 M36.73,40.042h-3.195
		c0.665-0.666,5.242-5.243,5.969-5.969h3.195C41.371,35.401,38.063,38.708,36.73,40.042 M43.484,40.042h-3.195
		c0.665-0.666,5.242-5.243,5.969-5.969h3.196C48.125,35.401,44.818,38.708,43.484,40.042 M50.238,40.042h-3.195
		c0.666-0.666,5.243-5.243,5.969-5.969h3.196C54.879,35.401,51.572,38.708,50.238,40.042 M56.993,40.042h-3.196
		c0.666-0.666,5.243-5.243,5.97-5.969h3.195C61.634,35.401,58.326,38.708,56.993,40.042 M63.747,40.042h-3.195
		c0.665-0.666,5.242-5.243,5.97-5.969h3.195C68.389,35.401,65.081,38.708,63.747,40.042 M70.501,40.042h-3.194
		c0.666-0.666,5.241-5.243,5.969-5.969h3.196C75.143,35.401,71.835,38.708,70.501,40.042 M82.214,35.084
		c-2.171,2.171-2.753,2.752-4.959,4.958h-3.194c0.666-0.666,5.242-5.243,5.969-5.969h2.185V35.084z"/>
</g>
</svg>
