<?xml version="1.0" encoding="utf-8"?>
<!-- Generator: Adobe Illustrator 16.0.0, SVG Export Plug-In . SVG Version: 6.00 Build 0)  -->
<!DOCTYPE svg PUBLIC "-//W3C//DTD SVG 1.1//EN" "http://www.w3.org/Graphics/SVG/1.1/DTD/svg11.dtd">
<svg version="1.1" id="Слой_1" xmlns="http://www.w3.org/2000/svg" xmlns:xlink="http://www.w3.org/1999/xlink" x="0px" y="0px"
	 width="103.781px" height="103.782px" viewBox="0 0 103.781 103.782" enable-background="new 0 0 103.781 103.782"
	 xml:space="preserve">
<g>
	<defs>
		<rect id="SVGID_1_" width="103.781" height="103.782"/>
	</defs>
	<clipPath id="SVGID_2_">
		<use xlink:href="#SVGID_1_"  overflow="visible"/>
	</clipPath>
	<path clip-path="url(#SVGID_2_)" fill="#FFFFFF" d="M96.37,5c1.307,0,2.411,1.105,2.411,2.412v88.956
		c0,1.309-1.104,2.414-2.411,2.414H7.411C6.104,98.782,5,97.677,5,96.368V7.412C5,6.105,6.104,5,7.411,5H96.37z M96.37,0H7.411
		C3.334,0,0,3.335,0,7.412v88.956c0,4.078,3.334,7.414,7.411,7.414H96.37c4.075,0,7.411-3.336,7.411-7.414V7.412
		C103.781,3.335,100.445,0,96.37,0"/>
	<path clip-path="url(#SVGID_2_)" fill="#FFFFFF" d="M44.496,15.786c-0.717,0-1.297,0.562-1.297,1.256v15.88
		c0.091,0.903-0.662,1.635-1.596,1.635c-0.932,0-1.686-0.732-1.686-1.635v-15.88c0-0.697-0.585-1.263-1.304-1.263
		c-0.722,0-1.306,0.566-1.306,1.263c0,0.025,0.016,15.88,0.016,15.88c0,0.903-0.756,1.635-1.688,1.635
		c-0.934,0-1.688-0.732-1.688-1.635v-15.88c0-0.694-0.581-1.256-1.296-1.256c-0.717,0-1.298,0.562-1.298,1.256v15.88
		c0,0.903-0.755,1.635-1.687,1.635c-0.933,0-1.689-0.732-1.597-1.657V17.161H28.05C27.998,16.514,27.454,16,26.773,16
		s-1.223,0.514-1.277,1.161h-0.014l-0.005,19.12c0,4.85,2.964,8.954,7.056,10.358v39.417c0,1.659,1.387,3.005,3.102,3.005
		c1.714,0,3.1-1.346,3.1-3.005V46.639c4.093-1.404,7.058-5.508,7.058-10.358V17.042C45.793,16.348,45.212,15.786,44.496,15.786"/>
	<path clip-path="url(#SVGID_2_)" fill="#FFFFFF" d="M78.305,33.21c0-8.458-5.026-19.249-11.225-19.249
		c-6.2,0-11.227,10.791-11.227,19.249c0,7.606,2.566,12.115,7.864,13.016v39.58c0,1.798,1.504,3.256,3.36,3.256
		c1.857,0,3.362-1.458,3.362-3.256V46.232C75.609,45.224,78.305,40.7,78.305,33.21"/>
</g>
</svg>
