<?xml version="1.0" encoding="utf-8"?>
<!-- Generator: Adobe Illustrator 16.0.0, SVG Export Plug-In . SVG Version: 6.00 Build 0)  -->
<!DOCTYPE svg PUBLIC "-//W3C//DTD SVG 1.1//EN" "http://www.w3.org/Graphics/SVG/1.1/DTD/svg11.dtd">
<svg version="1.1" id="Слой_1" xmlns="http://www.w3.org/2000/svg" xmlns:xlink="http://www.w3.org/1999/xlink" x="0px" y="0px"
	 width="103.783px" height="103.783px" viewBox="0 0 103.783 103.783" enable-background="new 0 0 103.783 103.783"
	 xml:space="preserve">
<g>
	<defs>
		<rect id="SVGID_1_" width="103.783" height="103.783"/>
	</defs>
	<clipPath id="SVGID_2_">
		<use xlink:href="#SVGID_1_"  overflow="visible"/>
	</clipPath>
	<path clip-path="url(#SVGID_2_)" fill="#FFFFFF" d="M96.369,5c1.309,0,2.414,1.105,2.414,2.413v88.958
		c0,1.307-1.105,2.412-2.414,2.412H7.413C6.105,98.783,5,97.678,5,96.371V7.414C5,6.105,6.105,5,7.413,5H96.369z M96.369,0H7.413
		C3.336,0,0,3.337,0,7.414v88.958c0,4.077,3.336,7.412,7.413,7.412h88.956c4.078,0,7.414-3.335,7.414-7.412V7.414
		C103.783,3.337,100.447,0,96.369,0"/>
	<path clip-path="url(#SVGID_2_)" fill="#FFFFFF" d="M39.932,33.14c0.615,0.495,1.359,0.845,2.191,0.989
		c1.259,0.224,2.496-0.066,3.486-0.715c1.086-0.707,1.888-1.842,2.128-3.216c0.466-2.639-1.296-5.15-3.93-5.617
		c-2.638-0.466-5.153,1.295-5.617,3.933C37.869,30.32,38.598,32.068,39.932,33.14"/>
	<path clip-path="url(#SVGID_2_)" fill="#FFFFFF" d="M42.384,35.18c-1.998-0.237-3.876,0.948-4.222,2.895
		c-0.027,0.175-0.038,0.342-0.042,0.513c-0.009,0.11-0.009,0.214,0,0.32l0.089,6.389l0.059,4.125l0.039,3.008l7.571-8.376
		l-0.061-5.072C45.925,37.188,44.681,35.451,42.384,35.18"/>
	<path clip-path="url(#SVGID_2_)" fill="#FFFFFF" d="M89.856,30.725c-0.198-3.467-3.078-6.22-6.597-6.22H67.728L45.933,48.627
		l-7.564,8.374l-8.187,9.061h-9.659c-3.649,0-6.607,2.958-6.607,6.608v6.608h22.136l37.545-41.557h16.26v-6.224
		c0.008-0.127,0.012-0.256,0.012-0.384S89.864,30.853,89.856,30.725"/>
	<polygon clip-path="url(#SVGID_2_)" fill="#FFFFFF" points="65.91,57.175 56.441,67.436 61.478,72.083 70.945,61.822 
		74.062,64.698 75.445,51.892 62.793,54.299 	"/>
</g>
</svg>
