<?xml version="1.0" encoding="utf-8"?>
<!-- Generator: Adobe Illustrator 16.0.0, SVG Export Plug-In . SVG Version: 6.00 Build 0)  -->
<!DOCTYPE svg PUBLIC "-//W3C//DTD SVG 1.1//EN" "http://www.w3.org/Graphics/SVG/1.1/DTD/svg11.dtd">
<svg version="1.1" id="Слой_1" xmlns="http://www.w3.org/2000/svg" xmlns:xlink="http://www.w3.org/1999/xlink" x="0px" y="0px"
	 width="103.781px" height="103.782px" viewBox="0 0 103.781 103.782" enable-background="new 0 0 103.781 103.782"
	 xml:space="preserve">
<g>
	<defs>
		<rect id="SVGID_1_" width="103.781" height="103.782"/>
	</defs>
	<clipPath id="SVGID_2_">
		<use xlink:href="#SVGID_1_"  overflow="visible"/>
	</clipPath>
	<path clip-path="url(#SVGID_2_)" fill="#FFFFFF" d="M96.37,5c1.307,0,2.411,1.105,2.411,2.413V96.37
		c0,1.307-1.104,2.412-2.411,2.412H7.411C6.104,98.782,5,97.677,5,96.37V7.413C5,6.105,6.104,5,7.411,5H96.37z M96.37,0H7.411
		C3.334,0,0,3.335,0,7.413V96.37c0,4.076,3.334,7.412,7.411,7.412H96.37c4.075,0,7.411-3.336,7.411-7.412V7.413
		C103.781,3.335,100.445,0,96.37,0"/>
	<path clip-path="url(#SVGID_2_)" fill-rule="evenodd" clip-rule="evenodd" fill="#FFFFFF" d="M76.788,45.796H62.553l-2.612-7.375
		c2.174-0.622,3.674-2.071,3.674-3.754c0-2.277-2.795-4.115-6.262-4.115h-0.233l-1.632-4.608c-1.062-2.95-3.209-5.538-7.116-5.538
		c-1.787,0-2.795,11.906-3.029,25.39H31.263l-2.253-4.891c-0.57-1.243-1.76-2.356-3.908-2.356c-0.828,0-1.346,3.701-1.577,8.334
		c-1.58,1.087-2.641,2.926-2.641,4.996c0,2.096,1.061,3.934,2.641,5.021c0.231,4.633,0.749,8.333,1.577,8.333
		c2.148,0,3.338-1.113,3.908-2.356l2.253-4.891h14.079c0.234,13.484,1.242,25.39,3.029,25.39c3.907,0,6.055-2.587,7.116-5.538
		l1.632-4.608h0.233c3.467,0,6.262-1.836,6.262-4.114c0-1.683-1.5-3.131-3.674-3.752l2.612-7.377h14.235
		c3.365,0,6.109-2.743,6.109-6.107C82.897,48.539,80.153,45.796,76.788,45.796"/>
</g>
</svg>
