<?xml version="1.0" encoding="utf-8"?>
<!-- Generator: Adobe Illustrator 16.0.0, SVG Export Plug-In . SVG Version: 6.00 Build 0)  -->
<!DOCTYPE svg PUBLIC "-//W3C//DTD SVG 1.1//EN" "http://www.w3.org/Graphics/SVG/1.1/DTD/svg11.dtd">
<svg version="1.1" id="Слой_1" xmlns="http://www.w3.org/2000/svg" xmlns:xlink="http://www.w3.org/1999/xlink" x="0px" y="0px"
	 width="103.783px" height="103.782px" viewBox="0 0 103.783 103.782" enable-background="new 0 0 103.783 103.782"
	 xml:space="preserve">
<g>
	<defs>
		<rect id="SVGID_1_" width="103.783" height="103.782"/>
	</defs>
	<clipPath id="SVGID_2_">
		<use xlink:href="#SVGID_1_"  overflow="visible"/>
	</clipPath>
	<path clip-path="url(#SVGID_2_)" fill="#FFFFFF" d="M96.369,5c1.309,0,2.414,1.105,2.414,2.413V96.37
		c0,1.307-1.105,2.412-2.414,2.412H7.413C6.105,98.782,5,97.677,5,96.37V7.413C5,6.105,6.105,5,7.413,5H96.369z M96.369,0H7.413
		C3.336,0,0,3.335,0,7.413V96.37c0,4.076,3.336,7.412,7.413,7.412h88.956c4.078,0,7.414-3.336,7.414-7.412V7.413
		C103.783,3.335,100.447,0,96.369,0"/>
	<path clip-path="url(#SVGID_2_)" fill="#FFFFFF" d="M30.777,24.652c0.687,0.427,1.487,0.691,2.351,0.735
		c1.308,0.073,2.53-0.375,3.456-1.157c1.018-0.852,1.694-2.107,1.768-3.535c0.148-2.741-1.953-5.078-4.69-5.227
		c-2.74-0.15-5.083,1.953-5.227,4.693C28.331,22.036,29.287,23.727,30.777,24.652"/>
	<path clip-path="url(#SVGID_2_)" fill="#FFFFFF" d="M36.27,71.235c-8.67,0-15.722-7.055-15.722-15.723
		c0-6.271,3.688-11.696,9.015-14.213l-0.586-4.407c-7.429,2.919-12.704,10.165-12.704,18.62c0,11.024,8.968,19.996,19.997,19.996
		c7.156,0,13.448-3.783,16.982-9.45l-2.26-5.032C48.755,66.985,42.998,71.235,36.27,71.235"/>
	<path clip-path="url(#SVGID_2_)" fill="#FFFFFF" d="M61.015,64.563L55.33,51.79l-1.061-2.38c-0.063-0.197-0.15-0.385-0.252-0.561
		v-0.004c-0.235-0.399-0.568-0.738-0.965-0.98c-0.398-0.248-0.869-0.398-1.369-0.424c-0.107-0.008-0.213-0.008-0.316,0l-2.585,0.009
		l-8.429,0.032l-0.934-6.972h8.912c1.18,0,2.138-0.959,2.138-2.139c0-1.181-0.958-2.136-2.138-2.136h-9.483l-0.86-6.427
		c-0.111-1.838-1.589-3.449-3.958-3.444c-2.063,0.005-3.825,1.442-3.937,3.466c-0.008,0.18,0,0.352,0.018,0.527
		c0.008,0.11,0.021,0.219,0.042,0.322l0.876,6.491l0.569,4.187l1.154,8.534c0.009,0.265,0.043,0.521,0.107,0.768v0.005
		c0.183,0.732,0.595,1.377,1.159,1.864c0.563,0.486,1.278,0.813,2.072,0.897l0.009,0.007h0.073c0.039,0.006,0.076,0.011,0.114,0.013
		c0.253,0.012,0.497,0,0.737-0.034l12.456-0.297l2.025,4.413l2.821,6.146l1.496,3.259c0.386,1.027,1.359,1.781,2.543,1.846
		c1.586,0.083,2.942-1.106,3.026-2.661C61.421,65.551,61.279,65.019,61.015,64.563"/>
	<polyline clip-path="url(#SVGID_2_)" fill="#FFFFFF" points="90.487,67.938 90.487,89.938 13.34,89.938 	"/>
</g>
</svg>
