<?xml version="1.0" encoding="utf-8"?>
<!-- Generator: Adobe Illustrator 16.0.0, SVG Export Plug-In . SVG Version: 6.00 Build 0)  -->
<!DOCTYPE svg PUBLIC "-//W3C//DTD SVG 1.1//EN" "http://www.w3.org/Graphics/SVG/1.1/DTD/svg11.dtd">
<svg version="1.1" id="Слой_1" xmlns="http://www.w3.org/2000/svg" xmlns:xlink="http://www.w3.org/1999/xlink" x="0px" y="0px"
	 width="103.781px" height="103.782px" viewBox="0 0 103.781 103.782" enable-background="new 0 0 103.781 103.782"
	 xml:space="preserve">
<g>
	<defs>
		<rect id="SVGID_1_" width="103.781" height="103.782"/>
	</defs>
	<clipPath id="SVGID_2_">
		<use xlink:href="#SVGID_1_"  overflow="visible"/>
	</clipPath>
	<path clip-path="url(#SVGID_2_)" fill="#FFFFFF" d="M96.37,5c1.307,0,2.411,1.105,2.411,2.413V96.37
		c0,1.307-1.104,2.412-2.411,2.412H7.411C6.104,98.782,5,97.677,5,96.37V7.413C5,6.105,6.104,5,7.411,5H96.37z M96.37,0H7.411
		C3.334,0,0,3.335,0,7.413V96.37c0,4.076,3.334,7.412,7.411,7.412H96.37c4.075,0,7.411-3.336,7.411-7.412V7.413
		C103.781,3.335,100.445,0,96.37,0"/>
	<path clip-path="url(#SVGID_2_)" fill="#FFFFFF" d="M44.626,19.269c-0.723,0.43-1.566,0.696-2.477,0.741
		c-1.377,0.073-2.664-0.379-3.641-1.167c-1.072-0.858-1.783-2.122-1.862-3.561c-0.156-2.763,2.058-5.118,4.941-5.269
		c2.886-0.15,5.354,1.969,5.507,4.73C47.202,16.633,46.196,18.336,44.626,19.269"/>
	<path clip-path="url(#SVGID_2_)" fill="#FFFFFF" d="M38.84,66.213c9.133,0,16.562-7.108,16.562-15.843
		c0-6.321-3.885-11.787-9.496-14.324l0.616-4.441c7.827,2.941,13.383,10.243,13.383,18.765c0,11.108-9.447,20.151-21.064,20.151
		c-7.538,0-14.166-3.813-17.89-9.524l2.382-5.071C25.687,61.93,31.751,66.213,38.84,66.213"/>
	<path clip-path="url(#SVGID_2_)" fill="#FFFFFF" d="M12.772,59.488l5.989-12.872l1.116-2.399c0.067-0.198,0.158-0.387,0.266-0.565
		v-0.004c0.247-0.402,0.599-0.743,1.017-0.988c0.419-0.249,0.915-0.401,1.441-0.427c0.114-0.008,0.225-0.008,0.333,0l2.725,0.009
		l8.879,0.033l0.984-7.026h-9.389c-1.242,0-2.251-0.966-2.251-2.156s1.009-2.153,2.251-2.153h9.99l0.906-6.476
		c0.117-1.853,1.675-3.477,4.17-3.471c2.174,0.005,4.03,1.453,4.147,3.492c0.009,0.182,0,0.356-0.018,0.532
		c-0.009,0.111-0.022,0.22-0.044,0.325l-0.924,6.541l-0.599,4.219l-1.216,8.601c-0.009,0.266-0.045,0.524-0.112,0.773v0.005
		c-0.193,0.737-0.627,1.388-1.221,1.879c-0.594,0.49-1.346,0.819-2.183,0.904l-0.009,0.006h-0.078
		c-0.04,0.006-0.08,0.012-0.12,0.014c-0.266,0.012-0.523,0-0.776-0.034l-13.121-0.3l-2.134,4.448l-2.973,6.194l-1.575,3.283
		c-0.406,1.035-1.432,1.797-2.679,1.859c-1.671,0.085-3.099-1.114-3.188-2.681C12.345,60.484,12.494,59.947,12.772,59.488"/>
	<polygon clip-path="url(#SVGID_2_)" fill="#FFFFFF" points="52.843,95.88 32.398,95.88 32.398,87.276 43.713,87.276 43.92,72.307 
		59.801,72.307 60.008,57.337 75.888,57.337 76.096,42.367 96.538,42.367 96.538,50.97 85.223,50.97 85.015,65.938 69.137,65.938 
		68.93,80.91 53.05,80.91 	"/>
</g>
</svg>
