<?xml version="1.0" encoding="utf-8"?>
<!-- Generator: Adobe Illustrator 16.0.0, SVG Export Plug-In . SVG Version: 6.00 Build 0)  -->
<!DOCTYPE svg PUBLIC "-//W3C//DTD SVG 1.1//EN" "http://www.w3.org/Graphics/SVG/1.1/DTD/svg11.dtd">
<svg version="1.1" id="Слой_1" xmlns="http://www.w3.org/2000/svg" xmlns:xlink="http://www.w3.org/1999/xlink" x="0px" y="0px"
	 width="39.5px" height="39.5px" viewBox="0 0 39.5 39.5" style="enable-background:new 0 0 39.5 39.5;" xml:space="preserve">
<style type="text/css">
<![CDATA[
	.st0{fill:#184967;}
	.st1{fill:none;}
]]>
</style>
<path class="st0" d="M11.9,16.1c0-3,2.5-5.5,5.5-5.5c3,0,5.5,2.4,5.5,5.5c0,3-2.5,5.5-5.5,5.5C14.3,21.6,11.9,19.1,11.9,16.1
	 M24.4,16.1c0-3.9-3.2-7-7.1-7c-3.9,0-7.1,3.2-7.1,7c0,3.9,3.2,7,7.1,7C21.2,23.2,24.4,20,24.4,16.1"/>
<path class="st0" d="M6.9,34.2c-0.2-0.5-0.2-1.3,0-1.8c0.1-0.3,3.7-6.5,7.5-7.9c0,0,0.1,0,0.1,0c0.4,0,0.8,0.6,1.3,1.1
	c0.6,0.7,0.9,1.1,1.3,1.2c0.2,0.1,0.4,0,0.6-0.1c0.2-0.1,0.3-0.3,1-1.2c0.4-0.6,0.9-1.2,1.3-1.1c4,1.4,7.6,8,7.6,8.1
	c0.3,0.5,0.3,1.3,0,1.8c0,0-1.5,2.8-7.8,3.5c-0.1,0-0.1,0-0.2,0c-0.1,0-0.3,0-0.3,0l0,0.1c-0.6,0-1.3,0.1-2.1,0.1
	C8.8,37.9,6.9,34.3,6.9,34.2 M39.5,19.7C39.5,8.8,30.6,0,19.7,0C8.9,0,0,8.8,0,19.7c0,1.6,0.2,3.2,0.5,4.6l1.6-0.3
	c-0.3-1.4-0.5-2.9-0.5-4.4c0-10,8.1-18.1,18.2-18.1c10,0,18.2,8.1,18.2,18.1c0,6.6-3.6,12.4-8.9,15.6c0.1-0.1,0.1-0.2,0.1-0.2
	c0.5-1,0.4-2.3-0.1-3.3c-0.2-0.3-3.9-7.2-8.5-8.8c-0.2-0.1-0.4-0.1-0.7-0.1c-1.2,0-1.9,1-2.5,1.8c-0.1,0.1-0.1,0.2-0.2,0.2
	c-0.1-0.1-0.1-0.2-0.2-0.2c-0.6-0.8-1.3-1.7-2.5-1.7c-0.2,0-0.5,0-0.7,0.1c-4.3,1.6-8,7.9-8.4,8.7C5.1,32.6,5,34,5.5,34.9
	c0.2,0.5,2.5,4.6,11.9,4.6c1,0,1.9,0,2.7-0.1C30.8,39.2,39.5,30.4,39.5,19.7"/>
<rect class="st1" width="39.5" height="39.5"/>
</svg>
