<?xml version="1.0" encoding="utf-8"?>
<!-- Generator: Adobe Illustrator 16.0.0, SVG Export Plug-In . SVG Version: 6.00 Build 0)  -->
<!DOCTYPE svg PUBLIC "-//W3C//DTD SVG 1.1//EN" "http://www.w3.org/Graphics/SVG/1.1/DTD/svg11.dtd">
<svg version="1.1" id="Слой_1" xmlns="http://www.w3.org/2000/svg" xmlns:xlink="http://www.w3.org/1999/xlink" x="0px" y="0px"
	 width="39.5px" height="39.5px" viewBox="0 0 39.5 39.5" style="enable-background:new 0 0 39.5 39.5;" xml:space="preserve">
<style type="text/css">
<![CDATA[
	.st0{fill:#184967;}
	.st1{fill:#FFFFFF;}
	.st2{fill:none;}
]]>
</style>
<path class="st0" d="M19.7,1.7c-10,0-18,8.1-18,18s8.1,18,18,18c10,0,18-8.1,18-18S29.7,1.7,19.7,1.7 M19.7,39.5
	C8.9,39.5,0,30.6,0,19.7C0,8.9,8.9,0,19.7,0c10.9,0,19.7,8.9,19.7,19.7C39.5,30.6,30.6,39.5,19.7,39.5"/>
<path class="st1" d="M19.4,3.7h0.7v-2h-0.7V3.7z M21,5.4h-2.4c-0.5,0-0.9-0.4-0.9-0.9V0.9c0-0.5,0.4-0.9,0.9-0.9H21
	c0.5,0,0.8,0.4,0.8,0.9v3.7C21.8,5,21.4,5.4,21,5.4"/>
<path class="st1" d="M35.8,20.1h2v-0.7h-2V20.1z M38.6,21.8H35c-0.5,0-0.8-0.4-0.8-0.9v-2.4c0-0.5,0.4-0.9,0.8-0.9h3.7
	c0.5,0,0.9,0.4,0.9,0.9V21C39.5,21.4,39.1,21.8,38.6,21.8"/>
<path class="st1" d="M19.4,37.8h0.7v-2h-0.7V37.8z M21,39.5h-2.4c-0.5,0-0.9-0.4-0.9-0.9V35c0-0.5,0.4-0.8,0.9-0.8H21
	c0.5,0,0.8,0.4,0.8,0.8v3.7C21.8,39.1,21.4,39.5,21,39.5"/>
<path class="st1" d="M1.7,20.1h2v-0.7h-2V20.1z M4.5,21.8H0.9C0.4,21.8,0,21.4,0,21v-2.4c0-0.5,0.4-0.9,0.9-0.9h3.7
	c0.5,0,0.9,0.4,0.9,0.9V21C5.4,21.4,5,21.8,4.5,21.8"/>
<path class="st0" d="M18.7,24.6c0,0.1,0,0.2,0,0.3c0,0.1,0,0.2-0.1,0.2c0,0.1-0.1,0.1-0.1,0.1c0,0-0.1,0-0.2,0h-6.8
	c-0.1,0-0.2,0-0.2,0c-0.1,0-0.1-0.1-0.2-0.1c0-0.1-0.1-0.1-0.1-0.2c0-0.1,0-0.2,0-0.4c0-0.1,0-0.2,0-0.3c0-0.1,0-0.2,0.1-0.3
	c0-0.1,0.1-0.1,0.1-0.2c0-0.1,0.1-0.2,0.2-0.2l2.5-2.5c0.6-0.6,1-1.1,1.4-1.6c0.3-0.5,0.6-0.9,0.8-1.3c0.2-0.4,0.3-0.7,0.4-1
	c0.1-0.3,0.1-0.6,0.1-0.9c0-0.3,0-0.5-0.1-0.8c-0.1-0.2-0.2-0.5-0.4-0.6c-0.2-0.2-0.4-0.3-0.7-0.4c-0.3-0.1-0.6-0.2-0.9-0.2
	c-0.4,0-0.8,0.1-1.1,0.2c-0.3,0.1-0.6,0.2-0.8,0.4c-0.2,0.1-0.4,0.2-0.6,0.4c-0.2,0.1-0.3,0.2-0.4,0.2c0,0-0.1,0-0.1,0
	c0,0-0.1-0.1-0.1-0.1c0-0.1,0-0.1-0.1-0.2c0-0.1,0-0.2,0-0.3c0-0.1,0-0.2,0-0.2c0-0.1,0-0.1,0-0.2c0-0.1,0-0.1,0.1-0.1
	c0,0,0.1-0.1,0.2-0.2c0.1-0.1,0.2-0.2,0.4-0.3c0.2-0.1,0.4-0.2,0.7-0.3c0.3-0.1,0.6-0.2,0.9-0.3c0.3-0.1,0.7-0.1,1.1-0.1
	c0.6,0,1.1,0.1,1.6,0.3c0.4,0.2,0.8,0.4,1.1,0.7c0.3,0.3,0.5,0.6,0.7,1c0.1,0.4,0.2,0.8,0.2,1.2c0,0.4,0,0.8-0.1,1.2
	c-0.1,0.4-0.2,0.8-0.4,1.3c-0.2,0.5-0.6,1-1,1.5c-0.4,0.6-1,1.2-1.7,1.9l-2,2h5.4c0.1,0,0.1,0,0.1,0s0.1,0.1,0.1,0.1
	c0,0.1,0.1,0.1,0.1,0.2C18.7,24.4,18.7,24.5,18.7,24.6"/>
<path class="st0" d="M25.7,14.3L25.7,14.3l-4,6.8h4V14.3z M29.1,21.8c0,0.2,0,0.4-0.1,0.5c-0.1,0.1-0.2,0.2-0.3,0.2h-1.4V25
	c0,0.1,0,0.1,0,0.1c0,0-0.1,0.1-0.1,0.1c-0.1,0-0.2,0-0.3,0.1c-0.1,0-0.2,0-0.4,0c-0.2,0-0.3,0-0.4,0c-0.1,0-0.2,0-0.3-0.1
	c-0.1,0-0.1-0.1-0.1-0.1c0,0,0-0.1,0-0.1v-2.6h-5.1c-0.1,0-0.1,0-0.2,0c-0.1,0-0.1-0.1-0.1-0.1c0-0.1-0.1-0.1-0.1-0.2
	c0-0.1,0-0.2,0-0.4c0-0.1,0-0.2,0-0.3c0-0.1,0-0.2,0-0.3c0-0.1,0-0.2,0.1-0.2s0.1-0.2,0.1-0.2l4.4-7.5c0-0.1,0.1-0.1,0.1-0.1
	c0.1,0,0.1-0.1,0.2-0.1c0.1,0,0.2,0,0.4-0.1c0.1,0,0.3,0,0.5,0c0.2,0,0.4,0,0.6,0c0.2,0,0.3,0,0.4,0.1c0.1,0,0.2,0.1,0.2,0.1
	c0.1,0,0.1,0.1,0.1,0.1v7.9h1.4c0.1,0,0.2,0.1,0.3,0.2C29.1,21.4,29.1,21.5,29.1,21.8"/>
<rect class="st2" width="39.5" height="39.5"/>
</svg>
