<?xml version="1.0" encoding="utf-8"?>
<!-- Generator: Adobe Illustrator 16.0.0, SVG Export Plug-In . SVG Version: 6.00 Build 0)  -->
<!DOCTYPE svg PUBLIC "-//W3C//DTD SVG 1.1//EN" "http://www.w3.org/Graphics/SVG/1.1/DTD/svg11.dtd">
<svg version="1.1" id="Слой_1" xmlns="http://www.w3.org/2000/svg" xmlns:xlink="http://www.w3.org/1999/xlink" x="0px" y="0px"
	 width="39.5px" height="39.5px" viewBox="0 0 39.5 39.5" style="enable-background:new 0 0 39.5 39.5;" xml:space="preserve">
<style type="text/css">
<![CDATA[
	.st0{fill:#184967;}
	.st1{fill:none;}
]]>
</style>
<path class="st0" d="M16.3,29.5c0-0.1-0.2-0.3-0.4-0.8c-0.5,0.2-1.2,0.3-2,0.3c-1,0-2.2-0.3-3.2-1.3c-1.9-1.9-2.6-6-2.8-7.6l7.7,7.7
	c-0.2-0.5-0.3-1.1-0.4-1.8l-6.6-6.6c1.5,0.2,4.7,0.7,6.8,2.1c0.1-0.3,0.2-0.6,0.4-0.9c-3-1.9-7.6-2.2-7.9-2.3l-1.1-0.1l0.1,1.1
	c0,0.3,0.5,6.3,3.1,9c1,1,2.3,1.6,3.8,1.6C14.9,30,15.7,29.8,16.3,29.5L16.3,29.5z"/>
<path class="st0" d="M19.1,19.8c2.7-2.7,8.3-3.6,10.7-3.9c-2.5,1.5-9.2,5.9-11.8,11.9C17.4,26.2,16.4,22.5,19.1,19.8 M26.4,26.9
	c-1.7,1.7-3.6,2.1-5.1,2.1c-1.1,0-2.1-0.2-2.6-0.4c2.5-6.5,10.5-11.3,12.2-12.2C30.5,18.2,29.3,24,26.4,26.9 M19.7,0
	C8.9,0,0,8.9,0,19.7C0,28,4.9,35.2,12.6,38.2l0.6-1.5c-7-2.7-11.6-9.4-11.6-16.9c0-10,8.1-18.2,18.2-18.2c10,0,18.2,8.1,18.2,18.2
	c0,10-8.1,18.2-18.2,18.2c-0.1,0-0.3,0-0.3,0c-1.5-2.6-1.9-5.3-1.1-8.1c0-0.1,0.1-0.2,0.1-0.3c0.6,0.2,1.6,0.4,2.9,0.4
	c2.2,0,4.2-0.8,5.8-2.4c3.7-3.7,4.9-11.3,4.9-11.7l0.2-1.2l-1.2,0.1c-0.4,0-8.8,0.6-12.5,4.3c-4,4-1.1,9.5-1,9.8l0.1,0.1
	c-0.1,0.2-0.1,0.4-0.2,0.5c-0.9,3.2-0.3,6.5,1.7,9.5c0,0,0.2,0.3,0.3,0.4c0.1,0,0.3,0,0.4,0c10.9,0,19.7-8.9,19.7-19.7
	C39.5,8.9,30.6,0,19.7,0"/>
<rect class="st1" width="39.5" height="39.5"/>
</svg>
