<?xml version="1.0" encoding="utf-8"?>
<!-- Generator: Adobe Illustrator 16.0.0, SVG Export Plug-In . SVG Version: 6.00 Build 0)  -->
<!DOCTYPE svg PUBLIC "-//W3C//DTD SVG 1.1//EN" "http://www.w3.org/Graphics/SVG/1.1/DTD/svg11.dtd">
<svg version="1.1" id="Слой_1" xmlns="http://www.w3.org/2000/svg" xmlns:xlink="http://www.w3.org/1999/xlink" x="0px" y="0px"
	 width="29.5px" height="40.4px" viewBox="0 0 29.5 40.4" style="enable-background:new 0 0 29.5 40.4;" xml:space="preserve">
<style type="text/css">
<![CDATA[
	.st0{fill:#184967;}
	.st1{fill:#FFFFFF;}
	.st2{fill:none;}
]]>
</style>
<path class="st0" d="M25.4,12.5c-0.3-0.3-0.9-0.3-1.2,0L14.7,22l-3.4-3.4c-0.3-0.3-0.9-0.3-1.2,0c-0.3,0.3-0.3,0.9,0,1.2l4,4
	c0.2,0.2,0.4,0.3,0.6,0.3c0.2,0,0.4-0.1,0.6-0.3l10.1-10.1C25.7,13.4,25.7,12.9,25.4,12.5 M22.1,18.9c0,0.1,0,0.1,0,0.2
	c0,3.9-4.7,7.5-7.3,9.4l-0.1,0.1l-0.1-0.1c-2.5-1.9-7.3-5.5-7.3-9.4c0-2.8,1.9-4.3,3.8-4.3c1.3,0,2.4,0.7,3,1.8
	c0.2,0.4,0.9,0.4,1.2,0c0.6-1.1,1.7-1.8,3-1.8c0.5,0,1,0.1,1.4,0.3l1-1c-0.7-0.4-1.6-0.6-2.4-0.6c-1.4,0-2.7,0.6-3.6,1.6
	c-0.9-1-2.2-1.6-3.6-1.6c-2.6,0-5.1,1.9-5.1,5.6c0,4.6,5.1,8.4,7.8,10.4l0.5,0.4c0.1,0.1,0.3,0.1,0.4,0.1c0.1,0,0.3,0,0.4-0.1
	l0.5-0.4c2.7-2,7.8-5.9,7.8-10.4c0-0.5-0.1-1-0.1-1.4L22.1,18.9z"/>
<path class="st0" d="M25.8,3.8h-0.7c0.1,0.3,0.2,0.6,0.2,0.9v0.9l0.5,0c1.1,0,1.9,0.9,1.9,1.9v29.3c0,1.1-0.9,1.9-1.9,1.9l-22.2,0
	c-1.1,0-1.9-0.9-1.9-1.9V7.4c0-1.1,0.9-1.9,1.9-1.9h0.5V4.6c0-0.3,0.1-0.6,0.2-0.9l-0.7,0C1.6,3.8,0,5.4,0,7.4v29.3
	c0,2,1.6,3.7,3.7,3.7l22.2,0c2,0,3.7-1.6,3.7-3.7V7.4C29.5,5.4,27.8,3.8,25.8,3.8"/>
<path class="st0" d="M14.7,1.7c1.1,0,2,0.9,2,2c0,1.1-0.9,2-2,2c-1.1,0-2-0.9-2-2C12.7,2.6,13.6,1.7,14.7,1.7 M22.7,3.8h-4.2v0
	c0-2.1-1.7-3.8-3.8-3.8C12.7,0,11,1.7,11,3.8c0,0,0,0,0,0H6.8c-0.5,0-0.9,0.4-0.9,0.9v3.2c0,0.5,0.4,0.9,0.9,0.9h15.9
	c0.5,0,0.9-0.4,0.9-0.9V4.6C23.6,4.1,23.2,3.8,22.7,3.8"/>
<path class="st1" d="M24.2,36.6H5.3c-0.2,0-0.4-0.2-0.4-0.4c0-0.2,0.2-0.4,0.4-0.4h18.9c0.2,0,0.4,0.2,0.4,0.4
	C24.6,36.4,24.4,36.6,24.2,36.6"/>
<path class="st0" d="M24.2,33.7H5.3c-0.2,0-0.4-0.2-0.4-0.4c0-0.2,0.2-0.4,0.4-0.4h18.9c0.2,0,0.4,0.2,0.4,0.4
	C24.6,33.5,24.4,33.7,24.2,33.7"/>
<rect class="st2" width="29.5" height="40.4"/>
</svg>
