<?xml version="1.0" encoding="utf-8"?>
<!-- Generator: Adobe Illustrator 16.0.0, SVG Export Plug-In . SVG Version: 6.00 Build 0)  -->
<!DOCTYPE svg PUBLIC "-//W3C//DTD SVG 1.1//EN" "http://www.w3.org/Graphics/SVG/1.1/DTD/svg11.dtd">
<svg version="1.1" id="Слой_1" xmlns="http://www.w3.org/2000/svg" xmlns:xlink="http://www.w3.org/1999/xlink" x="0px" y="0px"
	 width="1000px" height="1000px" viewBox="0 0 1000 1000" style="enable-background:new 0 0 1000 1000;" xml:space="preserve">
<style type="text/css">
<![CDATA[
	.st0{fill:#4582C3;}
]]>
</style>
<rect x="288" y="72" class="st0" width="9" height="216"/>
<rect x="306" y="72" class="st0" width="9" height="216"/>
<rect x="324" y="72" class="st0" width="9" height="216"/>
<rect x="342" y="72" class="st0" width="9" height="216"/>
<rect x="360" y="72" class="st0" width="9" height="216"/>
<rect x="378" y="72" class="st0" width="9" height="216"/>
<rect x="396" y="72" class="st0" width="9" height="216"/>
<rect x="414" y="72" class="st0" width="9" height="216"/>
<rect x="432" y="72" class="st0" width="9" height="216"/>
<rect x="450" y="72" class="st0" width="9" height="216"/>
<rect x="468" y="72" class="st0" width="9" height="216"/>
<rect x="486" y="72" class="st0" width="9" height="216"/>
<rect x="504" y="72" class="st0" width="9" height="216"/>
<rect x="522" y="72" class="st0" width="9" height="216"/>
<rect x="540" y="72" class="st0" width="9" height="216"/>
<rect x="558" y="72" class="st0" width="9" height="216"/>
<rect x="576" y="72" class="st0" width="9" height="216"/>
<rect x="594" y="72" class="st0" width="9" height="216"/>
<rect x="612" y="72" class="st0" width="9" height="216"/>
<rect x="630" y="72" class="st0" width="9" height="216"/>
<rect x="648" y="72" class="st0" width="9" height="216"/>
<rect x="666" y="72" class="st0" width="9" height="216"/>
<rect x="684" y="72" class="st0" width="9" height="216"/>
<rect x="702" y="72" class="st0" width="9" height="216"/>
<rect x="279" y="81" class="st0" width="441" height="9"/>
<rect x="279" y="108" class="st0" width="441" height="9"/>
<rect x="279" y="135" class="st0" width="441" height="9"/>
<rect x="279" y="162" class="st0" width="441" height="9"/>
<rect x="279" y="189" class="st0" width="441" height="9"/>
<rect x="279" y="216" class="st0" width="441" height="9"/>
<rect x="279" y="243" class="st0" width="441" height="9"/>
<rect x="279" y="270" class="st0" width="441" height="9"/>
<rect x="291" y="465" class="st0" width="9" height="216"/>
<rect x="309" y="465" class="st0" width="9" height="216"/>
<rect x="327" y="465" class="st0" width="9" height="216"/>
<rect x="345" y="465" class="st0" width="9" height="216"/>
<rect x="363" y="465" class="st0" width="9" height="216"/>
<rect x="381" y="465" class="st0" width="9" height="216"/>
<rect x="399" y="465" class="st0" width="9" height="216"/>
<rect x="417" y="465" class="st0" width="9" height="216"/>
<rect x="435" y="465" class="st0" width="9" height="216"/>
<rect x="453" y="465" class="st0" width="9" height="216"/>
<rect x="471" y="465" class="st0" width="9" height="216"/>
<rect x="489" y="465" class="st0" width="9" height="216"/>
<rect x="507" y="465" class="st0" width="9" height="216"/>
<rect x="525" y="465" class="st0" width="9" height="216"/>
<rect x="543" y="465" class="st0" width="9" height="216"/>
<rect x="561" y="465" class="st0" width="9" height="216"/>
<rect x="579" y="465" class="st0" width="9" height="216"/>
<rect x="597" y="465" class="st0" width="9" height="216"/>
<rect x="615" y="465" class="st0" width="9" height="216"/>
<rect x="633" y="465" class="st0" width="9" height="216"/>
<rect x="651" y="465" class="st0" width="9" height="216"/>
<rect x="669" y="465" class="st0" width="9" height="216"/>
<rect x="687" y="465" class="st0" width="9" height="216"/>
<rect x="705" y="465" class="st0" width="9" height="216"/>
<rect x="282" y="474" class="st0" width="441" height="9"/>
<rect x="282" y="501" class="st0" width="441" height="9"/>
<rect x="282" y="528" class="st0" width="441" height="9"/>
<rect x="282" y="555" class="st0" width="441" height="9"/>
<rect x="282" y="582" class="st0" width="441" height="9"/>
<rect x="282" y="609" class="st0" width="441" height="9"/>
<rect x="282" y="636" class="st0" width="441" height="9"/>
<rect x="282" y="663" class="st0" width="441" height="9"/>
</svg>
