<?xml version="1.0" encoding="utf-8"?>
<!-- Generator: Adobe Illustrator 16.0.0, SVG Export Plug-In . SVG Version: 6.00 Build 0)  -->
<!DOCTYPE svg PUBLIC "-//W3C//DTD SVG 1.1//EN" "http://www.w3.org/Graphics/SVG/1.1/DTD/svg11.dtd">
<svg version="1.1" id="Слой_1" xmlns="http://www.w3.org/2000/svg" xmlns:xlink="http://www.w3.org/1999/xlink" x="0px" y="0px"
	 width="45.341px" height="45.305px" viewBox="0 0 45.341 45.305" enable-background="new 0 0 45.341 45.305" xml:space="preserve">
<g>
	<defs>
		<rect id="SVGID_1_" width="45.341" height="45.305"/>
	</defs>
	<clipPath id="SVGID_2_">
		<use xlink:href="#SVGID_1_"  overflow="visible"/>
	</clipPath>
	<path clip-path="url(#SVGID_2_)" fill="#184967" d="M4,44.141c-1.069,0-2.073-0.416-2.828-1.172l1.414-1.414
		c0.756,0.756,2.072,0.756,2.828,0L20.25,26.719l1.414,1.414L6.828,42.969C6.072,43.725,5.068,44.141,4,44.141"/>
	<path clip-path="url(#SVGID_2_)" fill="#184967" d="M28.168,21.63l-1.414-1.414l2.708-2.708c0.299-0.301,0.756-0.377,1.138-0.195
		c3.388,1.616,6.212,1.331,8.392-0.85l1.413-1.413c1.868-1.868,2.03-4.706,1.367-7.023l-4.194,4.194c-0.391,0.39-1.023,0.39-1.414,0
		L31.92,7.979c-0.188-0.187-0.293-0.442-0.293-0.707s0.105-0.519,0.293-0.707l4.193-4.194c-2.314-0.662-5.154-0.502-7.021,1.365
		l-1.413,1.414c-2.182,2.181-2.467,5.004-0.851,8.392c0.183,0.383,0.104,0.838-0.195,1.138l-2.969,2.97l-1.414-1.415l2.481-2.482
		c-1.649-3.908-1.125-7.359,1.532-10.017l1.415-1.414c2.959-2.96,7.489-2.756,10.666-1.239c0.293,0.139,0.5,0.413,0.555,0.733
		c0.056,0.32-0.049,0.647-0.278,0.876l-4.58,4.58l2.829,2.829l4.58-4.58c0.23-0.23,0.563-0.333,0.876-0.279
		c0.321,0.055,0.594,0.262,0.733,0.555c1.516,3.177,1.72,7.707-1.24,10.667l-1.415,1.416c-2.656,2.653-6.107,3.179-10.016,1.53
		L28.168,21.63z"/>
	<path clip-path="url(#SVGID_2_)" fill="#184967" d="M1.172,42.969C0.416,42.214,0,41.21,0,40.141c0-1.067,0.416-2.072,1.172-2.828
		L16.25,22.235l1.414,1.414L2.586,38.727C2.208,39.105,2,39.607,2,40.141s0.208,1.036,0.586,1.414L1.172,42.969z"/>
	
		<rect x="4.061" y="37.581" transform="matrix(0.7071 0.7071 -0.7071 0.7071 29.1163 7.8681)" clip-path="url(#SVGID_2_)" fill="#184967" width="2" height="3"/>
	<path clip-path="url(#SVGID_2_)" fill="#184967" d="M26.491,30.702l-16.05-16.05l-3.238-0.647c-0.26-0.052-0.488-0.205-0.636-0.426
		L0.908,5.098C0.643,4.701,0.696,4.173,1.033,3.834l2.831-2.832c0.337-0.338,0.867-0.388,1.262-0.125l8.485,5.657
		c0.221,0.147,0.374,0.376,0.426,0.636l0.647,3.239l16.049,16.049l-1.414,1.414L13.056,11.61c-0.139-0.14-0.234-0.318-0.273-0.511
		l-0.626-3.13L4.699,2.997L3.027,4.668l4.975,7.456l3.129,0.626c0.193,0.039,0.371,0.134,0.51,0.273l16.264,16.264L26.491,30.702z"
		/>
	<path clip-path="url(#SVGID_2_)" fill="#184967" d="M39.927,45.305c-1.024,0-2.048-0.39-2.828-1.17l-8.265-8.264
		c-0.836-0.168-3.234-0.645-3.234-0.645c-0.351-0.069-0.637-0.319-0.752-0.657c-0.912-2.672-0.912-2.672-0.492-3.124
		c0.008-0.009,0.017-0.018,0.025-0.026l7.068-7.072c0.428-0.463,0.428-0.463,3.152,0.467c0.337,0.115,0.588,0.401,0.657,0.751
		c0,0.001,0.48,2.417,0.647,3.244l8.263,8.256c0.756,0.755,1.172,1.76,1.172,2.828s-0.416,2.073-1.172,2.828l-1.413,1.414
		C41.977,44.916,40.951,45.305,39.927,45.305 M26.555,33.378c3.213,0.638,3.223,0.646,3.414,0.805l8.544,8.538
		c0.757,0.756,2.074,0.755,2.829,0l1.413-1.414c0.378-0.378,0.586-0.88,0.586-1.414c0-0.535-0.208-1.036-0.586-1.414l-8.476-8.475
		c-0.2-0.161-0.21-0.17-0.869-3.483c-0.302-0.103-0.676-0.229-0.978-0.33l-6.207,6.212C26.326,32.705,26.452,33.077,26.555,33.378"
		/>
	
		<rect x="29.684" y="34.651" transform="matrix(0.7071 0.7071 -0.7071 0.7071 35.6637 -14.7901)" clip-path="url(#SVGID_2_)" fill="#184967" width="11.999" height="2"/>
</g>
</svg>
