<?xml version="1.0" encoding="utf-8"?>
<!-- Generator: Adobe Illustrator 16.0.0, SVG Export Plug-In . SVG Version: 6.00 Build 0)  -->
<!DOCTYPE svg PUBLIC "-//W3C//DTD SVG 1.1//EN" "http://www.w3.org/Graphics/SVG/1.1/DTD/svg11.dtd">
<svg version="1.1" id="Слой_1" xmlns="http://www.w3.org/2000/svg" xmlns:xlink="http://www.w3.org/1999/xlink" x="0px" y="0px"
	 width="32px" height="48px" viewBox="0 0 32 48" enable-background="new 0 0 32 48" xml:space="preserve">
<rect x="23" y="33" fill="#184967" width="2" height="10"/>
<g>
	<defs>
		<rect id="SVGID_1_" width="32" height="48"/>
	</defs>
	<clipPath id="SVGID_2_">
		<use xlink:href="#SVGID_1_"  overflow="visible"/>
	</clipPath>
	<path clip-path="url(#SVGID_2_)" fill="#184967" d="M20,48h-2v-2c0-0.345,0.178-0.665,0.47-0.848l8-5l1.061,1.695L20,46.554V48z"/>
	<rect x="7" y="33" clip-path="url(#SVGID_2_)" fill="#184967" width="2" height="10"/>
	<path clip-path="url(#SVGID_2_)" fill="#184967" d="M31,45h-2v-4c0-0.517-0.159-0.691-0.586-1.158l-0.158-0.174l-2.963-2.961
		l1.414-1.414l3.183,3.2C30.41,39.062,31,39.707,31,41V45z"/>
	<path clip-path="url(#SVGID_2_)" fill="#184967" d="M3,45H1v-4c0-1.293,0.59-1.938,1.11-2.507l0.146-0.161l3.037-3.039l1.414,1.414
		l-3.121,3.135C3.159,40.309,3,40.483,3,41V45z"/>
	<path clip-path="url(#SVGID_2_)" fill="#184967" d="M14,48h-2v-1.446l-7.53-4.706l1.06-1.695l8,5C13.822,45.335,14,45.655,14,46V48
		z"/>
	<path clip-path="url(#SVGID_2_)" fill="#184967" d="M17,38h-2c-2.139,0-4.16-0.809-5.692-2.278c-0.325-0.29-3.404-3.062-4.14-4.167
		C4.285,30.231,4,27.241,4,26v-6h2v6c0,1.479,0.363,3.742,0.832,4.445c0.449,0.675,2.591,2.694,3.835,3.81
		C11.85,35.389,13.38,36,15,36h2c1.62,0,3.15-0.611,4.308-1.722c1.27-1.139,3.411-3.159,3.86-3.833C25.637,29.742,26,27.479,26,26
		v-6h2v6c0,1.241-0.285,4.231-1.168,5.555c-0.736,1.105-3.815,3.877-4.165,4.19C21.16,37.191,19.139,38,17,38"/>
	<path clip-path="url(#SVGID_2_)" fill="#184967" d="M20,10h-2V2h-4v8h-2V1c0-0.552,0.447-1,1-1h6c0.553,0,1,0.448,1,1V10z"/>
	<rect y="18" clip-path="url(#SVGID_2_)" fill="#184967" width="32" height="2"/>
	<path clip-path="url(#SVGID_2_)" fill="#184967" d="M32,17h-2v-1.382l-1.447-0.723C28.214,14.725,28,14.379,28,14v-2
		c0-3.412-1.514-5.939-5-8.229V7h-2V2c0-0.354,0.187-0.683,0.493-0.862c0.307-0.18,0.684-0.183,0.994-0.012
		C25.985,3.077,30,6.075,30,12v1.382l1.447,0.723C31.786,14.275,32,14.621,32,15V17z"/>
	<path clip-path="url(#SVGID_2_)" fill="#184967" d="M2,17H0v-2c0-0.379,0.214-0.725,0.553-0.895L2,13.382V12
		C2,5.984,6.021,3.026,9.522,1.122c0.309-0.169,0.685-0.163,0.989,0.019C10.814,1.321,11,1.647,11,2v5H9V3.751
		C5.514,5.998,4,8.531,4,12v2c0,0.379-0.214,0.725-0.553,0.895L2,15.618V17z"/>
</g>
</svg>
