<?xml version="1.0" encoding="utf-8"?>
<!-- Generator: Adobe Illustrator 16.0.0, SVG Export Plug-In . SVG Version: 6.00 Build 0)  -->
<!DOCTYPE svg PUBLIC "-//W3C//DTD SVG 1.1//EN" "http://www.w3.org/Graphics/SVG/1.1/DTD/svg11.dtd">
<svg version="1.1" id="Слой_1" xmlns="http://www.w3.org/2000/svg" xmlns:xlink="http://www.w3.org/1999/xlink" x="0px" y="0px"
	 width="94.403px" height="146.128px" viewBox="0 0 94.403 146.128" enable-background="new 0 0 94.403 146.128"
	 xml:space="preserve">
<g>
	<defs>
		<rect id="SVGID_1_" width="94.403" height="146.128"/>
	</defs>
	<clipPath id="SVGID_2_">
		<use xlink:href="#SVGID_1_"  overflow="visible"/>
	</clipPath>
	<path clip-path="url(#SVGID_2_)" fill="#184967" d="M42.602,143.847c-0.418,0-0.833-0.132-1.182-0.386l-14.587-10.676
		l-17.496,4.546c-0.663,0.171-1.369-0.005-1.87-0.476c-0.5-0.469-0.725-1.161-0.597-1.835l8.629-45.262
		c0.207-1.084,1.248-1.79,2.34-1.59c1.085,0.207,1.797,1.255,1.59,2.34l-8.038,42.156l15.355-3.99c0.583-0.15,1.2-0.033,1.684,0.321
		l12.801,9.37l7.766-40.648c0.208-1.084,1.248-1.792,2.339-1.59c1.085,0.208,1.797,1.255,1.59,2.34l-8.359,43.754
		c-0.129,0.674-0.594,1.234-1.233,1.486C43.098,143.801,42.849,143.847,42.602,143.847"/>
	<path clip-path="url(#SVGID_2_)" fill="#184967" d="M59.961,146.128c-0.137,0-0.273-0.014-0.409-0.043
		c-0.686-0.144-1.244-0.634-1.478-1.293l-11.235-31.899c-0.366-1.041,0.181-2.184,1.223-2.551c1.04-0.366,2.182,0.18,2.55,1.223
		l10.141,28.79l10.745-11.482c0.41-0.439,0.998-0.662,1.596-0.629l15.831,1.068L73.716,90.615c-0.404-1.028,0.101-2.188,1.13-2.593
		c1.028-0.406,2.188,0.102,2.593,1.13l16.364,41.636c0.251,0.638,0.156,1.359-0.247,1.913c-0.406,0.553-1.068,0.857-1.749,0.813
		l-18.035-1.217l-12.35,13.196C61.039,145.903,60.51,146.128,59.961,146.128"/>
	<path clip-path="url(#SVGID_2_)" fill="#184967" d="M47.211,79.078c-14.109,0.001-27.042-9.451-30.818-23.718
		c-2.179-8.228-1.023-16.814,3.255-24.174c4.28-7.36,11.167-12.613,19.396-14.791c8.23-2.179,16.815-1.022,24.175,3.255
		c7.359,4.278,12.612,11.167,14.792,19.397c4.499,16.985-5.661,34.465-22.649,38.966C52.64,78.734,49.901,79.078,47.211,79.078
		 M47.248,19.321c-2.395,0-4.805,0.312-7.182,0.941c-7.195,1.905-13.218,6.497-16.96,12.934s-4.753,13.944-2.847,21.141
		c3.932,14.854,19.215,23.743,34.079,19.809c14.854-3.935,23.739-19.222,19.806-34.076c-1.906-7.196-6.499-13.221-12.935-16.962
		C56.897,20.603,52.104,19.321,47.248,19.321"/>
	<path clip-path="url(#SVGID_2_)" fill="#184967" d="M45.456,94.406c-0.082,0-0.163-0.002-0.246-0.006
		c-2.819-0.121-4.992-2.257-6.909-4.142c-1.258-1.237-2.561-2.518-3.701-2.875c-1.139-0.355-2.937-0.049-4.679,0.247
		c-2.649,0.454-5.652,0.966-8.037-0.545c-2.349-1.488-3.162-4.398-3.88-6.966c-0.48-1.721-0.978-3.502-1.813-4.41
		c-0.774-0.844-2.453-1.464-4.077-2.064c-2.549-0.943-5.438-2.01-6.774-4.568c-1.336-2.557-0.563-5.539,0.12-8.169
		c0.434-1.676,0.884-3.409,0.633-4.526c-0.269-1.204-1.446-2.629-2.585-4.007c-1.698-2.054-3.623-4.384-3.503-7.163
		c0.122-2.819,2.257-4.991,4.141-6.908c1.238-1.259,2.518-2.561,2.875-3.7c0.358-1.141,0.05-2.941-0.247-4.681
		c-0.452-2.65-0.965-5.653,0.545-8.036c1.488-2.35,4.398-3.163,6.966-3.881c1.72-0.48,3.501-0.978,4.41-1.813
		c0.843-0.774,1.464-2.453,2.063-4.076c0.942-2.55,2.01-5.439,4.567-6.776c2.559-1.336,5.541-0.562,8.171,0.119
		c1.675,0.436,3.404,0.883,4.525,0.634c1.204-0.269,2.629-1.446,4.007-2.585c2.056-1.698,4.357-3.645,7.163-3.503
		c2.819,0.121,4.992,2.257,6.909,4.142c1.26,1.237,2.563,2.517,3.701,2.875c1.14,0.358,2.94,0.051,4.68-0.247
		c2.649-0.453,5.651-0.966,8.036,0.545c2.351,1.489,3.162,4.398,3.88,6.965c0.481,1.722,0.979,3.501,1.814,4.412
		c0.774,0.842,2.453,1.462,4.076,2.063c2.55,0.942,5.438,2.01,6.774,4.568v-0.001c1.337,2.558,0.564,5.54-0.118,8.171
		c-0.436,1.675-0.885,3.408-0.634,4.524c0.271,1.205,1.446,2.63,2.585,4.008c1.698,2.054,3.623,4.384,3.503,7.163
		c-0.12,2.819-2.257,4.992-4.141,6.909c-1.238,1.259-2.517,2.56-2.875,3.7c-0.357,1.141-0.05,2.94,0.247,4.68
		c0.452,2.65,0.964,5.653-0.546,8.037c-1.489,2.348-4.399,3.162-6.966,3.879c-1.723,0.48-3.501,0.979-4.411,1.813
		c-0.843,0.773-1.463,2.452-2.064,4.075c-0.941,2.55-2.01,5.438-4.567,6.775c-2.556,1.337-5.536,0.565-8.168-0.118
		c-1.675-0.434-3.405-0.884-4.526-0.634c-1.206,0.271-2.63,1.447-4.008,2.586C50.379,92.545,48.126,94.405,45.456,94.406
		 M33.317,83.222c0.849,0,1.681,0.095,2.479,0.346c2.061,0.646,3.712,2.27,5.309,3.839c1.472,1.447,2.994,2.942,4.276,2.998
		c0.025,0.001,0.049,0.001,0.073,0.001c1.233,0,2.828-1.316,4.37-2.591c1.74-1.439,3.542-2.927,5.682-3.406
		c2.059-0.459,4.269,0.111,6.404,0.665c2.024,0.525,4.121,1.066,5.311,0.445c1.194-0.623,1.944-2.653,2.669-4.617
		c0.766-2.068,1.557-4.208,3.111-5.636c1.616-1.482,3.865-2.111,6.04-2.719c1.964-0.549,3.997-1.116,4.663-2.167
		c0.688-1.086,0.329-3.189-0.019-5.223c-0.377-2.207-0.766-4.49-0.12-6.549c0.646-2.06,2.27-3.711,3.839-5.308
		c1.446-1.472,2.942-2.994,2.998-4.277c0.054-1.244-1.29-2.87-2.592-4.444c-1.437-1.741-2.925-3.541-3.403-5.68
		c-0.462-2.06,0.11-4.268,0.665-6.404c0.524-2.025,1.067-4.121,0.444-5.312v-0.001c-0.623-1.192-2.652-1.942-4.617-2.668
		c-2.067-0.765-4.208-1.556-5.636-3.11c-1.482-1.616-2.11-3.865-2.719-6.04c-0.549-1.965-1.118-3.997-2.168-4.663
		c-1.086-0.689-3.188-0.329-5.223,0.019c-2.207,0.377-4.488,0.768-6.551,0.12C56.545,10.195,54.893,8.572,53.296,7
		c-1.471-1.446-2.994-2.942-4.277-2.998c-1.28-0.046-2.87,1.29-4.443,2.591c-1.741,1.438-3.541,2.925-5.681,3.404
		c-2.061,0.464-4.269-0.111-6.404-0.665c-2.027-0.526-4.122-1.067-5.314-0.446c-1.191,0.623-1.941,2.653-2.667,4.616
		c-0.764,2.07-1.555,4.21-3.11,5.638c-1.615,1.482-3.864,2.111-6.038,2.719c-1.966,0.549-3.998,1.117-4.664,2.169
		c-0.688,1.085-0.328,3.187,0.019,5.221c0.377,2.208,0.767,4.492,0.121,6.551c-0.646,2.06-2.269,3.711-3.839,5.308
		c-1.447,1.471-2.943,2.993-2.997,4.276c-0.054,1.244,1.29,2.87,2.59,4.443c1.438,1.742,2.925,3.541,3.405,5.681
		c0.462,2.061-0.112,4.269-0.665,6.404c-0.526,2.026-1.07,4.121-0.447,5.314c0.623,1.191,2.653,1.941,4.616,2.667
		c2.069,0.765,4.21,1.556,5.637,3.111c1.483,1.616,2.112,3.864,2.719,6.04c0.549,1.965,1.117,3.997,2.168,4.663
		c1.084,0.688,3.188,0.326,5.224-0.019C30.599,83.457,31.978,83.222,33.317,83.222"/>
</g>
</svg>
