<svg xmlns="http://www.w3.org/2000/svg" width="120.8" height="66.6" viewBox="0 0 120.8 66.6"><path fill="#184967" d="M62.1 64.5c-1 0-2.2-.2-3.3-.8-.4-.2-.9-.5-1.5-.9l-.5-.3.4-.4c1.4-1.3 3.1-3.4 3.7-5.5l.2-.7 7.3 5.4-.6.4-.5-.1.4.2c-.5 1.1-2.8 2.7-5.6 2.7m-3.8-2.1c.3.2.7.4.9.5 3.9 1.8 7.1-.6 7.6-1.5l-5.2-3.8c-.7 1.8-2.1 3.5-3.3 4.8"/><path fill="#184967" d="M62.1 65c-1.2 0-2.4-.3-3.5-.8-.4-.2-1-.5-1.6-.9l-1-.7.9-.9c1.3-1.3 3-3.3 3.6-5.3l.4-1.4 8.5 6.2-1.3.8c-.6 1.3-2.9 3-6 3M58 62.8c.4.2.7.4 1 .5.1 0 .2.1.2.1-.1 0-.2-.1-.2-.1-.3-.1-.6-.3-1-.5zm9-.8c-.3.4-.8.8-1.4 1.1.6-.4 1.1-.8 1.4-1.1zm-7.9.3c.1.1.2.1.3.2 3.1 1.5 5.8-.1 6.7-1l-4.3-3.1c-.5 1.2-1.5 2.5-2.7 3.9m-1.6.2l.4-.4c-.1.1-.3.2-.4.4m3.9-5.8l3.9 2.8-3.9-2.8c-.1.2-.1.4-.2.6l.2-.6z"/><path fill="#184967" d="M49.1 66.1c-2.1 0-3.7-1-4.2-1.4-.5-.5-1-1.6-1.3-2.3l-.2-.6.3-.2c2.4-2.1 8.3-7.4 9.2-8.1l.1-.1c.7-.7 1.5-1.2 2.2-1.5.4-.2 1.3-.3 1.4-.3 1.4-.2 2.5.2 3.3 1.2.4.5.7 1.1.8 1.8.1.4.1.8 0 1.3-.4 2.3-2.4 4.6-4 6.1-.9.8-1.9 1.7-2.9 2.4-1.7 1.3-3.3 1.7-4.7 1.7m-4.5-4c.3.9.7 1.6 1 1.9.6.6 3.8 2.4 7.6-.3 1-.7 1.9-1.5 2.8-2.3 2.1-2 3.4-4 3.7-5.6.1-.4.1-.7 0-1-.1-.5-.3-.9-.6-1.3-.6-.7-1.4-1-2.4-.9-.1 0-.8.2-1.1.3-.6.3-1.3.7-1.9 1.3l-.1-.2c-.5.6-2.5 2.4-9 8.1"/><path fill="#184967" d="M49.1 66.6c-2.4 0-4.1-1.1-4.5-1.6-.5-.5-.9-1.3-1.4-2.5l-.3-.9.5-.5c.8-.7 8.2-7.3 9.2-8.1l.1-.1c.8-.7 1.6-1.2 2.4-1.6.4-.2 1.4-.4 1.6-.4 1.5-.2 2.8.3 3.7 1.4.5.6.8 1.3.9 2.1.1.5.1.9 0 1.5-.4 2.4-2.5 4.8-4.1 6.4-.9.9-1.9 1.7-2.9 2.5-1.8 1.2-3.5 1.8-5.2 1.8m-3.9-4.4c.3.8.6 1.2.8 1.4.5.5 3.4 2.2 6.9-.4.9-.7 1.9-1.5 2.7-2.3 2-1.9 3.3-3.8 3.5-5.3.1-.3.1-.6 0-.8-.1-.4-.2-.8-.5-1.1-.5-.6-1.1-.8-2-.7-.1 0-.7.2-.9.2-.6.2-1.2.6-1.8 1.2l-.4.3c-.8.9-3 2.8-8.3 7.5m8.5 1.7c-.1 0-.1.1-.2.1-.2.2-.4.3-.6.4.2-.1.4-.3.6-.4.1 0 .1 0 .2-.1m-9.5-1.7c.1.2.2.4.2.6-.1-.2-.2-.4-.2-.6zm15.9-6.1c-.4 1.6-1.7 3.6-3.8 5.5-.3.3-.7.6-1 .9.3-.3.7-.6 1-.9 1.5-1.3 3.3-3.4 3.8-5.5m-11.4 1.7c-1 .9-2.1 1.8-2.9 2.6 1.1-1 2-1.8 2.9-2.6m5-4.4c.6-.5 1.1-.8 1.7-1 .1 0 .1-.1.2-.1-.1 0-.2.1-.2.1-.5.2-1.1.5-1.7 1m3.5-1.4c.9 0 1.6.3 2.2.9-.6-.7-1.4-.9-2.4-.9h.2"/><path fill="#184967" d="M71.5 62.7h-.3c-.6-.1-1.3-.4-1.8-.6l-.1-.1-8.3-6.1v-.3-1.1c-.1-.8-.4-1.4-.9-2-.8-.9-1.8-1.4-3-1.4-.2 0-1.2.1-1.3.2l-.8.2.2-.8c.4-1.8-.1-3.4-1.4-4.6-.3-.3-1.7-1.1-3.1-1.1-.3 0-.6 0-.9.1 0 0-.4.1-.4.2l-.8.3.1-.8c.1-1.3-.3-2.4-1.4-3.5-.8-.8-1.6-1.1-2.5-1.1-.9 0-1.8.3-3.1 1l-.6.3-.1-.8c-.1-.8-.6-1.6-1.3-2.3-.7-.9-1.7-1.3-2.7-1.3-1.5 0-3.2.8-5.6 2.5-.1 0-.4.3-.6.5l-.2.2-.3-.1c-.8-.2-2.4-.3-4.7-.4H25l6-27.7h.7c.6-.1 2.8-1.6 5.1-3.2C42 5.3 49.2.5 52.9.5c4.3 0 8.2 1.2 9.7 1.8l1.5.5-1.6.4c-1.4.4-8.7 2.2-9.2 2.3-1.3.3-2.2.5-2.9.8-.4.1-.7.4-1 .7-.3.3-.7.8-.8.9l-1.5 1.8c-1.6 2-5.6 7.1-7.2 9.7l-.2.3c-.4.8-.5 1.1-.5 1.4 0 0 0 .2.1.3.1.2.4.5.5.6.4.4 1 1.2 1.7 1.6 1.2.8 2.9 1.3 5.1 1.3 1.5 0 3-.3 4.6-1 2.9-1.2 5.2-2.6 6.7-4.1l.3-.3c.1-.1.5-.6.5-.6.1-.1.2-.3.2-.4l.1-.2.2-.1c2.2-.6 4-1.1 5.3-1.5l.3-.1 2.4 2.1c1.8 1.6 3.5 3 4.2 3.8 1.1 1.2 5.4 4.6 10.8 9 4.4 3.6 10.5 9.6 10.6 9.7l.7.7 1.4-.3v.6c.1 1.2.1 3.5-1.3 5.2-2.1 2.6-3.6 3.9-4.9 3.9h-.2l-.2.1L69.2 37H69v.2l17.9 13.6c.8.6 1 1.8.5 2.6s-1.2 1.6-2.1 2.4C81.7 59 78.6 58 78 57.5c-.3-.2-19-14.4-19.2-14.5h-.2v.2l19.2 14.5v.6c0 .6-.4 1.3-1.3 2-1.3 1.3-3.6 2.4-5 2.4m-1.7-1.6c.5.2 1 .4 1.5.5.9.1 3.1-.8 4.4-1.9.9-.7.9-1.1.9-1.3v-.1L58 44.1c-.2-.2-.4-.4-.4-.7 0-.3 0-.6.2-.8.4-.5 1.1-.6 1.6-.2 4.5 3.4 19.1 14.5 19.2 14.5.3.3 3 1.1 6-1.7.8-.8 1.5-1.5 2-2.2.3-.4.2-1-.2-1.3L68.4 38c-.5-.4-.6-1.1-.2-1.6.4-.5 1.1-.6 1.6-.2l18.8 14.2h.2c.6 0 1.9-.6 4.1-3.5 1-1.2 1.1-2.8 1.1-4l-.8.2L92 42c-.1-.1-6.1-6.1-10.5-9.6-5.7-4.5-9.8-7.9-10.9-9.1-.8-.8-2.8-2.6-4.2-3.7l-1.9-1.7c-1.2.4-2.9.9-4.9 1.4-.1.1-.1.2-.2.3 0 0-.5.6-.5.7 0 0-.2.3-.3.3-1.6 1.6-3.9 3-7 4.3-1.7.7-3.3 1-4.9 1-2.4 0-4.3-.5-5.6-1.4-.8-.5-1.4-1.4-1.8-1.8-.2-.2-.5-.5-.6-.8-.2-.3-.2-.7-.3-.8 0-.6.2-1.2.6-2l.2-.3c1.5-2.6 5.2-7.2 7.3-9.8L48 7.2c.1-.1.5-.6.8-.9.4-.4.8-.8 1.3-1 .7-.3 1.7-.5 3.1-.8.4-.1 4.8-1.2 7.5-1.9-1.9-.5-4.7-1.2-7.7-1.2-3.4 0-10.7 4.9-15.5 8.2-3.1 2.1-4.7 3.2-5.5 3.3l-5.6 25.8c1.8.1 3.2.2 4 .3.2-.2.4-.4.5-.4 2.6-1.8 4.5-2.7 6.2-2.7 1.3 0 2.5.5 3.5 1.5.7.7 1.1 1.4 1.4 2.2 2.7-1.3 4.5-1.1 6.2.6 1.1 1.1 1.7 2.3 1.7 3.6 2-.4 4.2.7 4.8 1.3 1.4 1.4 2 3 1.8 4.9.3 0 .7-.1.8-.1 1.6 0 2.8.6 3.8 1.8.6.7 1 1.6 1.1 2.5 0 .3.1.6 0 1l7.6 5.9z"/><path fill="#184967" d="M71.5 63.2h-.4c-.7-.1-1.4-.4-2-.6l-.1-.2-8.5-6.3.1-.6v-.9c-.1-.7-.3-1.3-.8-1.8-.7-.8-1.5-1.2-2.6-1.2-.1 0-1.1.1-1.2.1l-1.6.4.3-1.6c.4-1.6-.1-3-1.2-4.2-.3-.3-1.5-1-2.8-1-.3 0-.5 0-.7.1h-.1c-.1 0-.3.1-.3.1l-1.5.6.2-1.6c.1-1.1-.3-2.1-1.3-3.1-1.4-1.3-2.6-1.4-5 0l-1.2.7-.2-1.4c-.1-.7-.5-1.4-1.1-2.1-.7-.7-1.5-1.1-2.4-1.1-1.4 0-3 .7-5.3 2.4-.1 0-.3.3-.5.4l-.4.4-.5-.1c-.8-.2-2.4-.3-4.6-.3h-1.2l6.2-28.7.7-.1h.2c.5-.1 2.9-1.8 4.9-3.1C41.8 4.9 49 0 52.9 0c4.4 0 8.4 1.3 9.9 1.8l3 1.1-3.1.8c-1.4.4-8.7 2.2-9.3 2.3-1.3.3-2.2.5-2.8.7-.3.1-.6.3-.8.6-.3.3-.7.8-.8.9L47.6 10c-1.6 2-5.6 7-7.1 9.6l-.2.3c-.4.6-.4.9-.5 1.1 0 0 0 .1.1.2s.2.3.4.5c.4.5 1 1.1 1.6 1.6 1.1.8 2.7 1.2 4.8 1.2 1.4 0 2.9-.3 4.4-.9 2.9-1.2 5.1-2.5 6.5-4l.2-.3s.3-.3.4-.5c0 0 0-.1.1-.1.1-.1.2-.3.2-.4l.2-.4.4-.1c2.2-.6 4-1.1 5.3-1.5l.5-.2 2.6 2.2c1.9 1.6 3.5 3 4.3 3.8 1.1 1.2 5.3 4.6 10.8 9 4.5 3.6 10.5 9.7 10.6 9.7l.5.5 1.7-.4.1 1.1c.1 1.3.1 3.7-1.4 5.6-2.2 2.8-3.8 4.1-5.3 4.1l-.5.1c.1.6 0 1.2-.4 1.7-.6.9-1.3 1.7-2.2 2.5-3.2 2.9-6 2.6-7.3 2.1v.1c0 .8-.5 1.6-1.5 2.4-1.5 1.4-3.8 2.6-5.4 2.6m-9.9-7.5l8.1 5.9c.3.1.7.3 1.1.4-.4-.1-.7-.3-1.1-.4l-.1-.1-8-5.8v-.2.2zm12.2 5.8c-.4.2-.8.3-1.1.4.3-.1.7-.2 1.1-.4m-3.7-.8c.4.2.9.4 1.4.5.7.1 2.8-.7 4-1.8.5-.4.6-.6.7-.8l-18.5-14c-.3-.3-.6-.6-.6-1.1-.1-.4.1-.9.3-1.2.5-.7 1.6-.8 2.3-.3l1.7 1.3c12.7 9.6 17.4 13.2 17.5 13.2.3.2 2.7.8 5.4-1.7.8-.7 1.4-1.4 1.9-2.1.1-.2.1-.5-.1-.6l-18-13.7c-.7-.5-.9-1.6-.3-2.3.2-.3.6-.6 1.1-.6.4-.1.9 0 1.2.3l18.6 14.1c.3 0 1.4-.3 3.7-3.3.7-.9.9-2.1 1-3l-.4.1-1.3-1.3c-.1-.1-6.1-6.1-10.5-9.6-5.7-4.6-9.8-7.9-11-9.1-.7-.8-2.8-2.5-4.1-3.7l-1.7-1.5c-1.2.4-2.7.8-4.5 1.3 0 .1-.1.1-.1.2 0 0-.5.6-.6.7 0 0-.2.2-.2.3-1.6 1.6-4 3.1-7.2 4.4-1.7.7-3.5 1.1-5.1 1.1-2.5 0-4.5-.5-5.9-1.5-.8-.6-1.5-1.4-1.9-1.9-.3-.3-.5-.6-.7-.9-.2-.4-.3-.8-.3-.9 0-.8.2-1.4.7-2.3l.2-.3c1.5-2.7 5.2-7.4 7.2-10l1.5-1.8c.1-.1.5-.6.8-.9.4-.5 1-.9 1.5-1.1.8-.3 1.7-.5 3.1-.8.3-.1 3.1-.8 5.6-1.4C57 2.3 55 2 52.9 2c-3.3 0-10.8 5.1-15.2 8.1-2.9 2-4.5 3-5.4 3.3l-5.4 25c1.4.1 2.5.1 3.3.3.2-.1.3-.3.4-.3 2.6-1.9 4.6-2.7 6.5-2.7 1.5 0 2.8.6 3.9 1.7.6.6 1 1.2 1.3 1.9 2.6-1.1 4.5-.8 6.3.9 1 1 1.6 2.1 1.8 3.3 2-.2 4 .9 4.7 1.5 1.4 1.3 2 2.9 2 4.7h.3c1.7 0 3.1.7 4.2 2 .7.8 1.1 1.7 1.2 2.8 0 .3.1.5 0 .8l7.3 5.4zm6.6-1.1c-.1.2-.3.3-.5.5-.2.1-.3.3-.5.4.2-.1.4-.3.5-.4.1-.2.3-.4.5-.5m.5-1.2c0 .2 0 .4-.2.6.2-.2.2-.4.2-.6zm7.2-2.5c-.2.2-.4.3-.6.4.2 0 .4-.2.6-.4m2.6-4.3c.3.5.3 1.1 0 1.6-.3.4-.5.7-.9 1.1.3-.4.6-.7.9-1.1.3-.5.3-1.1 0-1.6m-26.1 1.1c.1.2.3.5.4.7-.1-.3-.3-.5-.4-.7m-6.8-7.1c.1 0 .1.1 0 0 1.5 1.5 2 3.2 1.6 5.2.2-.1 1.2-.2 1.4-.2-.1 0-.5 0-.8.1l-.6.1.1-.6c.2-1.8-.3-3.3-1.7-4.6.1.1.1 0 0 0m3.1 5c.4 0 .8.1 1.2.2-.4-.1-.8-.2-1.2-.2M48.6 42c.5.9.7 1.8.6 2.7h.1l.4-.1-.5.1v-.6c.1-.8-.2-1.5-.6-2.1m45.8.4l-.5.1.5-.1zm-49.6-2.9c1.1 0 2 .4 2.9 1.2-1.5-1.4-3-1.6-5.1-.7.8-.3 1.5-.5 2.2-.5m-3.9-.4c.3.5.5 1 .6 1.5.2-.1.3-.2.5-.2l-.4.2-.3-.6c-.1-.3-.2-.6-.4-.9m-10.8.6c.1 0 .2 0 .3.1.2-.2.6-.5.6-.5 2.5-1.8 4.3-2.6 5.9-2.6-1.6 0-3.4.8-5.9 2.6-.1 0-.3.2-.5.4l-.2.2-.2-.2c.1 0 .1 0 0 0m-4.5-.3c1.4 0 2.5.1 3.4.2-.7-.1-1.7-.1-2.8-.2h-.6zM37 36.6c1.2 0 2.3.5 3.1 1.4l.2.2-.2-.2c-.9-.9-1.9-1.4-3.1-1.4m34.3-13.4c1 1 3.4 2.9 6.6 5.5-3.2-2.5-5.6-4.5-6.6-5.5M51 24.6c-1.5.6-2.9.8-4.3.8 1.4 0 2.8-.2 4.3-.8m-8.2.2c1.1.4 2.4.6 3.9.6-1.6 0-2.9-.2-3.9-.6m15.4-4.4c-1.5 1.5-3.7 2.8-6.6 4 2.9-1.2 5.1-2.6 6.6-4m10.9.8c.7.6 1.3 1.2 1.7 1.6-.4-.5-1-1-1.7-1.6M46.6 9.6c-2.1 2.6-5.5 7-7 9.4l-.2.3c-.1.1-.1.2-.1.3 0-.1.1-.2.1-.3l.2-.3c1.5-2.4 5.2-7.2 7-9.4m18 7.7l1.8 1.5-1.8-1.5c-.7.2-1.6.5-2.6.8.9-.3 1.7-.5 2.4-.7l.2-.1zM52.9 1c-3.6 0-10.6 4.8-15.8 8.3C42 6 49.3 1 52.9 1m-4.6 6.5l-.7.9.7-.9m2.2-1.8c-.1 0-.2.1-.3.1-.2.1-.4.2-.7.4.3-.2.5-.3.7-.4.1 0 .2-.1.3-.1m6.1-1.5c-1.7.4-3.2.8-3.4.8-.3.1-.6.1-.9.2.3-.1.6-.1.9-.2.2 0 1.7-.3 3.4-.8"/><path fill="#184967" d="M93.6 41.6l-.2-.2c-.1-.1-7.1-6.9-11-10.1-5.2-4.2-9.7-7.8-10.8-9-.3-.3-1.4-1.3-5.3-4.7l-.6-.5.4-.4c0-.1.2-.5.4-1.1-.6.3-1.3.6-1.7.7-1.9.7-4.7 1.4-5.8 1.7h-.2c0 .1-.1.2-.1.2-.1.2-.2.5-.6.9 0 0-.4.5-.5.5-1 1-2.9 2.5-6.5 3.9-1.5.6-3 .9-4.4.9-1.4 0-3.5-.2-4.8-1.2-.6-.4-1.2-1.1-1.6-1.5-.1-.2-.3-.3-.3-.4l.3-.3h-.5v-.3h.1c.1-.3.2-.6.5-1.1l.1-.1c1.6-2.7 5.9-8 7.1-9.6l.2-.2c.5-.6 2-2.5 2.1-2.6V7c.5-.5 1.7-.7 3.5-1.1.5-.1 1-.2 1.6-.3.6-.1 1.9-.5 3.5-.9 1.7-.4 3.7-1 5.7-1.5h.1c1.1-.3 2-.6 2.7-.8 1.7-.6 3-1 5.4-.8 2.4.2 8.5 4.4 14.6 8.6 1.5 1 2.9 2 3.1 2.1h1.1l4.4 28.9-2 .4zM67.1 17c2.9 2.5 4.8 4.2 5.3 4.7 1.1 1.2 6.4 5.5 10.7 8.9 3.5 2.9 9.7 8.8 10.9 10l.4-.1-4.1-27.1c-.2 0-.4 0-.5-.1-.3-.1-1.3-.8-3.3-2.2-4.1-2.9-11.7-8.3-14.1-8.5-2.2-.2-3.4.2-5 .8-.8.3-1.7.6-2.9.9h-.1c-2 .5-4 1-5.6 1.5-1.7.4-3 .8-3.6.9-.5.1-1.1.2-1.6.3-1.3.3-2.8.6-3 .9-.3.4-2.2 2.7-2.2 2.7l-.1.2c-1.3 1.7-5 6.2-6.6 8.9l-.5.3c-.3.4-.4.7-.5.9l.3.3c.4.4.9 1 1.4 1.4 1.2.8 3 1 4.3 1 1.3 0 2.6-.3 4-.9 3.5-1.4 5.3-2.8 6.2-3.7l.4-.5c.3-.3.4-.6.4-.6l.2-.5.1-.4h.8c1.2-.3 3.9-1 5.7-1.6.8-.3 2.7-1.1 2.7-1.2l1-.5-.4 1.1c-.4 1.2-.6 1.8-.7 2.2"/><path fill="#184967" d="M93.4 42.2l-.4-.4c-.1-.1-7.1-6.9-11-10.1-5.3-4.2-9.7-7.8-10.8-9-.2-.3-1.3-1.3-5.2-4.7l-1-.8.5-.6c-.2.1-.5.2-.7.3-1.9.7-4.7 1.4-5.8 1.7-.2.3-.4.6-.6 1l-.5.5c-1 1-3 2.5-6.7 4-1.6.6-3.1 1-4.6 1-1.5 0-3.7-.2-5.1-1.3-.6-.5-1.2-1.2-1.6-1.6l-.1-.2c-.1-.1-.1-.2-.2-.2l-.3-.3h-.1v-1.2l.2-.1c.1-.2.2-.5.4-.8l.1-.3c1.6-2.7 5.9-8.1 7.2-9.7l.2-.2c.5-.6 2-2.5 2.1-2.5l.2-.2c.7-.6 1.8-.8 3.8-1.2h.1L55 5c.5-.1 1.8-.4 3.3-.8l.2-.1c1.7-.5 3.7-1 5.7-1.5 1.2-.3 2-.6 2.8-.8 1.7-.6 3.1-1 5.6-.9 2.6.2 8.5 4.2 14.8 8.7 1.1.8 2.6 1.8 3 2h1.3l4.3 30-2.6.6zm1.5-1.4l-.9.2.9-.2zm-27.2-24c2 1.7 4.4 3.9 5.1 4.5 1.1 1.2 6.6 5.6 10.6 8.8 3.2 2.6 8.6 7.8 10.4 9.5l-3.9-25.9c-.1 0-.2 0-.3-.1-.4-.1-1.2-.7-3.4-2.3C82.3 8.7 74.5 3.2 72.3 3c-2.1-.1-3.2.2-4.8.8-.8.3-1.7.6-2.9.9-2 .5-4 1-5.6 1.5l-.2.1c-1.6.4-2.9.7-3.4.9l-1.5.3c-.9.2-2.6.5-2.9.7-.3.4-2.2 2.7-2.2 2.7l-.3.1c-1.1 1.4-4.9 6.2-6.6 8.8l-.3.5c-.1.2-.2.4-.3.5.3.4.8 1 1.3 1.3 1.1.8 2.7.9 4 .9 1.2 0 2.5-.3 3.8-.8 3.4-1.4 5.1-2.7 6-3.6 0 0 .3-.4.4-.4.2-.3.3-.4.3-.5 0 0 .1-.2.1-.4l.3-.8h1.1c1.1-.3 3.8-1 5.6-1.6.7-.3 2.3-1 2.7-1.1l2.1-1-.7 2.2c-.3.9-.5 1.4-.6 1.8m14.2 13.5c.3.2.5.4.8.6.4.3.8.7 1.3 1.1-.5-.4-.9-.8-1.3-1.1-.2-.2-.5-.4-.8-.6m8.4-17.5h.4l2.9 18.8-2.9-18.8h-.4m-18.5 9l.2.2c.4.4 1.3 1.2 2.6 2.3-1.2-1-2.2-1.9-2.6-2.3l-.2-.2m-29.9 1c.1.1.2.1.2.2 1.3.9 3.2 1.1 4.6 1.1-1.4 0-3.3-.2-4.6-1.1-.1-.1-.1-.2-.2-.2m15.3-3.5c-.7.7-1.8 1.6-3.7 2.6 1.9-1 3.1-1.9 3.7-2.6zm-16.4.5l-.1.1c-.2.3-.3.5-.4.7.2-.3.3-.5.5-.8l.3-.5c.3-.5.7-1.1 1.2-1.8-.6.9-1.1 1.6-1.5 2.3zM63 16.4c-1.5.5-3.2.9-4.2 1.1.8-.1 2.6-.6 4.2-1.1m4.1-1l-.1.4v.1c0-.2 0-.3.1-.5m.2-.7c-.3.1-1.5.7-2.3 1 .3-.1.8-.3 1.3-.5l1-.5M77 4.1c2.8 1.7 6.3 4.1 9.7 6.5 1.1.8 2 1.4 2.5 1.8-.5-.4-1.3-.9-2.5-1.8C84 8.7 80.1 6 77 4.1M48 10l-.1.2c-.2.3-.5.6-.8 1.1.3-.3.5-.6.7-.9l.1-.2s0-.1.1-.2m2.1-2.5s-.4.4-.8.9c.4-.4.7-.8.8-.9m.4-.3c-.1.1-.3.1-.4.2.2-.1.3-.1.4-.2m5-1.2c-.2 0-.3.1-.4.1-.4.1-.7.2-1.1.2.4-.1.7-.2 1.1-.2.1 0 .2-.1.4-.1m5.6-1.5c-.9.2-1.7.4-2.4.6l-.3.1-1.2.3c.4-.1.8-.2 1.3-.3h.2c.7-.2 1.5-.5 2.4-.7M71.9 2h.7-.7"/><path fill="#184967" d="M96 41.9l-5.2-34 8.1-1.2 5.2 34-8.1 1.2zM91.9 8.7l4.9 32.1 6.1-.9-4.8-32.1-6.2.9z"/><path fill="#184967" d="M95.6 42.5l-5.3-35 9.1-1.4 5.3 35-9.1 1.4zM92.5 9.1l4.7 31.1 5.2-.8-4.7-31.1-5.2.8z"/><path fill="#184967" d="M105.9 50.2l-7-46L113.2 2l7.1 46-14.4 2.2zM100.1 5l6.7 44.1 12.3-1.9-.3-2c-.2.8-.8 1.4-1.6 1.7-.6.2-1.3.2-1.9-.1-.6-.3-1.1-.8-1.3-1.4-.2-.6-.2-1.3.1-1.9s.8-1.1 1.4-1.3c1.1-.4 2.4 0 3 1l-6.2-40.1L100.1 5zm16.3 38c-.2 0-.4 0-.5.1-.4.1-.7.4-.9.8s-.2.8 0 1.2c.1.4.4.7.8.9.4.2.8.2 1.2 0 .8-.3 1.2-1.2.9-2-.1-.4-.4-.7-.8-.9-.3 0-.5-.1-.7-.1m-5.4 4.8c-.4 0-.7-.1-1-.2-.6-.3-1.1-.8-1.3-1.4-.2-.6-.2-1.3.1-1.9.3-.6.8-1.1 1.4-1.3.6-.2 1.3-.2 1.9.1.6.3 1.1.8 1.3 1.4.5 1.3-.2 2.8-1.5 3.3-.3-.1-.6 0-.9 0m0-4.1c-.2 0-.4 0-.5.1-.4.1-.7.4-.9.8-.2.4-.2.8 0 1.2.1.4.4.7.8.9.4.2.8.2 1.2 0 .8-.3 1.2-1.2.9-2-.1-.4-.4-.7-.8-.9-.3 0-.5-.1-.7-.1"/><path fill="#184967" d="M105.5 50.8l-7.2-47 15.2-2.3 7.3 47-15.3 2.3zm-4.9-45.4l6.6 43.1 2.7-.4c-.1 0-.1 0-.2-.1-.7-.3-1.3-.9-1.6-1.7-.3-.8-.3-1.6.1-2.3.3-.7.9-1.3 1.7-1.6.8-.3 1.6-.3 2.3.1.5.2 1 .6 1.3 1.1 0-.1.1-.2.1-.3.3-.7.9-1.3 1.7-1.6.8-.3 1.7-.2 2.5.2l-5.9-38.2-11.3 1.7zm13.2 40.8c-.2.6-.5 1.1-1 1.4l2.3-.3c-.5-.2-1-.6-1.3-1.1m-3.6 1c.5.2 1 .2 1.4 0 .1 0 .2-.1.3-.1-.1.1-.2.1-.3.1-.4.1-.9.1-1.4 0m5.4-.8c.5.2 1 .2 1.5 0 .1 0 .1-.1.2-.1-.1 0-.1.1-.2.1-.5.2-1.1.2-1.5 0m-6.5-1.9c-.2.5-.2 1 0 1.5l.3.6c-.1-.2-.3-.4-.3-.6-.2-.5-.2-1 0-1.5m1.9-.3c-.1 0-.2 0-.4.1-.3.1-.5.3-.6.5-.1.3-.1.5 0 .8.1.3.3.5.5.6.2.1.5.1.8 0 .3-.1.5-.3.6-.5.1-.3.1-.5 0-.8s-.3-.5-.5-.6c-.2 0-.3-.1-.4-.1m3.5-.4c-.2.5-.2 1 0 1.5.1.2.2.4.4.6-.2-.2-.3-.4-.4-.6-.2-.5-.2-1 0-1.5m1.9-.3c-.1 0-.2 0-.4.1-.3.1-.5.3-.6.5-.1.3-.1.5 0 .8.1.3.3.5.5.6.3.1.5.1.8 0 .3-.1.5-.3.6-.5.1-.3.1-.5 0-.8-.1-.3-.3-.5-.5-.6-.2 0-.3-.1-.4-.1m-3.9.4c.2.2.3.4.4.6.1.1.1.3.1.5 0-.2-.1-.3-.1-.5-.1-.2-.3-.4-.4-.6m5.6-.4c.1.1.1.2.2.4.1.4.2.8.1 1.2l.2-.8-.5-.8zm-7.6-.2c-.1 0-.2 0-.3.1-.2.1-.5.2-.6.4.2-.2.4-.3.6-.4.1-.1.2-.1.3-.1m5.3-.7h-.1c-.2.1-.5.2-.6.4.2-.2.4-.3.6-.4h.1m-3.1-40l-2.9.4 2.9-.4zM24 42.9l-8-1.7 7.3-33.7 8 1.7L24 42.9zm-6.9-2.5l6.1 1.3L30.1 10 24 8.7l-6.9 31.7z"/><path fill="#184967" d="M24.4 43.5l-9-2 7.5-34.6 9 2-7.5 34.6zm-7.9-2.7l7.1 1.5 7.1-32.7-7.1 32.7-7.1-1.5 7.1-32.7 6.7 1.5-6.7-1.5-7.1 32.7zm1.2-.8l5.1 1.1 6.7-30.7-5.1-1.1L17.7 40z"/><path fill="#184967" d="M13.5 50.6L.6 47.8 7.7 1.7l15.7 3.4-.1.5-9.8 45zM1.7 47l11.1 2.4 9.4-43.6-13.7-3-6.3 40.7c.4-.8 1.3-1.4 2.3-1.4 1.4 0 2.5 1.1 2.5 2.5s-1.1 2.5-2.5 2.5c-1.3 0-2.3-.9-2.5-2.1l-.3 2zm2.8-3.9c-.8 0-1.5.7-1.5 1.5s.7 1.5 1.5 1.5S6 45.4 6 44.6s-.7-1.5-1.5-1.5m5.3 5.2c-1.4 0-2.5-1.1-2.5-2.5s1.1-2.5 2.5-2.5 2.5 1.1 2.5 2.5-1.1 2.5-2.5 2.5m0-4c-.8 0-1.5.7-1.5 1.5s.7 1.5 1.5 1.5 1.5-.7 1.5-1.5c.1-.8-.6-1.5-1.5-1.5"/><path fill="#184967" d="M13.9 51.2L0 48.2 7.3 1.1 24 4.7 13.9 51.2zm-4.4-2l3.6.8 2.5-11.7L13.1 50l-3.6-.8zm1.7-.7l1.2.3 9.2-42.6L8.9 3.5 3 42c.5-.3 1-.4 1.5-.4 1.4 0 2.6 1 3 2.4.6-.7 1.4-1.1 2.4-1.1 1.7 0 3 1.4 3 3 0 1.1-.7 2.1-1.7 2.6m-3.4-2.7a2.006 2.006 0 0 1 0 0m-2.1 1.6l1.7.4c-.2-.4-.4-.8-.5-1.3-.3.4-.7.7-1.2.9m4.1-2.6c-.6 0-1 .5-1 1 0 .6.5 1 1 1 .6 0 1-.5 1-1 .1-.5-.4-1-1-1m-5.3 1.8zm0-3c-.6 0-1 .5-1 1 0 .6.5 1 1 1 .6 0 1-.5 1-1 0-.6-.4-1-1-1m-2.1.7l.1.6v-.3c0-1.1.9-2 2-2-.8 0-1.5.4-1.8 1.1l-.3.6zm5.7-42l14.7 3.2L8.1 2.3zM31.4 49.6l-.7-.2c-1.1-.4-1.9-1.1-2.4-2.1-1.3-2.7 2.3-6.6 3-7.2l.1-.1c3.9-2.8 6.1-3.1 7.9-1.3.8.9 1.2 1.8 1.2 2.9v.2l-9.2 7.3v.5zM37 38.5c-1 0-2.5.6-4.9 2.2l-.1.2c-.7.5-3.7 4-2.7 5.9.4.7.9 1.2 1.5 1.5l8.8-7c0-.7-.3-1.3-.9-1.9-.4-.5-.9-.9-1.7-.9"/><path fill="#184967" d="M31.9 50.3l-1.3-.4c-1.2-.4-2.1-1.2-2.7-2.4-1.5-2.9 2.3-7.2 3.2-7.8l.1-.1c4-2.9 6.6-3.3 8.6-1.2.9 1 1.4 2.1 1.3 3.3v.4l-9.2 7.3v.9zm-1-1.5s0 .1 0 0l2-1.6-2 1.6zM37 39c-1 0-2.6.7-4.6 2.1l-.1.1c-.7.5-3.3 3.7-2.5 5.3.3.5.6.9 1 1.2l8.4-6.7c-.1-.5-.3-.9-.7-1.4-.5-.4-1-.6-1.5-.6m2.4.3c.5.6.8 1.2.8 1.9-.1-.7-.3-1.3-.8-1.9M37 38c1.1 0 1.7.5 2.1 1l.1.1-.1-.1c-.8-.8-1.8-1.4-3.8-.6.6-.3 1.2-.4 1.7-.4"/><path fill="#184967" d="M36.2 55.4l-.3-.1c-1-.3-2.4-1-3.1-1.9-.8-1.1-1-2.6-1-3.6v-.5l9.4-7.5c.1-.1.3-.2.5-.3 2.1-1.2 3.7-1.6 5.4 0 1.3 1.3 1.7 2.8 1 4.4v.1l-.1.1c-.9.7-3.1 2.5-5.1 4.1l-6.7 5.2zm-3.4-5.7c0 .9.1 2.2.8 3.1.5.7 1.5 1.2 2.4 1.5l6.2-4.9c1.9-1.5 4.1-3.3 5-4 .5-1.2.2-2.2-.8-3.2-.9-.9-1.8-1.1-4.2.2-.1.1-.3.2-.4.2l-9 7.1z"/><path fill="#184967" d="M36.3 56l-.5-.2c-1.1-.4-2.5-1-3.3-2.1-.9-1.2-1.1-2.8-1.1-3.9V49l9.6-7.6c.2-.1.4-.2.5-.3 2.2-1.3 4.1-1.7 5.9.1 1.5 1.4 1.8 3.1 1.1 5l-.1.2-.2.2c-.9.7-3.1 2.5-5.1 4.1L36.3 56zm-.2-1.1l6.5-5.1c1.6-1.3 3.4-2.7 4.4-3.6-1.1.9-2.9 2.3-4.5 3.6l-6.4 5.1zM33.3 50c0 .8.1 1.8.7 2.5.3.5 1 .9 1.9 1.2l6-4.7c1.9-1.5 3.9-3.1 4.9-3.9.3-1 .1-1.7-.7-2.6-.7-.7-1.3-1-3.6.3-.2.1-.3.2-.4.2l-8.8 7zm-1-.2c0 1 .1 2.3.8 3.2-.7-1-.8-2.3-.8-3.2zm14.5-7.9c.2.2.4.5.6.7-.1-.2-.3-.5-.6-.7m-2-1c-.6 0-1.4.2-2.3.7 1.4-.7 2.3-.9 3.2-.6-.3 0-.6-.1-.9-.1"/><path fill="#184967" d="M42.9 61.7l-.3-.1c-2.1-.7-3.4-1.4-3.9-2-.4-.6-1-1.7-1.6-3.4l-.3-.8 6.2-4.8c1.9-1.5 5.1-4.1 5.5-4.4v-.1l.1-.1c.4-.2.8-.4 1.1-.5h.1c1.5-.5 3.3.5 3.7.9 1.3 1.3 1.7 2.8 1.2 4.7v.1c0 .1-.1.2-.1.3l-.1.3h-.1c-.1.1-.2.2-.3.2-.5.3-1 .7-1.4 1.1l-.1.1c-.8.7-6.1 5.4-9.2 8.1l-.5.4zm-4.8-6v.1c.6 1.6 1.1 2.7 1.5 3.2.3.4 1.5 1 3.2 1.6l.1-.1c3-2.7 8.4-7.4 9.2-8.1l.1-.1c.5-.5 1.1-.9 1.6-1.2v-.4h.2c.4-1.5.1-2.6-.9-3.7-.2-.2-1.7-1-2.8-.6h-.1c-.3.1-.6.2-.9.4-.3.3-1.5 1.2-5.5 4.5l-5.7 4.4z"/><path fill="#184967" d="M43.1 62.3l-.6-.2c-2.2-.8-3.6-1.5-4.1-2.2-.5-.6-1-1.8-1.7-3.6l-.4-1.2 6.4-5.1c1.9-1.5 4.8-3.9 5.4-4.3v-.1l.3-.2c.4-.2.8-.4 1.2-.5h.1c1.7-.5 3.7.5 4.2 1 1.5 1.4 1.9 3.2 1.3 5.2v.1c0 .1-.1.2-.1.3l-.2.6h-.2l-.2.2c-.5.3-.9.6-1.3 1l-.2.2c-.7.7-5.4 4.8-9.2 8.1l-.7.7zM41 60.5c.4.2 1 .4 1.7.6l-.2-.1c-.4-.1-1-.3-1.5-.5m-2.4-4.6c.7 2 1.2 2.6 1.3 2.8.1.2.9.7 2.7 1.3 3.1-2.7 8.3-7.3 9-8l.1-.1c.5-.4 1-.8 1.4-1.1v-.5h.2c.3-1.2 0-2-.9-2.9-.2-.2-1.5-.8-2.2-.5h-.1c-.2.1-.5.2-.7.3-.4.3-1.4 1.2-5.5 4.5l-5.3 4.2zm14.3-3.6c-.2.1-.3.3-.5.4l-.1.1c-.6.6-3.9 3.5-6.8 6 3.2-2.8 6.3-5.5 6.8-6l.1-.1c.2-.2.3-.3.5-.4m-15.4 3.2l.2.5c.4 1.1.7 1.9 1 2.4-.4-.7-.7-1.6-1-2.4l-.2-.5 5.9-4.6c2.2-1.8 3.7-3 4.6-3.7-1.2 1-3.4 2.7-4.6 3.7l-5.9 4.6zm15.3-9.1c.2.1.4.2.5.3 1.1 1.1 1.5 2.3 1.2 3.8.3-1.5 0-2.7-1.2-3.8-.1-.1-.3-.2-.5-.3"/></svg>