<?xml version="1.0" encoding="utf-8"?>
<!-- Generator: Adobe Illustrator 16.0.0, SVG Export Plug-In . SVG Version: 6.00 Build 0)  -->
<!DOCTYPE svg PUBLIC "-//W3C//DTD SVG 1.1//EN" "http://www.w3.org/Graphics/SVG/1.1/DTD/svg11.dtd">
<svg version="1.1" id="Слой_1" xmlns="http://www.w3.org/2000/svg" xmlns:xlink="http://www.w3.org/1999/xlink" x="0px" y="0px"
	 width="20.1px" height="22.8px" viewBox="12.5 11.1 20.1 22.8" style="enable-background:new 12.5 11.1 20.1 22.8;"
	 xml:space="preserve">
<style type="text/css">
<![CDATA[
	.st0{fill:#FFFFFF;}
]]>
</style>
<g>
	<g>
		<path class="st0" d="M30.9,33.9H16.8c-0.3,0-0.5-0.2-0.5-0.5c0-0.3,0.2-0.5,0.5-0.5H31c0.3,0,0.6-0.3,0.6-0.6V12.7
			c0-0.3-0.3-0.6-0.6-0.6H16.8c-0.3,0-0.6,0.3-0.6,0.6v17.6c0,0.3-0.2,0.5-0.5,0.5c-0.3,0-0.5-0.2-0.5-0.5V12.7
			c0-0.9,0.7-1.6,1.6-1.6H31c0.9,0,1.6,0.7,1.6,1.6v19.5C32.5,33.1,31.8,33.9,30.9,33.9L30.9,33.9z"/>
	</g>
	<g>
		<path class="st0" d="M22.8,20.3h-4.3c-0.3,0-0.5-0.2-0.5-0.5c0-0.3,0.2-0.5,0.5-0.5h4.3c0.3,0,0.5,0.2,0.5,0.5
			C23.3,20.1,23.1,20.3,22.8,20.3L22.8,20.3z"/>
	</g>
	<g>
		<path class="st0" d="M22.8,22.9h-4.3c-0.3,0-0.5-0.2-0.5-0.5c0-0.3,0.2-0.5,0.5-0.5h4.3c0.3,0,0.5,0.2,0.5,0.5
			C23.3,22.7,23.1,22.9,22.8,22.9L22.8,22.9z"/>
	</g>
	<g>
		<path class="st0" d="M22.8,25.5h-4.3c-0.3,0-0.5-0.2-0.5-0.5s0.2-0.5,0.5-0.5h4.3c0.3,0,0.5,0.2,0.5,0.5S23.1,25.5,22.8,25.5
			L22.8,25.5z"/>
	</g>
	<g>
		<path class="st0" d="M22.8,28.1h-4.3c-0.3,0-0.5-0.2-0.5-0.5c0-0.3,0.2-0.5,0.5-0.5h4.3c0.3,0,0.5,0.2,0.5,0.5
			C23.3,27.9,23.1,28.1,22.8,28.1L22.8,28.1z"/>
	</g>
	<g>
		<path class="st0" d="M22.8,30.7h-4.3c-0.3,0-0.5-0.2-0.5-0.5s0.2-0.5,0.5-0.5h4.3c0.3,0,0.5,0.2,0.5,0.5
			C23.3,30.4,23.1,30.7,22.8,30.7L22.8,30.7z"/>
	</g>
	<g>
		<path class="st0" d="M29,20.3h-4.3c-0.3,0-0.5-0.2-0.5-0.5c0-0.3,0.2-0.5,0.5-0.5H29c0.3,0,0.5,0.2,0.5,0.5
			C29.5,20.1,29.3,20.3,29,20.3L29,20.3z"/>
	</g>
	<g>
		<path class="st0" d="M29,22.9h-4.3c-0.3,0-0.5-0.2-0.5-0.5c0-0.3,0.2-0.5,0.5-0.5H29c0.3,0,0.5,0.2,0.5,0.5
			C29.5,22.7,29.3,22.9,29,22.9L29,22.9z"/>
	</g>
	<g>
		<path class="st0" d="M29,25.5h-4.3c-0.3,0-0.5-0.2-0.5-0.5s0.2-0.5,0.5-0.5H29c0.3,0,0.5,0.2,0.5,0.5S29.3,25.5,29,25.5L29,25.5z"
			/>
	</g>
	<g>
		<path class="st0" d="M29,28.1h-4.3c-0.3,0-0.5-0.2-0.5-0.5c0-0.3,0.2-0.5,0.5-0.5H29c0.3,0,0.5,0.2,0.5,0.5
			C29.5,27.9,29.3,28.1,29,28.1L29,28.1z"/>
	</g>
	<g>
		<path class="st0" d="M29,30.7h-4.3c-0.3,0-0.5-0.2-0.5-0.5s0.2-0.5,0.5-0.5H29c0.3,0,0.5,0.2,0.5,0.5C29.5,30.4,29.3,30.7,29,30.7
			L29,30.7z"/>
	</g>
	<g>
		<path class="st0" d="M22.5,33.9h-8.4c-0.9,0-1.6-0.7-1.6-1.6V15.8c0-0.4,0-0.9,0.3-1.2c0.4-0.4,0.9-0.4,1.9-0.4h0.6l0,0
			c0.3,0,0.5,0.2,0.5,0.5c0,0.3-0.2,0.5-0.5,0.5h-0.6c-0.5,0-1.1,0-1.2,0.1c0,0,0,0.1,0,0.5v16.5c0,0.3,0.3,0.6,0.6,0.6h8.4
			c0.3,0,0.5,0.2,0.5,0.5C23,33.6,22.7,33.9,22.5,33.9L22.5,33.9z"/>
	</g>
	<g>
		<path class="st0" d="M29,17.6H18.6c-0.3,0-0.5-0.2-0.5-0.5v-2.7c0-0.3,0.2-0.5,0.5-0.5H29c0.3,0,0.5,0.2,0.5,0.5v2.7
			C29.5,17.3,29.3,17.6,29,17.6L29,17.6z M19.1,16.6h9.4v-1.7h-9.4V16.6L19.1,16.6z"/>
	</g>
</g>
</svg>
