<?xml version="1.0" encoding="utf-8"?>
<!-- Generator: Adobe Illustrator 16.0.0, SVG Export Plug-In . SVG Version: 6.00 Build 0)  -->
<!DOCTYPE svg PUBLIC "-//W3C//DTD SVG 1.1//EN" "http://www.w3.org/Graphics/SVG/1.1/DTD/svg11.dtd">
<svg version="1.1" id="Слой_1" xmlns="http://www.w3.org/2000/svg" xmlns:xlink="http://www.w3.org/1999/xlink" x="0px" y="0px"
	 width="22.8px" height="23px" viewBox="11.3 11 22.8 23" style="enable-background:new 11.3 11 22.8 23;" xml:space="preserve">
<style type="text/css">
<![CDATA[
	.st0{fill:#FFFFFF;}
]]>
</style>
<g>
	<g>
		<path class="st0" d="M17,17.2h-5.2c-0.3,0-0.5-0.2-0.5-0.5v-5.2c0-0.3,0.2-0.5,0.5-0.5H17c0.3,0,0.5,0.2,0.5,0.5v5.2
			C17.5,17,17.3,17.2,17,17.2L17,17.2z M12.3,16.2h4.2V12h-4.2V16.2L12.3,16.2z"/>
	</g>
	<g>
		<path class="st0" d="M25.3,17.2h-5.2c-0.3,0-0.5-0.2-0.5-0.5v-5.2c0-0.3,0.2-0.5,0.5-0.5h5.2c0.3,0,0.5,0.2,0.5,0.5v5.2
			C25.8,17,25.6,17.2,25.3,17.2L25.3,17.2z M20.6,16.2h4.2V12h-4.2V16.2L20.6,16.2z"/>
	</g>
	<g>
		<path class="st0" d="M33.6,17.2h-5.2c-0.3,0-0.5-0.2-0.5-0.5v-5.2c0-0.3,0.2-0.5,0.5-0.5h5.2c0.3,0,0.5,0.2,0.5,0.5v5.2
			C34.1,17,33.9,17.2,33.6,17.2L33.6,17.2z M28.9,16.2h4.2V12h-4.2V16.2L28.9,16.2z"/>
	</g>
	<g>
		<path class="st0" d="M17,25.6h-5.2c-0.3,0-0.5-0.2-0.5-0.5v-5.2c0-0.3,0.2-0.5,0.5-0.5H17c0.3,0,0.5,0.2,0.5,0.5v5.2
			C17.5,25.4,17.3,25.6,17,25.6L17,25.6z M12.3,24.6h4.2v-4.2h-4.2V24.6L12.3,24.6z"/>
	</g>
	<g>
		<path class="st0" d="M25.3,25.6h-5.2c-0.3,0-0.5-0.2-0.5-0.5v-5.2c0-0.3,0.2-0.5,0.5-0.5h5.2c0.3,0,0.5,0.2,0.5,0.5v5.2
			C25.8,25.4,25.6,25.6,25.3,25.6L25.3,25.6z M20.6,24.6h4.2v-4.2h-4.2V24.6L20.6,24.6z"/>
	</g>
	<g>
		<path class="st0" d="M33.6,25.6h-5.2c-0.3,0-0.5-0.2-0.5-0.5v-5.2c0-0.3,0.2-0.5,0.5-0.5h5.2c0.3,0,0.5,0.2,0.5,0.5v5.2
			C34.1,25.4,33.9,25.6,33.6,25.6L33.6,25.6z M28.9,24.6h4.2v-4.2h-4.2V24.6L28.9,24.6z"/>
	</g>
	<g>
		<path class="st0" d="M17,34h-5.2c-0.3,0-0.5-0.2-0.5-0.5v-5.2c0-0.3,0.2-0.5,0.5-0.5H17c0.3,0,0.5,0.2,0.5,0.5v5.2
			C17.5,33.8,17.3,34,17,34L17,34z M12.3,33h4.2v-4.2h-4.2V33L12.3,33z"/>
	</g>
	<g>
		<path class="st0" d="M25.3,34h-5.2c-0.3,0-0.5-0.2-0.5-0.5v-5.2c0-0.3,0.2-0.5,0.5-0.5h5.2c0.3,0,0.5,0.2,0.5,0.5v5.2
			C25.8,33.8,25.6,34,25.3,34L25.3,34z M20.6,33h4.2v-4.2h-4.2V33L20.6,33z"/>
	</g>
	<g>
		<path class="st0" d="M33.6,34h-5.2c-0.3,0-0.5-0.2-0.5-0.5v-5.2c0-0.3,0.2-0.5,0.5-0.5h5.2c0.3,0,0.5,0.2,0.5,0.5v5.2
			C34.1,33.8,33.9,34,33.6,34L33.6,34z M28.9,33h4.2v-4.2h-4.2V33L28.9,33z"/>
	</g>
</g>
</svg>
