<?xml version="1.0" encoding="utf-8"?>
<!-- Generator: Adobe Illustrator 16.0.0, SVG Export Plug-In . SVG Version: 6.00 Build 0)  -->
<!DOCTYPE svg PUBLIC "-//W3C//DTD SVG 1.1//EN" "http://www.w3.org/Graphics/SVG/1.1/DTD/svg11.dtd">
<svg version="1.1" id="Слой_1" xmlns="http://www.w3.org/2000/svg" xmlns:xlink="http://www.w3.org/1999/xlink" x="0px" y="0px"
	 width="23px" height="23px" viewBox="0 0 23 23" style="enable-background:new 0 0 23 23;" xml:space="preserve">
<style type="text/css">
<![CDATA[
	.st0{fill:#FFFFFF;}
]]>
</style>
<g>
	<g>
		<g>
			<path class="st0" d="M11.9,19.7c-0.3,0-0.5-0.1-0.8-0.2c-0.1-0.1-0.2-0.1-0.4-0.2l-0.1-0.1l0.1-0.1c0.3-0.3,0.8-0.9,1-1.4l0-0.2
				l1.9,1.4l-0.2,0.1l-0.1,0l0,0l0.1,0.1C13.2,19.3,12.7,19.7,11.9,19.7z M11,19.1c0.1,0.1,0.2,0.1,0.2,0.1c1,0.5,1.8-0.1,1.9-0.4
				c0,0,0,0,0,0l-1.3-1C11.6,18.4,11.3,18.8,11,19.1z"/>
			<path class="st0" d="M11.9,19.8c-0.3,0-0.6-0.1-0.9-0.2c-0.1-0.1-0.2-0.1-0.4-0.2l-0.3-0.2l0.2-0.2c0.3-0.3,0.8-0.8,0.9-1.4
				l0.1-0.4l2.2,1.6L13.5,19C13.3,19.4,12.7,19.8,11.9,19.8z M10.9,19.2c0.1,0.1,0.2,0.1,0.3,0.1c0,0,0,0,0.1,0c0,0,0,0-0.1,0
				C11.1,19.3,11,19.3,10.9,19.2L10.9,19.2z M13.2,19c-0.1,0.1-0.2,0.2-0.4,0.3C13,19.2,13.1,19.1,13.2,19L13.2,19z M11.2,19.1
				C11.2,19.1,11.2,19.1,11.2,19.1c0.9,0.4,1.6,0,1.8-0.2l-1.1-0.8C11.7,18.4,11.5,18.8,11.2,19.1z M10.8,19.2
				C10.8,19.2,10.8,19.2,10.8,19.2L10.8,19.2C10.8,19.1,10.8,19.1,10.8,19.2L10.8,19.2z M11.8,17.7l1,0.7L11.8,17.7
				c0,0,0,0.1-0.1,0.1L11.8,17.7z"/>
		</g>
	</g>
	<g>
		<g>
			<path class="st0" d="M8.6,20.1c-0.5,0-0.9-0.3-1.1-0.4c-0.1-0.1-0.2-0.4-0.3-0.6L7.2,19l0.1-0.1c0.6-0.5,2.1-1.9,2.3-2.1l0,0
				c0.2-0.2,0.4-0.3,0.6-0.4c0.1,0,0.3-0.1,0.4-0.1c0.4,0,0.6,0.1,0.8,0.3c0.1,0.1,0.2,0.3,0.2,0.5c0,0.1,0,0.2,0,0.3l0,0
				c-0.1,0.6-0.6,1.2-1,1.6c-0.2,0.2-0.5,0.4-0.7,0.6C9.4,20,9,20.1,8.6,20.1z M7.5,19c0.1,0.2,0.2,0.4,0.3,0.5
				c0.2,0.2,1,0.6,1.9-0.1c0.2-0.2,0.5-0.4,0.7-0.6c0.5-0.5,0.9-1,0.9-1.4l0,0c0-0.1,0-0.2,0-0.3c0-0.1-0.1-0.2-0.1-0.3
				c-0.1-0.2-0.3-0.3-0.6-0.2c0,0-0.2,0-0.3,0.1c-0.2,0.1-0.3,0.2-0.5,0.3l0,0C9.6,17.2,9.1,17.6,7.5,19z"/>
			<path class="st0" d="M8.6,20.2c-0.6,0-1-0.3-1.2-0.4c-0.1-0.1-0.2-0.3-0.3-0.6L7,18.9l0.1-0.1c0.2-0.2,2.1-1.8,2.3-2.1l0,0
				c0.2-0.2,0.4-0.3,0.6-0.4c0.1,0,0.3-0.1,0.4-0.1c0.4,0,0.7,0.1,0.9,0.4c0.1,0.2,0.2,0.3,0.2,0.5c0,0.1,0,0.2,0,0.4
				c-0.1,0.6-0.6,1.2-1,1.6c-0.2,0.2-0.5,0.4-0.7,0.6C9.5,20.1,9.1,20.2,8.6,20.2z M7.6,19.1c0.1,0.2,0.2,0.3,0.2,0.4
				C8,19.6,8.7,20,9.6,19.3c0.2-0.2,0.5-0.4,0.7-0.6c0.5-0.5,0.8-1,0.9-1.3c0-0.1,0-0.2,0-0.2c0-0.1-0.1-0.2-0.1-0.3
				c-0.1-0.1-0.3-0.2-0.5-0.2c0,0-0.2,0-0.2,0.1c-0.1,0.1-0.3,0.2-0.4,0.3l-0.1,0.1l0,0C9.5,17.4,9,17.9,7.6,19.1z M9.8,19.5
				C9.8,19.5,9.8,19.5,9.8,19.5c-0.1,0.1-0.1,0.1-0.2,0.1C9.6,19.6,9.7,19.6,9.8,19.5C9.8,19.5,9.8,19.5,9.8,19.5z M7.4,19.1
				c0,0.1,0,0.1,0.1,0.1C7.4,19.2,7.4,19.1,7.4,19.1L7.4,19.1z M11.4,17.5c-0.1,0.4-0.4,0.9-1,1.4c-0.1,0.1-0.2,0.2-0.3,0.2
				c0.1-0.1,0.2-0.2,0.3-0.2C10.8,18.6,11.3,18.1,11.4,17.5z M8.5,18c-0.3,0.2-0.5,0.5-0.7,0.7C8.1,18.4,8.3,18.2,8.5,18z M9.8,16.8
				L9.8,16.8c0.1-0.1,0.3-0.2,0.4-0.3c0,0,0,0,0.1,0c0,0,0,0-0.1,0C10.1,16.6,9.9,16.7,9.8,16.8z M10.7,16.5c0.2,0,0.4,0.1,0.6,0.2
				C11.1,16.5,10.9,16.5,10.7,16.5C10.6,16.5,10.6,16.5,10.7,16.5z"/>
		</g>
	</g>
	<g>
		<g>
			<path class="st0" d="M14.3,19.2C14.3,19.2,14.3,19.2,14.3,19.2c-0.2,0-0.4-0.1-0.6-0.2l0,0l-2.1-1.5l0-0.1c0-0.1,0-0.2,0-0.3
				c0-0.2-0.1-0.4-0.2-0.5c-0.2-0.2-0.5-0.4-0.8-0.4c0,0-0.3,0-0.3,0l-0.2,0l0-0.2c0.1-0.5,0-0.9-0.4-1.2c-0.1-0.1-0.4-0.3-0.8-0.3
				c-0.1,0-0.2,0-0.2,0c0,0-0.1,0-0.1,0l-0.2,0.1l0-0.2c0-0.3-0.1-0.6-0.4-0.9c-0.2-0.2-0.4-0.3-0.6-0.3c-0.2,0-0.5,0.1-0.8,0.3
				l-0.2,0.1l0-0.2c0-0.2-0.1-0.4-0.3-0.6c-0.2-0.2-0.4-0.3-0.7-0.3c-0.4,0-0.8,0.2-1.4,0.6c0,0-0.1,0.1-0.1,0.1l0,0l-0.1,0
				c-0.2,0-0.6-0.1-1.2-0.1l-0.2,0L4,6.3l0.1,0c0,0,0.1,0,0.1,0c0.1,0,0.7-0.4,1.3-0.8c1.3-0.9,3.1-2.1,4.1-2.1
				c1.1,0,2.1,0.3,2.5,0.4L12.4,4L12,4.1c-0.3,0.1-2.2,0.6-2.4,0.6C9.4,4.7,9.1,4.8,9,4.8C8.9,4.9,8.8,4.9,8.7,5
				C8.6,5.1,8.5,5.2,8.5,5.3L8.1,5.7C7.7,6.2,6.7,7.5,6.3,8.2l0,0.1C6.2,8.5,6.1,8.5,6.1,8.6l0,0c0,0,0,0,0,0.1
				c0,0.1,0.1,0.1,0.1,0.2C6.4,9,6.5,9.2,6.7,9.3C7,9.5,7.4,9.6,8,9.6c0.4,0,0.8-0.1,1.2-0.2c0.7-0.3,1.3-0.7,1.7-1
				c0,0,0.1-0.1,0.1-0.1c0,0,0.1-0.2,0.1-0.2c0,0,0-0.1,0.1-0.1l0,0l0.1,0c0.6-0.1,1-0.3,1.3-0.4l0.1,0L13.2,8
				c0.5,0.4,0.9,0.8,1.1,1c0.3,0.3,1.4,1.2,2.8,2.3c1.1,0.9,2.7,2.5,2.7,2.5l0.2,0.2l0.3-0.1l0,0.1c0,0.3,0,0.9-0.3,1.3
				c-0.5,0.7-0.9,1-1.3,1c0,0,0,0,0,0l-0.1,0l-4.9-3.7c0,0,0,0,0,0c0,0,0,0,0,0l4.6,3.5c0.2,0.2,0.3,0.5,0.1,0.7
				c-0.1,0.2-0.3,0.4-0.5,0.6c-0.9,0.8-1.7,0.6-1.9,0.4c-0.1-0.1-4.8-3.7-4.9-3.7c0,0,0,0,0,0l0,0l4.9,3.7l0,0.1c0,0,0,0.1,0,0.1
				c0,0.2-0.1,0.3-0.3,0.5C15.3,18.9,14.7,19.2,14.3,19.2z M13.9,18.8c0.1,0.1,0.3,0.1,0.4,0.1c0.2,0,0.8-0.2,1.1-0.5
				c0.2-0.2,0.2-0.3,0.2-0.3c0,0,0,0,0,0l-4.8-3.6c-0.1,0-0.1-0.1-0.1-0.2c0-0.1,0-0.2,0.1-0.2c0.1-0.1,0.3-0.1,0.4-0.1
				c1.1,0.9,4.9,3.7,4.9,3.7c0.1,0.1,0.8,0.3,1.5-0.4c0.2-0.2,0.4-0.4,0.5-0.6c0.1-0.1,0-0.3-0.1-0.3l-4.6-3.5
				c-0.1-0.1-0.2-0.3-0.1-0.4c0.1-0.1,0.3-0.1,0.4-0.1l4.8,3.6c0,0,0,0,0,0c0.2,0,0.5-0.2,1.1-0.9c0.2-0.3,0.3-0.7,0.3-1l-0.2,0
				l-0.3-0.3c0,0-1.6-1.6-2.7-2.5c-1.4-1.2-2.5-2-2.8-2.3C13.9,9,13.4,8.5,13,8.2l-0.5-0.4c-0.3,0.1-0.7,0.2-1.2,0.4
				c0,0,0,0.1-0.1,0.1c0,0-0.1,0.2-0.1,0.2c0,0-0.1,0.1-0.1,0.1c-0.4,0.4-1,0.8-1.8,1.1C8.8,9.8,8.4,9.9,8,9.9
				c-0.6,0-1.1-0.1-1.4-0.4C6.4,9.3,6.2,9.1,6.1,9C6.1,9,6,8.9,5.9,8.8c0-0.1-0.1-0.2-0.1-0.2c0-0.2,0-0.3,0.2-0.5l0-0.1
				c0.4-0.7,1.3-1.8,1.8-2.5l0.4-0.5c0,0,0.1-0.1,0.2-0.2c0.1-0.1,0.2-0.2,0.3-0.2C9,4.5,9.3,4.5,9.6,4.4c0.1,0,1.2-0.3,1.9-0.5
				c-0.5-0.1-1.2-0.3-2-0.3c-0.9,0-2.7,1.3-3.9,2.1C4.8,6.3,4.4,6.5,4.2,6.6c0,0,0,0,0,0l-1.4,6.6c0.5,0,0.8,0,1,0.1
				c0.1,0,0.1-0.1,0.1-0.1c0.7-0.5,1.1-0.7,1.6-0.7c0.3,0,0.6,0.1,0.9,0.4c0.2,0.2,0.3,0.4,0.3,0.6c0.7-0.3,1.2-0.3,1.6,0.1
				c0.3,0.3,0.4,0.6,0.4,0.9c0.5-0.1,1.1,0.2,1.2,0.3c0.4,0.3,0.5,0.8,0.5,1.2c0.1,0,0.2,0,0.2,0c0.4,0,0.7,0.2,1,0.5
				c0.2,0.2,0.2,0.4,0.3,0.6c0,0.1,0,0.2,0,0.3L13.9,18.8z"/>
			<path class="st0" d="M14.3,19.3c0,0-0.1,0-0.1,0c-0.2,0-0.4-0.1-0.5-0.2l0,0l-2.2-1.6l0-0.1c0-0.1,0-0.2,0-0.2
				c0-0.2-0.1-0.3-0.2-0.5c-0.2-0.2-0.4-0.3-0.7-0.3c0,0-0.3,0-0.3,0L10,16.5l0.1-0.4c0.1-0.4,0-0.8-0.3-1.1C9.7,15,9.3,14.8,9,14.8
				c-0.1,0-0.1,0-0.2,0c0,0,0,0,0,0c0,0-0.1,0-0.1,0L8.4,15l0-0.4c0-0.3-0.1-0.5-0.3-0.8c-0.3-0.3-0.7-0.3-1.3,0L6.5,14l-0.1-0.4
				c0-0.2-0.1-0.4-0.3-0.5c-0.2-0.2-0.4-0.3-0.6-0.3c-0.3,0-0.8,0.2-1.4,0.6c0,0-0.1,0.1-0.1,0.1L4,13.6l-0.1,0
				c-0.2,0-0.6-0.1-1.2-0.1l-0.3,0l1.6-7.3l0.2,0c0,0,0,0,0.1,0c0.1,0,0.7-0.4,1.3-0.8c1.3-0.9,3.2-2.2,4.2-2.2
				c1.1,0,2.1,0.3,2.5,0.5L12.9,4l-0.8,0.2c-0.3,0.1-2.2,0.6-2.4,0.6C9.4,4.9,9.2,4.9,9,5C8.9,5,8.9,5,8.8,5.1
				C8.7,5.2,8.6,5.3,8.6,5.3L8.2,5.8C7.8,6.3,6.8,7.6,6.4,8.2l0,0.1C6.3,8.5,6.3,8.6,6.3,8.6c0,0,0,0,0,0c0,0,0.1,0.1,0.1,0.1
				c0.1,0.1,0.2,0.3,0.4,0.4C7.1,9.4,7.5,9.5,8,9.5c0.4,0,0.7-0.1,1.1-0.2c0.7-0.3,1.3-0.6,1.7-1c0,0,0.1-0.1,0.1-0.1
				c0,0,0.1-0.1,0.1-0.1c0,0,0,0,0,0l0,0C11,8,11,8,11,7.9l0.1-0.1l0.1,0c0.6-0.1,1-0.3,1.3-0.4l0.1,0l0.7,0.6
				c0.5,0.4,0.9,0.8,1.1,1c0.3,0.3,1.4,1.2,2.7,2.3c1.1,0.9,2.7,2.5,2.7,2.5l0.1,0.1l0.4-0.1l0,0.3c0,0.3,0,0.9-0.4,1.4
				c-0.6,0.7-1,1-1.4,1l-0.1,0c0,0.1,0,0.3-0.1,0.4c-0.1,0.2-0.3,0.4-0.6,0.6c-0.8,0.7-1.5,0.7-1.9,0.5c0,0,0,0,0,0
				c0,0.2-0.1,0.4-0.4,0.6C15.3,19,14.7,19.3,14.3,19.3z M11.8,17.4l2.1,1.5c0.1,0,0.2,0.1,0.3,0.1c-0.1,0-0.2-0.1-0.3-0.1l0,0
				L11.8,17.4L11.8,17.4C11.8,17.4,11.8,17.4,11.8,17.4L11.8,17.4z M14.9,18.9c-0.1,0-0.2,0.1-0.3,0.1C14.7,19,14.8,19,14.9,18.9z
				 M14,18.7c0.1,0,0.2,0.1,0.3,0.1c0.2,0,0.7-0.2,1-0.5c0.1-0.1,0.2-0.2,0.2-0.2l-4.7-3.6c-0.1-0.1-0.1-0.2-0.2-0.3
				c0-0.1,0-0.2,0.1-0.3c0.1-0.2,0.4-0.2,0.6-0.1l0.4,0.3c3.2,2.4,4.4,3.4,4.4,3.4c0.1,0,0.7,0.2,1.4-0.4c0.2-0.2,0.4-0.4,0.5-0.5
				c0,0,0-0.1,0-0.2L13.5,13c-0.2-0.1-0.2-0.4-0.1-0.6c0.1-0.1,0.2-0.1,0.3-0.2c0.1,0,0.2,0,0.3,0.1l4.7,3.6c0.1,0,0.3-0.1,1-0.8
				c0.2-0.2,0.2-0.5,0.2-0.8l-0.1,0L19.5,14c0,0-1.5-1.5-2.7-2.4c-1.4-1.2-2.5-2-2.8-2.3c-0.2-0.2-0.7-0.6-1-0.9L12.5,8
				c-0.3,0.1-0.7,0.2-1.1,0.3c0,0,0,0,0,0c0,0-0.1,0.2-0.1,0.2c0,0-0.1,0.1-0.1,0.1c-0.4,0.4-1,0.8-1.8,1.1C8.9,9.9,8.4,10,8,10
				c-0.6,0-1.1-0.1-1.5-0.4C6.3,9.4,6.1,9.2,6,9.1C5.9,9,5.9,9,5.8,8.9C5.8,8.8,5.8,8.7,5.8,8.7c0-0.2,0-0.4,0.2-0.6L6,8
				c0.4-0.7,1.3-1.9,1.9-2.5L8.2,5c0,0,0.1-0.2,0.2-0.2c0.1-0.1,0.2-0.2,0.4-0.3C9,4.4,9.3,4.4,9.6,4.3c0.1,0,0.8-0.2,1.4-0.4
				c-0.4-0.1-0.9-0.2-1.5-0.2c-0.8,0-2.7,1.3-3.9,2.1C5,6.3,4.6,6.6,4.3,6.7L3,13c0.4,0,0.6,0,0.8,0.1c0,0,0.1-0.1,0.1-0.1
				c0.7-0.5,1.2-0.7,1.6-0.7c0.4,0,0.7,0.1,1,0.4c0.1,0.1,0.3,0.3,0.3,0.5C7.5,12.9,8,13,8.4,13.5c0.3,0.3,0.4,0.5,0.5,0.9
				c0.5,0,1,0.2,1.2,0.4c0.3,0.3,0.5,0.7,0.5,1.2c0,0,0.1,0,0.1,0c0.4,0,0.8,0.2,1.1,0.5c0.2,0.2,0.3,0.4,0.3,0.7c0,0.1,0,0.1,0,0.2
				L14,18.7z M15.6,18.4c0,0-0.1,0.1-0.1,0.1c0,0-0.1,0.1-0.1,0.1c0.1,0,0.1-0.1,0.1-0.1C15.6,18.5,15.6,18.5,15.6,18.4z M15.8,18.1
				L15.8,18.1c0,0,0,0.1,0,0.2C15.8,18.2,15.8,18.2,15.8,18.1L15.8,18.1z M17.6,17.5c-0.1,0-0.1,0.1-0.2,0.1
				C17.5,17.6,17.6,17.5,17.6,17.5z M18.3,16.4c0.1,0.1,0.1,0.3,0,0.4c-0.1,0.1-0.1,0.2-0.2,0.3c0.1-0.1,0.2-0.2,0.2-0.3
				C18.3,16.7,18.3,16.5,18.3,16.4z M11.6,16.7c0,0.1,0.1,0.1,0.1,0.2C11.7,16.8,11.7,16.7,11.6,16.7z M9.9,14.9
				C9.9,14.9,9.9,14.9,9.9,14.9c0.4,0.4,0.5,0.8,0.4,1.3c0.1,0,0.3,0,0.4,0c0,0-0.1,0-0.2,0l-0.2,0l0-0.2
				C10.4,15.6,10.2,15.2,9.9,14.9C9.9,14.9,9.9,14.9,9.9,14.9z M10.7,16.1c0.1,0,0.2,0,0.3,0C10.9,16.2,10.8,16.1,10.7,16.1z
				 M8.5,13.9c0.1,0.2,0.2,0.4,0.2,0.7l0,0c0,0,0,0,0,0v0l0.1,0c0,0,0,0,0,0l-0.1,0l0-0.2C8.7,14.3,8.6,14.1,8.5,13.9z M20.2,14
				l-0.1,0L20.2,14L20.2,14L20.2,14z M7.5,13.3c0.3,0,0.5,0.1,0.7,0.3c-0.4-0.4-0.8-0.4-1.3-0.2C7.2,13.4,7.4,13.3,7.5,13.3z
				 M6.5,13.2c0.1,0.1,0.1,0.3,0.1,0.4l0,0c0,0,0.1,0,0.1-0.1l-0.1,0.1l0-0.1C6.6,13.4,6.6,13.3,6.5,13.2z M3.8,13.3
				C3.8,13.4,3.8,13.4,3.8,13.3L3.8,13.3c0.1,0,0.2-0.1,0.2-0.1c0.6-0.5,1.1-0.7,1.5-0.7c-0.4,0-0.9,0.2-1.5,0.7
				c0,0-0.1,0.1-0.1,0.1L3.8,13.3L3.8,13.3C3.8,13.4,3.8,13.3,3.8,13.3z M2.7,13.3L2.7,13.3c0.4,0,0.6,0,0.9,0c-0.2,0-0.4,0-0.7,0
				L2.7,13.3L2.7,13.3z M5.5,12.6c0.3,0,0.6,0.1,0.8,0.3c0,0,0,0,0,0c0,0,0,0,0,0C6.1,12.7,5.8,12.6,5.5,12.6z M14.3,9.2
				c0.3,0.3,0.9,0.8,1.7,1.4C15.1,9.9,14.5,9.4,14.3,9.2z M9.1,9.5C8.7,9.7,8.4,9.7,8,9.7C8.4,9.7,8.7,9.7,9.1,9.5z M7,9.6
				c0.3,0.1,0.6,0.2,1,0.2C7.6,9.7,7.3,9.7,7,9.6z M10.9,8.4c-0.4,0.4-1,0.7-1.7,1C10,9.2,10.5,8.8,10.9,8.4z M13.7,8.6
				C13.9,8.8,14,8.9,14.1,9C14,8.9,13.9,8.8,13.7,8.6z M8,5.7C7.5,6.4,6.6,7.5,6.2,8.1l0,0.1c0,0,0,0,0,0.1c0,0,0,0,0-0.1l0-0.1
				C6.6,7.5,7.5,6.3,8,5.7z M12.6,7.7L13,8.1L12.6,7.7c-0.2,0.1-0.4,0.1-0.7,0.2C12.1,7.8,12.3,7.7,12.6,7.7L12.6,7.7z M9.6,3.5
				c-0.9,0-2.7,1.2-4,2.1C5.3,5.8,5.1,5.9,4.9,6.1c0.2-0.1,0.4-0.3,0.7-0.5C6.8,4.8,8.7,3.5,9.6,3.5z M8.4,5.2
				C8.4,5.2,8.4,5.2,8.4,5.2L8.2,5.4L8.4,5.2C8.4,5.2,8.4,5.2,8.4,5.2z M9,4.7C9,4.7,8.9,4.7,9,4.7C8.8,4.8,8.8,4.8,8.7,4.8
				C8.8,4.8,8.8,4.8,9,4.7C8.9,4.7,9,4.7,9,4.7z M10.5,4.3c-0.4,0.1-0.8,0.2-0.9,0.2c-0.1,0-0.2,0-0.2,0c0.1,0,0.1,0,0.2,0
				C9.7,4.5,10.1,4.4,10.5,4.3z"/>
		</g>
	</g>
	<g>
		<g>
			<path class="st0" d="M19.9,13.8L19.9,13.8c-0.1-0.1-1.8-1.8-2.8-2.6c-1.3-1.1-2.5-2-2.7-2.3C14.3,8.9,14,8.6,13,7.7l-0.1-0.1
				l0.1-0.1c0,0,0-0.1,0.1-0.3c-0.2,0.1-0.3,0.1-0.4,0.2c-0.5,0.2-1.2,0.4-1.5,0.4l-0.1,0c0,0,0,0.1,0,0.1C11,8,11,8,10.9,8.1
				c0,0-0.1,0.1-0.1,0.1c-0.2,0.2-0.7,0.6-1.7,1C8.7,9.4,8.4,9.5,8,9.5c-0.4,0-0.9-0.1-1.2-0.3C6.6,9.1,6.5,8.9,6.4,8.8
				c0,0-0.1-0.1-0.1-0.1l0.1-0.1l0,0l-0.1,0V8.5l0,0c0-0.1,0.1-0.2,0.1-0.3v0l0,0c0.4-0.7,1.5-2,1.8-2.4l0,0
				c0.1-0.2,0.5-0.6,0.5-0.6l0,0C9,4.9,9.2,4.9,9.7,4.8c0.1,0,0.3-0.1,0.4-0.1c0.1,0,0.5-0.1,0.9-0.2c0.4-0.1,0.9-0.2,1.4-0.4l0,0
				C12.8,4,13,3.9,13.2,3.9c0.4-0.1,0.8-0.3,1.4-0.2c0.6,0,2.2,1.1,3.7,2.2C18.6,6.1,19,6.4,19,6.4l0,0c0,0,0,0,0.1,0l0.1,0l1.1,7.4
				L19.9,13.8z M13.2,7.6c0.8,0.6,1.2,1.1,1.3,1.2c0.3,0.3,1.6,1.4,2.7,2.3c0.9,0.7,2.5,2.2,2.8,2.5l0.1,0l-1.1-6.9
				c-0.1,0-0.1,0-0.1,0c-0.1,0-0.3-0.2-0.8-0.6c-1-0.7-3-2.1-3.6-2.2c-0.6,0-0.9,0.1-1.3,0.2c-0.2,0.1-0.4,0.1-0.7,0.2l0,0
				c-0.5,0.1-1,0.3-1.4,0.4c-0.4,0.1-0.8,0.2-0.9,0.2C10,5,9.9,5,9.8,5C9.4,5.1,9.1,5.2,9,5.2l0,0C8.9,5.3,8.4,5.9,8.4,5.9l0,0
				C8,6.4,7.1,7.6,6.7,8.2L6.6,8.3C6.6,8.5,6.5,8.5,6.5,8.6c0,0,0,0,0.1,0.1C6.7,8.7,6.8,8.9,6.9,9C7.2,9.2,7.7,9.2,8,9.2
				c0.3,0,0.7-0.1,1-0.2c0.9-0.4,1.3-0.7,1.6-0.9c0,0,0.1-0.1,0.1-0.1c0.1-0.1,0.1-0.1,0.1-0.2c0,0,0-0.1,0-0.1l0-0.1h0.2
				c0.3-0.1,1-0.3,1.4-0.4c0.2-0.1,0.7-0.3,0.7-0.3l0.3-0.1L13.4,7C13.3,7.3,13.2,7.5,13.2,7.6z"/>
			<path class="st0" d="M19.9,14L19.9,14c-0.1-0.1-1.9-1.9-2.9-2.7c-1.3-1.1-2.5-2-2.8-2.3c-0.1-0.1-0.3-0.3-1.3-1.2l-0.2-0.2
				l0.1-0.1c-0.1,0-0.1,0-0.2,0.1c-0.5,0.2-1.2,0.4-1.5,0.4c0,0.1-0.1,0.2-0.2,0.2c0,0-0.1,0.1-0.1,0.1c-0.3,0.3-0.8,0.6-1.7,1
				C8.8,9.5,8.4,9.6,8,9.6c-0.4,0-0.9-0.1-1.3-0.3C6.5,9.2,6.4,9,6.3,8.9l0,0c0,0,0,0,0-0.1L6.1,8.7h0V8.4l0,0
				c0-0.1,0.1-0.1,0.1-0.2v0l0-0.1c0.4-0.7,1.5-2.1,1.8-2.5l0-0.1C8.3,5.5,8.7,5,8.7,5l0,0c0.2-0.1,0.5-0.2,1-0.3l0,0
				c0.1,0,0.2-0.1,0.4-0.1c0.1,0,0.4-0.1,0.8-0.2l0.1,0c0.4-0.1,0.9-0.2,1.4-0.4c0.3-0.1,0.5-0.1,0.7-0.2c0.4-0.1,0.8-0.3,1.4-0.2
				c0.6,0,2.2,1.1,3.8,2.2c0.3,0.2,0.7,0.5,0.8,0.5c0,0,0.1,0,0.1,0l0.2,0l1.2,7.6L19.9,14z M20.3,13.6L20,13.7L20.3,13.6z
				 M13.3,7.5c0.5,0.4,1.1,1,1.3,1.2c0.3,0.3,1.7,1.4,2.7,2.2c0.8,0.7,2.2,2,2.6,2.4l-1-6.6c0,0,0,0-0.1,0c-0.1,0-0.3-0.2-0.9-0.6
				c-1-0.7-3-2.1-3.5-2.1c-0.5,0-0.8,0-1.2,0.2c-0.2,0.1-0.4,0.1-0.7,0.2c-0.5,0.1-1,0.3-1.4,0.4l-0.1,0C10.7,4.9,10.3,5,10.2,5
				c-0.1,0-0.3,0.1-0.4,0.1c-0.2,0-0.7,0.1-0.7,0.2C9,5.4,8.5,6,8.5,6l0,0C8.2,6.4,7.2,7.6,6.8,8.3L6.7,8.4c0,0.1-0.1,0.1-0.1,0.1
				c0,0,0,0,0,0C6.7,8.7,6.9,8.8,7,8.9c0.3,0.2,0.7,0.2,1,0.2c0.3,0,0.6-0.1,1-0.2c0.9-0.4,1.3-0.7,1.5-0.9c0,0,0.1-0.1,0.1-0.1
				c0.1-0.1,0.1-0.1,0.1-0.1c0,0,0-0.1,0-0.1l0.1-0.2h0.3c0.3-0.1,1-0.2,1.4-0.4c0.2-0.1,0.6-0.3,0.7-0.3l0.5-0.2l-0.2,0.6
				C13.4,7.3,13.4,7.4,13.3,7.5z M17,11c0.1,0.1,0.1,0.1,0.2,0.2c0.1,0.1,0.2,0.2,0.3,0.3c-0.1-0.1-0.2-0.2-0.3-0.3
				C17.1,11.1,17,11,17,11z M19.1,6.5l0.1,0l0.7,4.8l-0.7-4.8C19.2,6.5,19.1,6.5,19.1,6.5z M14.4,8.8C14.4,8.8,14.4,8.8,14.4,8.8
				c0.2,0.2,0.4,0.4,0.7,0.6C14.8,9.2,14.6,9,14.4,8.8C14.4,8.8,14.4,8.8,14.4,8.8z M6.8,9.1C6.8,9.1,6.8,9.1,6.8,9.1
				C7.2,9.3,7.7,9.4,8,9.4C7.7,9.4,7.2,9.3,6.8,9.1C6.8,9.1,6.8,9.1,6.8,9.1z M10.7,8.2c-0.2,0.2-0.5,0.4-0.9,0.7
				C10.2,8.6,10.5,8.3,10.7,8.2C10.7,8.2,10.7,8.2,10.7,8.2z M6.5,8.3L6.5,8.3C6.4,8.4,6.4,8.4,6.4,8.5C6.4,8.4,6.5,8.4,6.5,8.3
				l0.1-0.1C6.7,8,6.8,7.9,6.9,7.7C6.7,7.9,6.6,8.1,6.5,8.3L6.5,8.3z M12.2,7.4c-0.4,0.1-0.8,0.2-1.1,0.3l0,0l0,0
				C11.3,7.7,11.8,7.6,12.2,7.4z M13.2,7.2l0,0.1c0,0,0,0,0,0C13.2,7.3,13.2,7.2,13.2,7.2z M13.3,7c-0.1,0-0.4,0.2-0.6,0.3
				c0.1,0,0.2-0.1,0.3-0.1L13.3,7L13.3,7z M15.7,4.3c0.7,0.4,1.6,1,2.5,1.6c0.3,0.2,0.5,0.4,0.6,0.5c-0.1-0.1-0.3-0.2-0.6-0.5
				C17.5,5.5,16.5,4.8,15.7,4.3z M8.3,5.8L8.3,5.8C8.3,5.9,8.2,6,8.1,6.1C8.2,6,8.2,6,8.3,5.8L8.3,5.8C8.3,5.8,8.3,5.8,8.3,5.8z
				 M8.9,5.2L8.9,5.2c0,0-0.1,0.1-0.2,0.2C8.8,5.3,8.9,5.2,8.9,5.2z M9,5.1C9,5.1,8.9,5.1,9,5.1L9,5.1C8.9,5.1,9,5.1,9,5.1z
				 M10.2,4.8c0,0-0.1,0-0.1,0c-0.1,0-0.2,0-0.3,0.1c0.1,0,0.2,0,0.3-0.1C10.2,4.8,10.2,4.8,10.2,4.8z M11.7,4.4
				c-0.2,0.1-0.4,0.1-0.6,0.2l-0.1,0c-0.1,0-0.2,0.1-0.3,0.1c0.1,0,0.2-0.1,0.3-0.1l0,0C11.2,4.5,11.5,4.5,11.7,4.4z M14.4,3.8
				c0,0,0.1,0,0.1,0c0,0,0,0,0.1,0c0,0,0,0-0.1,0C14.5,3.8,14.5,3.8,14.4,3.8z"/>
		</g>
	</g>
	<g>
		<g>
			<path class="st0" d="M20.6,13.9l-1.3-8.7l2.1-0.3l1.3,8.7L20.6,13.9z M19.5,5.5l1.2,8.2l1.6-0.2l-1.2-8.2L19.5,5.5z"/>
			<path class="st0" d="M20.4,14.1l-1.4-8.9l2.3-0.4l1.4,8.9L20.4,14.1z M19.7,5.6l1.2,7.9l1.3-0.2L21,5.4L19.7,5.6z"/>
		</g>
	</g>
	<g>
		<g>
			<path class="st0" d="M23.1,16L21.3,4.3l3.6-0.6l1.8,11.7L23.1,16z M21.6,4.5l1.7,11.2l3.1-0.5l-0.1-0.5c-0.1,0.2-0.2,0.4-0.4,0.4
				c-0.2,0.1-0.3,0.1-0.5,0c-0.2-0.1-0.3-0.2-0.3-0.4c-0.1-0.2-0.1-0.3,0-0.5s0.2-0.3,0.4-0.3c0.3-0.1,0.6,0,0.8,0.3L24.7,4.1
				L21.6,4.5z M25.7,14.2c0,0-0.1,0-0.1,0c-0.1,0-0.2,0.1-0.2,0.2c0,0.1,0,0.2,0,0.3c0,0.1,0.1,0.2,0.2,0.2c0.1,0,0.2,0,0.3,0l0,0
				c0.2-0.1,0.3-0.3,0.2-0.5c0-0.1-0.1-0.2-0.2-0.2C25.9,14.2,25.8,14.2,25.7,14.2z M24.4,15.4c-0.1,0-0.2,0-0.3-0.1
				c-0.2-0.1-0.3-0.2-0.3-0.4c-0.1-0.2-0.1-0.3,0-0.5c0.1-0.2,0.2-0.3,0.4-0.3c0.2-0.1,0.3-0.1,0.5,0c0.2,0.1,0.3,0.2,0.3,0.4
				c0.1,0.3,0,0.7-0.4,0.8C24.5,15.4,24.4,15.4,24.4,15.4z M24.4,14.4c0,0-0.1,0-0.1,0c-0.1,0-0.2,0.1-0.2,0.2c0,0.1,0,0.2,0,0.3
				c0,0.1,0.1,0.2,0.2,0.2c0.1,0,0.2,0,0.3,0l0,0c0.2-0.1,0.3-0.3,0.2-0.5c0-0.1-0.1-0.2-0.2-0.2C24.5,14.4,24.4,14.4,24.4,14.4z"/>
			<path class="st0" d="M23,16.2l-1.8-12L25,3.6l1.8,12L23,16.2z M21.7,4.6l1.7,11l0.7-0.1c0,0,0,0,0,0c-0.2-0.1-0.3-0.2-0.4-0.4
				c-0.1-0.2-0.1-0.4,0-0.6c0.1-0.2,0.2-0.3,0.4-0.4c0.2-0.1,0.4-0.1,0.6,0c0.1,0.1,0.2,0.2,0.3,0.3c0,0,0-0.1,0-0.1
				c0.1-0.2,0.2-0.3,0.4-0.4c0.2-0.1,0.4-0.1,0.6,0l-1.5-9.7L21.7,4.6z M25.1,15c0,0.1-0.1,0.3-0.3,0.4l0.6-0.1
				C25.3,15.2,25.2,15.1,25.1,15z M24.2,15.3c0.1,0,0.2,0,0.4,0c0,0,0.1,0,0.1,0c0,0,0,0-0.1,0C24.4,15.3,24.3,15.3,24.2,15.3z
				 M25.5,15.1c0.1,0.1,0.3,0.1,0.4,0c0,0,0,0,0.1,0c0,0,0,0-0.1,0C25.8,15.1,25.7,15.1,25.5,15.1z M23.9,14.6c0,0.1-0.1,0.3,0,0.4
				c0,0.1,0.1,0.1,0.1,0.1c0,0-0.1-0.1-0.1-0.1C23.8,14.8,23.8,14.7,23.9,14.6z M24.4,14.5C24.3,14.5,24.3,14.5,24.4,14.5
				c-0.2,0-0.2,0.1-0.2,0.2c0,0.1,0,0.1,0,0.2c0,0.1,0.1,0.1,0.1,0.1c0.1,0,0.1,0,0.2,0c0.1,0,0.1-0.1,0.1-0.1c0-0.1,0-0.1,0-0.2
				c0-0.1-0.1-0.1-0.1-0.1C24.4,14.5,24.4,14.5,24.4,14.5z M25.3,14.4c0,0.1-0.1,0.3,0,0.4c0,0.1,0.1,0.1,0.1,0.2
				c0,0-0.1-0.1-0.1-0.2C25.2,14.7,25.2,14.5,25.3,14.4z M25.7,14.3C25.7,14.3,25.7,14.3,25.7,14.3c-0.2,0-0.2,0.1-0.2,0.2
				c0,0.1,0,0.1,0,0.2c0,0.1,0.1,0.1,0.1,0.1c0.1,0,0.1,0,0.2,0c0.1,0,0.1-0.1,0.1-0.1c0-0.1,0-0.1,0-0.2c0-0.1-0.1-0.1-0.1-0.1
				C25.8,14.3,25.8,14.3,25.7,14.3z M24.8,14.4c0,0,0.1,0.1,0.1,0.2c0,0,0,0.1,0,0.1c0,0,0-0.1,0-0.1C24.8,14.5,24.8,14.5,24.8,14.4
				z M26.2,14.3C26.2,14.4,26.2,14.4,26.2,14.3c0.1,0.2,0.1,0.3,0.1,0.4l0.1-0.2L26.2,14.3z M24.3,14.3
				C24.2,14.3,24.2,14.3,24.3,14.3c-0.1,0-0.2,0.1-0.2,0.1C24.1,14.3,24.1,14.3,24.3,14.3C24.2,14.3,24.2,14.3,24.3,14.3z
				 M25.6,14.1C25.6,14.1,25.6,14.1,25.6,14.1c-0.1,0-0.2,0.1-0.2,0.1C25.4,14.2,25.5,14.1,25.6,14.1C25.6,14.1,25.6,14.1,25.6,14.1
				z M24.8,3.9L24.1,4L24.8,3.9z"/>
		</g>
	</g>
	<g>
		<g>
			<path class="st0" d="M2.2,14.2l-2-0.4L2,5.2l2,0.4L2.2,14.2z M0.5,13.5L2,13.9l1.7-8.1L2.2,5.5L0.5,13.5z"/>
			<path class="st0" d="M2.3,14.3L0,13.8L1.9,5l2.3,0.5L2.3,14.3z M0.3,13.6L2.1,14l1.8-8.3L2.1,14L0.3,13.6l1.8-8.3l1.7,0.4
				L2.1,5.3L0.3,13.6z M0.6,13.4l1.3,0.3l1.7-7.8L2.3,5.6L0.6,13.4z"/>
		</g>
	</g>
	<g>
		<g>
			<path class="st0" d="M-0.4,16.1l-3.3-0.7l1.8-11.7l4,0.9l0,0.1L-0.4,16.1z M-3.4,15.2l2.8,0.6L1.8,4.7L-1.7,4l-1.6,10.3
				C-3.2,14.1-3,14-2.7,14c0.4,0,0.6,0.3,0.6,0.6c0,0.4-0.3,0.6-0.6,0.6c-0.3,0-0.6-0.2-0.6-0.5L-3.4,15.2z M-2.7,14.2
				c-0.2,0-0.4,0.2-0.4,0.4c0,0.2,0.2,0.4,0.4,0.4c0.2,0,0.4-0.2,0.4-0.4C-2.3,14.4-2.5,14.2-2.7,14.2z M-1.4,15.6
				c-0.4,0-0.6-0.3-0.6-0.6c0-0.4,0.3-0.6,0.6-0.6c0.4,0,0.6,0.3,0.6,0.6C-0.7,15.3-1,15.6-1.4,15.6z M-1.4,14.5
				c-0.2,0-0.4,0.2-0.4,0.4c0,0.2,0.2,0.4,0.4,0.4c0.2,0,0.4-0.2,0.4-0.4C-1,14.7-1.2,14.5-1.4,14.5z"/>
			<path class="st0" d="M-0.3,16.3l-3.5-0.8l1.8-12l4.3,0.9L-0.3,16.3z M-1.5,15.8l0.9,0.2l0.6-3l-0.6,3L-1.5,15.8z M-1,15.6
				l0.3,0.1L1.6,4.8l-3.2-0.7l-1.5,9.8c0.1-0.1,0.2-0.1,0.4-0.1c0.4,0,0.7,0.3,0.8,0.6c0.1-0.2,0.4-0.3,0.6-0.3
				c0.4,0,0.8,0.3,0.8,0.8C-0.6,15.2-0.8,15.5-1,15.6z M-1.9,14.9c0,0.3,0.2,0.5,0.5,0.5s0.5-0.2,0.5-0.5c0,0.3-0.2,0.5-0.5,0.5
				S-1.9,15.2-1.9,14.9z M-2.4,15.3l0.4,0.1c-0.1-0.1-0.1-0.2-0.2-0.3C-2.2,15.2-2.3,15.3-2.4,15.3z M-1.4,14.7
				c-0.1,0-0.3,0.1-0.3,0.3c0,0.1,0.1,0.3,0.3,0.3s0.3-0.1,0.3-0.3C-1.1,14.8-1.2,14.7-1.4,14.7z M-2.7,15.1
				C-2.7,15.1-2.7,15.1-2.7,15.1c0.3,0,0.5-0.2,0.5-0.5C-2.2,14.9-2.4,15.1-2.7,15.1C-2.7,15.1-2.7,15.1-2.7,15.1z M-2.7,14.3
				c-0.1,0-0.3,0.1-0.3,0.3c0,0.1,0.1,0.3,0.3,0.3c0.1,0,0.3-0.1,0.3-0.3C-2.5,14.5-2.6,14.3-2.7,14.3z M-3.3,14.5l0,0.2
				C-3.2,14.7-3.2,14.6-3.3,14.5c0-0.2,0.2-0.4,0.5-0.4c-0.2,0-0.4,0.1-0.5,0.3L-3.3,14.5z M-1.8,3.8l3.7,0.8L-1.8,3.8z"/>
		</g>
	</g>
	<g>
		<g>
			<path class="st0" d="M4.1,15.9L4,15.8c-0.3-0.1-0.5-0.3-0.6-0.5c-0.3-0.7,0.6-1.7,0.8-1.8l0,0c1-0.7,1.6-0.8,2-0.3
				c0.2,0.2,0.3,0.5,0.3,0.7l0,0.1l-2.3,1.9V15.9z M5.5,13.1c-0.3,0-0.6,0.1-1.2,0.6l0,0c-0.2,0.1-0.9,1-0.7,1.5
				c0.1,0.2,0.2,0.3,0.4,0.4l2.3-1.8c0-0.2-0.1-0.3-0.2-0.5C5.9,13.1,5.7,13.1,5.5,13.1z"/>
			<path class="st0" d="M4.3,16l-0.3-0.1c-0.3-0.1-0.5-0.3-0.7-0.6c-0.4-0.8,0.6-1.8,0.8-2l0,0c1-0.7,1.7-0.8,2.2-0.3
				c0.2,0.3,0.4,0.5,0.3,0.8l0,0.1l-2.3,1.9V16z M4,15.7C4,15.7,4,15.7,4,15.7L4,15.7l0.5-0.4L4,15.7z M5.5,13.2
				c-0.3,0-0.7,0.2-1.2,0.5l0,0c-0.2,0.1-0.8,1-0.6,1.3c0.1,0.1,0.2,0.2,0.3,0.3l2.1-1.7c0-0.1-0.1-0.2-0.2-0.3
				C5.8,13.2,5.7,13.2,5.5,13.2z M6.1,13.2c0.1,0.2,0.2,0.3,0.2,0.5C6.3,13.6,6.3,13.4,6.1,13.2z M5.5,12.9c0.3,0,0.4,0.1,0.5,0.2
				c0,0,0,0,0,0c0,0,0,0,0,0c-0.2-0.2-0.5-0.3-1-0.2C5.3,13,5.4,12.9,5.5,12.9z"/>
		</g>
	</g>
	<g>
		<g>
			<path class="st0" d="M5.3,17.4L5.3,17.4c-0.3-0.1-0.7-0.3-0.9-0.5c-0.2-0.3-0.2-0.7-0.2-0.9c0,0,0-0.1,0-0.1v-0.1l2.4-1.9
				c0,0,0.1,0,0.1-0.1c0.5-0.3,1-0.4,1.4,0c0.3,0.3,0.4,0.7,0.2,1.1l0,0l0,0C8.1,15.2,7.5,15.6,7,16h0L5.3,17.4z M4.5,15.9
				C4.5,15.9,4.5,15.9,4.5,15.9c0,0.2,0,0.6,0.2,0.8c0.1,0.2,0.4,0.3,0.6,0.4l1.6-1.2c0.5-0.4,1-0.8,1.3-1c0.1-0.3,0.1-0.6-0.2-0.8
				c-0.2-0.2-0.5-0.3-1.1,0c0,0-0.1,0-0.1,0.1L4.5,15.9z"/>
			<path class="st0" d="M5.4,17.5l-0.1,0c-0.3-0.1-0.6-0.3-0.9-0.5c-0.2-0.3-0.3-0.7-0.3-1c0,0,0-0.1,0-0.1v-0.1l2.5-1.9
				c0.1,0,0.1-0.1,0.1-0.1c0.6-0.3,1-0.4,1.5,0c0.4,0.4,0.5,0.8,0.3,1.3l0,0.1l0,0c-0.2,0.2-0.8,0.6-1.3,1.1L5.4,17.5z M5.3,17.2
				l1.6-1.3c0.4-0.3,0.9-0.7,1.1-0.9c-0.3,0.2-0.7,0.6-1.1,0.9L5.3,17.2z M4.6,16c0,0.2,0,0.5,0.2,0.6c0.1,0.1,0.3,0.2,0.5,0.3
				l1.5-1.2c0.5-0.4,1-0.8,1.2-1c0.1-0.3,0-0.4-0.2-0.7c-0.2-0.2-0.3-0.3-0.9,0.1c0,0-0.1,0-0.1,0.1L4.6,16z M4.4,15.9
				C4.4,15.9,4.4,15.9,4.4,15.9c0,0.2,0,0.6,0.2,0.8C4.4,16.5,4.3,16.2,4.4,15.9L4.4,15.9z M8,13.9C8.1,14,8.2,14,8.2,14.1
				C8.2,14,8.1,14,8,13.9z M7.5,13.7c-0.2,0-0.4,0.1-0.6,0.2c0.3-0.2,0.6-0.2,0.8-0.1C7.7,13.7,7.6,13.7,7.5,13.7z"/>
		</g>
	</g>
	<g>
		<g>
			<path class="st0" d="M7.1,19L7.1,19c-0.6-0.2-0.9-0.4-1.1-0.5c-0.1-0.1-0.3-0.4-0.4-0.9l-0.1-0.2l1.6-1.2c0.5-0.4,1.3-1,1.4-1.1
				l0,0l0,0c0.1-0.1,0.2-0.1,0.3-0.1l0,0c0.4-0.1,0.8,0.1,0.9,0.2c0.3,0.3,0.4,0.7,0.3,1.2l0,0c0,0,0,0,0,0.1l0,0c0,0,0,0,0,0l0,0.1
				h0c0,0,0,0-0.1,0.1c-0.1,0.1-0.2,0.2-0.4,0.3l0,0C9.3,17,8,18.2,7.2,18.8L7.1,19z M5.8,17.4L5.8,17.4c0.2,0.4,0.3,0.7,0.4,0.8
				c0.1,0.1,0.4,0.3,0.8,0.4l0,0c0.8-0.7,2.1-1.9,2.3-2.1l0,0c0.1-0.1,0.3-0.2,0.4-0.3h0v-0.1l0,0c0.1-0.4,0-0.7-0.2-0.9
				c0,0-0.4-0.3-0.7-0.2l0,0c-0.1,0-0.1,0.1-0.2,0.1c-0.1,0.1-0.4,0.3-1.4,1.1L5.8,17.4z"/>
			<path class="st0" d="M7.1,19.1l-0.1,0c-0.6-0.2-0.9-0.4-1.1-0.6c-0.1-0.2-0.3-0.5-0.4-0.9l-0.1-0.3L7,16c0.5-0.4,1.2-1,1.4-1.1
				l0,0l0.1-0.1c0.1-0.1,0.2-0.1,0.3-0.1l0,0c0.4-0.1,0.9,0.1,1.1,0.3c0.4,0.4,0.5,0.8,0.3,1.3l0,0c0,0,0,0.1,0,0.1l-0.1,0.2H10
				c0,0,0,0-0.1,0c-0.1,0.1-0.2,0.2-0.3,0.3l0,0c-0.2,0.2-1.4,1.2-2.3,2.1L7.1,19.1z M6.6,18.6c0.1,0,0.3,0.1,0.4,0.2l0,0
				C6.8,18.7,6.7,18.7,6.6,18.6z M6,17.5c0.2,0.5,0.3,0.7,0.3,0.7c0,0,0.2,0.2,0.7,0.3c0.8-0.7,2.1-1.9,2.3-2l0,0
				c0.1-0.1,0.2-0.2,0.4-0.3v-0.1l0.1,0c0.1-0.3,0-0.5-0.2-0.7c-0.1,0-0.4-0.2-0.6-0.1l0,0c-0.1,0-0.1,0-0.2,0.1
				c-0.1,0.1-0.3,0.3-1.4,1.1L6,17.5z M9.6,16.6c0,0-0.1,0.1-0.1,0.1l0,0c-0.2,0.1-1,0.9-1.7,1.5c0.8-0.7,1.6-1.4,1.7-1.5l0,0
				C9.5,16.6,9.5,16.6,9.6,16.6z M5.7,17.4l0,0.1C5.8,17.8,5.9,18,6,18.1c-0.1-0.2-0.2-0.4-0.3-0.6L5.7,17.4l1.5-1.2
				c0.6-0.5,0.9-0.8,1.2-0.9C8,15.5,7.5,16,7.2,16.2L5.7,17.4z M9.6,15.1c0.1,0,0.1,0.1,0.1,0.1c0.3,0.3,0.4,0.6,0.3,1
				c0.1-0.4,0-0.7-0.3-1C9.7,15.1,9.6,15.1,9.6,15.1z"/>
		</g>
	</g>
</g>
</svg>
