<?xml version="1.0" encoding="utf-8"?>
<!-- Generator: Adobe Illustrator 16.0.0, SVG Export Plug-In . SVG Version: 6.00 Build 0)  -->
<!DOCTYPE svg PUBLIC "-//W3C//DTD SVG 1.1//EN" "http://www.w3.org/Graphics/SVG/1.1/DTD/svg11.dtd">
<svg version="1.1" id="Слой_1" xmlns="http://www.w3.org/2000/svg" xmlns:xlink="http://www.w3.org/1999/xlink" x="0px" y="0px"
	 width="25px" height="25.8px" viewBox="0 0 25 25.8" style="enable-background:new 0 0 25 25.8;" xml:space="preserve">
<style type="text/css">
<![CDATA[
	.st0{fill:#FFFFFF;stroke:#FFFFFF;stroke-width:0.3;stroke-miterlimit:10;}
]]>
</style>
<g>
	<path class="st0" d="M25,18.9l-3-10.6c0-0.1-0.1-0.2-0.2-0.2c-0.1-0.1-0.2,0-0.2,0l-3,1.7c-0.2,0.1-0.2,0.3-0.2,0.4
		c0.1,0.2,0.3,0.2,0.4,0.2l2.7-1.5l2.9,10l-4.9,3l-1.1-9.1c0-0.2-0.2-0.3-0.3-0.2c-0.2,0-0.3,0.2-0.2,0.3l1.1,9.3l-6-1.7v-1.6
		c0-0.2-0.2-0.3-0.3-0.3c-0.2,0-0.3,0.2-0.3,0.3v1.7l-6,1.7l1.1-9.3c0-0.2-0.1-0.3-0.2-0.3s-0.3,0.1-0.3,0.2L5.8,22l-4.9-3L3.6,8.8
		l2.7,1.5c0.2,0.1,0.3,0,0.4-0.2c0.1-0.2,0-0.3-0.2-0.4l-3-1.7c-0.1-0.1-0.2-0.1-0.2,0S3,8.2,3,8.4L0,19c0,0.2,0,0.3,0.2,0.4
		l5.5,3.3l0,0c0.1,0,0.1,0.1,0.2,0.1l0,0l0,0l0,0h0.1l6.6-1.8l6.6,1.8h0.1l0,0l0,0l0,0c0.1,0,0.1,0,0.2-0.1l0,0l5.5-3.3
		C25,19.2,25,19.1,25,18.9z"/>
	<path class="st0" d="M12.3,17.4c0.1,0.1,0.2,0.1,0.2,0.1c0.1,0,0.2,0,0.2-0.1c0.2-0.2,4.9-4.6,4.9-9c0-2.9-2.3-5.2-5.2-5.2
		c-2.9,0-5.2,2.3-5.2,5.2C7.4,12.8,12.1,17.3,12.3,17.4z M12.5,3.8c2.6,0,4.6,2,4.6,4.6c0,3.7-3.6,7.5-4.6,8.4C11.6,15.9,8,12,8,8.4
		C8,5.8,9.9,3.8,12.5,3.8z"/>
</g>
</svg>
