<?xml version="1.0" encoding="utf-8"?>
<!-- Generator: Adobe Illustrator 16.0.0, SVG Export Plug-In . SVG Version: 6.00 Build 0)  -->
<!DOCTYPE svg PUBLIC "-//W3C//DTD SVG 1.1//EN" "http://www.w3.org/Graphics/SVG/1.1/DTD/svg11.dtd">
<svg version="1.1" id="Слой_1" xmlns="http://www.w3.org/2000/svg" xmlns:xlink="http://www.w3.org/1999/xlink" x="0px" y="0px"
	 width="22.6px" height="22.6px" viewBox="11.2 11.2 22.6 22.6" style="enable-background:new 11.2 11.2 22.6 22.6;"
	 xml:space="preserve">
<style type="text/css">
<![CDATA[
	.st0{fill:#FFFFFF;}
]]>
</style>
<g>
	<g>
		<path class="st0" d="M22.5,33.8c-3,0-5.8-1.2-8-3.3c-2.1-2.1-3.3-5-3.3-8s1.2-5.8,3.3-8c2.1-2.1,5-3.3,8-3.3s5.8,1.2,8,3.3
			c4.4,4.4,4.4,11.6,0,15.9C28.3,32.6,25.5,33.8,22.5,33.8L22.5,33.8z M22.5,12.2c-2.7,0-5.3,1.1-7.3,3c-1.9,1.9-3,4.5-3,7.3
			s1.1,5.3,3,7.3c1.9,1.9,4.5,3,7.3,3c2.7,0,5.3-1.1,7.3-3c4-4,4-10.5,0-14.5C27.8,13.3,25.2,12.2,22.5,12.2L22.5,12.2z"/>
	</g>
	<g>
		<path class="st0" d="M22.5,29.8c-1.9,0-3.8-0.8-5.1-2.1c-1.4-1.4-2.1-3.2-2.1-5.1c0-0.3,0.2-0.5,0.5-0.5l0,0
			c0.3,0,0.5,0.2,0.5,0.5c0,1.7,0.7,3.3,1.8,4.4c1.2,1.2,2.8,1.8,4.4,1.8c3.5,0,6.3-2.8,6.3-6.3c0-0.3,0.2-0.5,0.5-0.5
			s0.5,0.2,0.5,0.5C29.8,26.5,26.5,29.8,22.5,29.8L22.5,29.8z"/>
	</g>
	<g>
		<path class="st0" d="M19.1,20.6c0.3,0,0.5,0.2,0.5,0.5c0,0.3-0.2,0.5-0.5,0.5c-0.3,0-0.5-0.2-0.5-0.5
			C18.6,20.8,18.8,20.6,19.1,20.6 M19.1,19.6c-0.8,0-1.5,0.7-1.5,1.5c0,0.8,0.7,1.5,1.5,1.5c0.8,0,1.5-0.7,1.5-1.5
			C20.6,20.3,19.9,19.6,19.1,19.6L19.1,19.6z"/>
		<path class="st0" d="M25.9,20.6c0.3,0,0.5,0.2,0.5,0.5c0,0.3-0.2,0.5-0.5,0.5c-0.3,0-0.5-0.2-0.5-0.5
			C25.4,20.8,25.6,20.6,25.9,20.6 M25.9,19.6c-0.8,0-1.5,0.7-1.5,1.5c0,0.8,0.7,1.5,1.5,1.5c0.8,0,1.5-0.7,1.5-1.5
			C27.4,20.3,26.7,19.6,25.9,19.6L25.9,19.6z"/>
	</g>
</g>
</svg>
