<?xml version="1.0" encoding="utf-8"?>
<!-- Generator: Adobe Illustrator 16.0.0, SVG Export Plug-In . SVG Version: 6.00 Build 0)  -->
<!DOCTYPE svg PUBLIC "-//W3C//DTD SVG 1.1//EN" "http://www.w3.org/Graphics/SVG/1.1/DTD/svg11.dtd">
<svg version="1.1" id="Слой_1" xmlns="http://www.w3.org/2000/svg" xmlns:xlink="http://www.w3.org/1999/xlink" x="0px" y="0px"
	 width="25.1px" height="27px" viewBox="0 0 25.1 27" style="enable-background:new 0 0 25.1 27;" xml:space="preserve">
<style type="text/css">
<![CDATA[
	.st0{fill:#FFFFFF;stroke:#FFFFFF;stroke-width:0.2;stroke-miterlimit:10;}
]]>
</style>
<g>
	<path class="st0" d="M4.5,10l-0.4,0.2L3.4,7.8l0.3-0.1l1.5,1.1L4.9,7.4l0.4-0.2L6,9.6L5.8,9.6l0,0L4,8.4L4.5,10z M8.2,8.9L8,8.4
		L6.7,8.9L6.5,8.3l1.3-0.4L7.7,7.5L6.4,7.9L6.3,7.4L7.6,7L7.4,6.5L5.7,7.1c0.3,0.8,0.5,1.5,0.7,2.3L8.2,8.9z M9.6,8.4l0.1-0.8V6.9
		l0.5,0.7l0.5,0.6l0.3-0.1l0.1-2.6l-0.5,0.2v1.8L9.5,6H9.3v1.9l-1-1.5L7.7,6.5l1.5,2.1L9.6,8.4z M12.7,6.4c0.3-0.1,0.6-0.1,0.6,0.2
		c0.1,0.3-0.2,0.4-0.4,0.5c-0.3,0.1-0.6,0.1-0.8-0.2l-0.3,0.3c0.3,0.3,0.7,0.4,1.2,0.3c0.5-0.2,0.9-0.5,0.8-1
		c-0.2-0.5-0.7-0.5-1.2-0.4C12.4,6,12.1,6,12,5.8c-0.1-0.2,0.1-0.3,0.3-0.4c0.3-0.1,0.5,0,0.6,0.1l0.3-0.3c-0.3-0.3-0.7-0.3-1-0.2
		c-0.4,0.2-0.9,0.5-0.7,0.9C11.7,6.5,12.2,6.5,12.7,6.4z M24.8,5.2h-0.3c-0.2,0-0.3,0.1-0.4,0.3c0,0.2,0.1,0.3,0.3,0.4h0.3
		c0,0,0,0,0.1,0c0.2,0,0.3-0.2,0.3-0.3C25.1,5.3,25,5.2,24.8,5.2z M17,4.8l5.8,0.8c0,0,0,0,0.1,0c0.2,0,0.3-0.2,0.3-0.3
		c0-0.2-0.1-0.3-0.3-0.4l-5.8-0.8c-0.2,0-0.3,0.1-0.4,0.3C16.6,4.7,16.7,4.7,17,4.8z M19,9.7l2.7,0.3c0,0,0,0,0.1,0
		c0.2,0,0.3-0.2,0.3-0.3c0-0.2-0.1-0.3-0.3-0.4L19.1,9c-0.2,0-0.3,0.1-0.4,0.3C18.6,9.6,18.8,9.7,19,9.7z M18.7,11.7l2.7,0.3
		c0,0,0,0,0.1,0c0.2,0,0.3-0.2,0.3-0.3s-0.1-0.3-0.3-0.4l-2.7-0.3c-0.2,0-0.3,0.1-0.4,0.3C18.4,11.4,18.5,11.6,18.7,11.7z
		 M21.2,13.2L19.4,13c-0.2,0-0.3,0.1-0.4,0.3c-0.1,0.3,0.1,0.3,0.3,0.4l1.8,0.3c0,0,0,0,0.1,0c0.2,0,0.3-0.2,0.3-0.3
		C21.5,13.4,21.5,13.2,21.2,13.2z M10.2,10.5c0.2-0.1,0.3-0.3,0.3-0.4c-0.1-0.2-0.3-0.3-0.4-0.3l-5.6,1.7c-0.2,0.1-0.3,0.3-0.3,0.4
		c0.1,0.2,0.2,0.3,0.3,0.3h0.1L10.2,10.5z M11.8,11.5c0.2-0.1,0.3-0.3,0.3-0.4c0-0.2-0.3-0.3-0.4-0.3L5,12.9
		c-0.2,0.1-0.3,0.3-0.3,0.4c0.1,0.2,0.2,0.3,0.3,0.3h0.1L11.8,11.5z M14.3,12.2c0.2-0.1,0.3-0.3,0.3-0.4c-0.1-0.2-0.3-0.3-0.4-0.3
		l-8.8,2.7c-0.2,0.1-0.3,0.3-0.3,0.4C5.1,14.9,5.2,15,5.4,15h0.1L14.3,12.2z M12,14.5c0.2-0.1,0.3-0.3,0.3-0.4s-0.3-0.3-0.4-0.3
		l-6,1.9c-0.2,0.1-0.3,0.3-0.3,0.4c0.1,0.2,0.2,0.3,0.3,0.3H6L12,14.5z M10.8,16.4c0.2-0.1,0.3-0.3,0.3-0.4
		c-0.1-0.2-0.3-0.3-0.4-0.3l-4.5,1.4c-0.2,0.1-0.3,0.3-0.3,0.4c0.1,0.2,0.2,0.3,0.3,0.3h0.1L10.8,16.4z M12.9,17.3
		c0.2-0.1,0.3-0.3,0.3-0.4c-0.1-0.2-0.3-0.3-0.4-0.3l-6,1.9c-0.2,0.1-0.3,0.3-0.3,0.4c0.1,0.2,0.2,0.3,0.3,0.3h0.1L12.9,17.3z
		 M16.4,17.4c-0.1-0.2-0.3-0.3-0.4-0.3l-8.8,2.7c-0.2,0.1-0.3,0.3-0.3,0.4C7,20.5,7,20.5,7.2,20.5h0.1l8.8-2.7
		C16.3,17.7,16.4,17.5,16.4,17.4z M11.7,19.9l-4.2,1.3c-0.2,0.1-0.3,0.3-0.3,0.4c0.1,0.2,0.2,0.3,0.3,0.3h0.1l4.2-1.3
		c0.2-0.1,0.3-0.3,0.3-0.4C12.1,20,11.8,19.8,11.7,19.9z M4.8,24.1c-0.1-0.2-0.3-0.3-0.4-0.3c-0.2,0.1-0.3,0.3-0.3,0.4l0.2,0.4
		C4.4,24.9,4.5,25,4.6,25h0.1C4.9,24.9,5,24.7,5,24.6L4.8,24.1z M4.4,22.8L0.7,10.9c-0.1-0.2-0.3-0.3-0.4-0.3
		C0.1,10.8,0,10.9,0,11.1l3.7,11.8c0.1,0.2,0.2,0.3,0.3,0.3h0.1C4.4,23.1,4.5,22.9,4.4,22.8z M24.9,7.3l-2.3,16.7
		c0,0.1-0.1,0.2-0.2,0.3c-0.1,0.1-0.2,0.1-0.3,0.1c0,0,0,0-0.1,0l-10.9-1.5l-4.9,1.5H6.2c-0.1,0-0.1,0-0.2,0
		c-0.1-0.1-0.2-0.1-0.2-0.3L0.5,6.5C0.4,6.4,0.6,6.1,0.8,6.1l13.6-4.3c0.1,0,0.2,0,0.3,0c0.1,0.1,0.2,0.1,0.2,0.3L16,5.8L24.5,7
		C24.8,7,25,7.1,24.9,7.3z M6.6,23.6l13-4L14.2,2.7l-13,4L6.6,23.6z M24.1,7.7l-7.9-1.1l4.1,13.2v0.1c0,0,0,0,0,0.1l0,0
		c0,0,0,0,0,0.1l0,0c0,0.1,0,0.1-0.1,0.1l0,0l0,0l0,0l0,0h-0.1L13,22.3l8.9,1.2L24.1,7.7z"/>
</g>
</svg>
