<?xml version="1.0" encoding="utf-8"?>
<!-- Generator: Adobe Illustrator 16.0.0, SVG Export Plug-In . SVG Version: 6.00 Build 0)  -->
<!DOCTYPE svg PUBLIC "-//W3C//DTD SVG 1.1//EN" "http://www.w3.org/Graphics/SVG/1.1/DTD/svg11.dtd">
<svg version="1.1" id="Слой_1" xmlns="http://www.w3.org/2000/svg" xmlns:xlink="http://www.w3.org/1999/xlink" x="0px" y="0px"
	 width="18.9px" height="24.7px" viewBox="0 0 18.9 24.7" style="enable-background:new 0 0 18.9 24.7;" xml:space="preserve">
<style type="text/css">
<![CDATA[
	.st0{fill:#FFFFFF;stroke:#FFFFFF;stroke-width:0.5;stroke-miterlimit:10;}
]]>
</style>
<path class="st0" d="M18.8,21.3c-0.8,0-1.5,0-2.3,0c0,1.2,0,2.3,0,3.4c-5.5,0-11.1,0-16.6,0c0-7.1,0-14.2,0-21.3c0.8,0,1.5,0,2.3,0
	c0-1.2,0-2.3,0-3.4c0.1,0,0.2,0,0.3,0C6.3,0,10,0,13.8,0c0.2,0,0.3,0.1,0.5,0.1c1.5,1.1,2.9,2.2,4.4,3.3c0.1,0.1,0.2,0.2,0.2,0.4
	c0,5.7,0,11.5,0,17.2C18.8,21.1,18.8,21.2,18.8,21.3z M15.9,24.1c0-5.6,0-11.1,0-16.7c-1.6,0-3.1,0-4.7,0c0-1.2,0-2.3,0-3.4
	C7.6,4,4,4,0.4,4c0,6.7,0,13.4,0,20.1C5.6,24.1,10.7,24.1,15.9,24.1z M2.7,3.4c0.1,0,0.3,0,0.4,0c2.8,0,5.5,0,8.3,0
	c0.2,0,0.4,0.1,0.5,0.2c1.5,1.1,2.9,2.2,4.3,3.3c0.2,0.1,0.2,0.2,0.2,0.5c0,4.4,0,8.7,0,13.1c0,0.1,0,0.2,0,0.3c0.6,0,1.1,0,1.7,0
	c0-5.6,0-11.1,0-16.6c-1.6,0-3.1,0-4.7,0c0-1.2,0-2.3,0-3.5c-3.6,0-7.2,0-10.8,0C2.7,1.5,2.7,2.4,2.7,3.4z M11.8,6.9
	c1.2,0,2.3,0,3.5,0C14.1,6,13,5.1,11.8,4.3C11.8,5.1,11.8,6,11.8,6.9z M14.1,0.8c0,0.9,0,1.8,0,2.6c1.2,0,2.3,0,3.5,0
	C16.5,2.5,15.3,1.7,14.1,0.8z"/>
<path class="st0" d="M2.4,18.6c0-0.2,0-0.4,0-0.5c3.8,0,7.6,0,11.5,0c0,0.2,0,0.4,0,0.5C10,18.6,6.2,18.6,2.4,18.6z"/>
<path class="st0" d="M13.9,11.2c0,0.2,0,0.3,0,0.5c-3.8,0-7.6,0-11.5,0c0-0.2,0-0.3,0-0.5C6.2,11.2,10,11.2,13.9,11.2z"/>
<path class="st0" d="M13.9,13.4c0,0.2,0,0.4,0,0.6c-3.8,0-7.6,0-11.4,0v-0.1c0-0.5,0-0.5,0.5-0.5c3.5,0,7.1,0,10.6,0
	C13.6,13.4,13.7,13.4,13.9,13.4z"/>
<path class="st0" d="M2.4,16.3c0-0.2,0-0.3,0-0.5c3.8,0,7.6,0,11.5,0c0,0.1,0,0.1,0,0.2s0,0.2,0,0.3C10,16.3,6.2,16.3,2.4,16.3z"/>
<path class="st0" d="M8.1,8.9c0,0.2,0,0.4,0,0.5c-1.9,0-3.8,0-5.7,0c0-0.2,0-0.3,0-0.5C4.3,8.9,6.2,8.9,8.1,8.9z"/>
</svg>
