<?xml version="1.0" encoding="utf-8"?>
<!-- Generator: Adobe Illustrator 16.0.0, SVG Export Plug-In . SVG Version: 6.00 Build 0)  -->
<!DOCTYPE svg PUBLIC "-//W3C//DTD SVG 1.1//EN" "http://www.w3.org/Graphics/SVG/1.1/DTD/svg11.dtd">
<svg version="1.1" id="Слой_1" xmlns="http://www.w3.org/2000/svg" xmlns:xlink="http://www.w3.org/1999/xlink" x="0px" y="0px"
	 width="22.8px" height="22.8px" viewBox="11.1 11.1 22.8 22.8" style="enable-background:new 11.1 11.1 22.8 22.8;"
	 xml:space="preserve">
<style type="text/css">
<![CDATA[
	.st0{fill:#FFFFFF;}
]]>
</style>
<g>
	<g>
		<g>
			<path class="st0" d="M33.4,33.9H11.6c-0.3,0-0.5-0.2-0.5-0.5V11.6c0-0.3,0.2-0.5,0.5-0.5h21.8c0.3,0,0.5,0.2,0.5,0.5v21.8
				C33.9,33.7,33.7,33.9,33.4,33.9L33.4,33.9z M12.1,32.9h20.8V12.1H12.1V32.9L12.1,32.9z"/>
		</g>
		<g>
			<path class="st0" d="M33,17.9H12c-0.3,0-0.5-0.2-0.5-0.5c0-0.3,0.2-0.5,0.5-0.5h21c0.3,0,0.5,0.2,0.5,0.5
				C33.5,17.7,33.3,17.9,33,17.9L33,17.9z"/>
		</g>
		<path class="st0" d="M14.5,13.4c-0.6,0-1.1,0.5-1.1,1.1s0.5,1.1,1.1,1.1s1.1-0.5,1.1-1.1S15.2,13.4,14.5,13.4L14.5,13.4z"/>
		<path class="st0" d="M17.7,13.4c-0.6,0-1.1,0.5-1.1,1.1s0.5,1.1,1.1,1.1c0.6,0,1.1-0.5,1.1-1.1S18.3,13.4,17.7,13.4L17.7,13.4z"/>
		<path class="st0" d="M20.9,13.4c-0.6,0-1.1,0.5-1.1,1.1s0.5,1.1,1.1,1.1s1.1-0.5,1.1-1.1S21.5,13.4,20.9,13.4L20.9,13.4z"/>
	</g>
	<g>
		<g>
			<path class="st0" d="M22.5,22h-6.8c-0.3,0-0.5-0.2-0.5-0.5s0.2-0.5,0.5-0.5h6.8c0.3,0,0.5,0.2,0.5,0.5S22.8,22,22.5,22L22.5,22z"
				/>
		</g>
		<g>
			<path class="st0" d="M22.5,25.1h-6.8c-0.3,0-0.5-0.2-0.5-0.5c0-0.3,0.2-0.5,0.5-0.5h6.8c0.3,0,0.5,0.2,0.5,0.5
				C23,24.9,22.8,25.1,22.5,25.1L22.5,25.1z"/>
		</g>
		<g>
			<path class="st0" d="M22.5,28.3h-6.8c-0.3,0-0.5-0.2-0.5-0.5s0.2-0.5,0.5-0.5h6.8c0.3,0,0.5,0.2,0.5,0.5S22.8,28.3,22.5,28.3
				L22.5,28.3z"/>
		</g>
		<g>
			<path class="st0" d="M29.3,28.3H25c-0.3,0-0.5-0.2-0.5-0.5v-6.3c0-0.3,0.2-0.5,0.5-0.5h4.3c0.3,0,0.5,0.2,0.5,0.5v6.3
				C29.8,28.1,29.6,28.3,29.3,28.3L29.3,28.3z M25.5,27.3h3.3V22h-3.3V27.3L25.5,27.3z"/>
		</g>
	</g>
</g>
</svg>
