<?xml version="1.0" encoding="utf-8"?>
<!-- Generator: Adobe Illustrator 16.0.0, SVG Export Plug-In . SVG Version: 6.00 Build 0)  -->
<!DOCTYPE svg PUBLIC "-//W3C//DTD SVG 1.1//EN" "http://www.w3.org/Graphics/SVG/1.1/DTD/svg11.dtd">
<svg version="1.1" id="Слой_1" xmlns="http://www.w3.org/2000/svg" xmlns:xlink="http://www.w3.org/1999/xlink" x="0px" y="0px"
	 width="22px" height="20.8px" viewBox="11.5 12.1 22 20.8" style="enable-background:new 11.5 12.1 22 20.8;" xml:space="preserve"
	>
<style type="text/css">
<![CDATA[
	.st0{fill:#FFFFFF;}
]]>
</style>
<g>
	<g>
		<path class="st0" d="M33,32.9H12c-0.3,0-0.5-0.2-0.5-0.5v-7.1c0-0.3,0.2-0.5,0.5-0.5h6.5c0.3,0,0.5,0.2,0.5,0.5v1.4
			c0,0.3,0.2,0.5,0.5,0.5h6c0.3,0,0.5-0.2,0.5-0.5v-1.4c0-0.3,0.2-0.5,0.5-0.5H33c0.3,0,0.5,0.2,0.5,0.5v7.1
			C33.5,32.6,33.3,32.9,33,32.9L33,32.9z M12.5,31.9h20v-6.1H27v0.9c0,0.8-0.7,1.5-1.5,1.5h-6c-0.8,0-1.5-0.7-1.5-1.5v-0.9h-5.5
			V31.9L12.5,31.9z"/>
	</g>
	<g>
		<path class="st0" d="M31.9,25.6c-0.3,0-0.5-0.2-0.5-0.5v-7.5H13.9v7.5c0,0.3-0.2,0.5-0.5,0.5c-0.3,0-0.5-0.2-0.5-0.5v-8
			c0-0.3,0.2-0.5,0.5-0.5h18.5c0.3,0,0.5,0.2,0.5,0.5v8C32.4,25.4,32.2,25.6,31.9,25.6L31.9,25.6z"/>
	</g>
	<g>
		<path class="st0" d="M30.7,15.1H14.5c-0.3,0-0.5-0.2-0.5-0.5c0-0.3,0.2-0.5,0.5-0.5h16.2c0.3,0,0.5,0.2,0.5,0.5
			C31.2,14.9,31,15.1,30.7,15.1L30.7,15.1z"/>
	</g>
	<g>
		<path class="st0" d="M29.8,13.1H15.5c-0.3,0-0.5-0.2-0.5-0.5c0-0.3,0.2-0.5,0.5-0.5h14.3c0.3,0,0.5,0.2,0.5,0.5
			C30.3,12.9,30,13.1,29.8,13.1L29.8,13.1z"/>
	</g>
</g>
</svg>
