<?xml version="1.0" encoding="utf-8"?>
<!-- Generator: Adobe Illustrator 16.0.0, SVG Export Plug-In . SVG Version: 6.00 Build 0)  -->
<!DOCTYPE svg PUBLIC "-//W3C//DTD SVG 1.1//EN" "http://www.w3.org/Graphics/SVG/1.1/DTD/svg11.dtd">
<svg version="1.1" id="Слой_1" xmlns="http://www.w3.org/2000/svg" xmlns:xlink="http://www.w3.org/1999/xlink" x="0px" y="0px"
	 width="23.3px" height="21.5px" viewBox="10.8 11.9 23.3 21.5" style="enable-background:new 10.8 11.9 23.3 21.5;"
	 xml:space="preserve">
<style type="text/css">
<![CDATA[
	.st0{fill:#FFFFFF;}
]]>
</style>
<g>
	<g>
		<path class="st0" d="M32.4,12.9H11.3c-0.3,0-0.5-0.2-0.5-0.5c0-0.3,0.2-0.5,0.5-0.5h21.1c0.3,0,0.5,0.2,0.5,0.5
			C32.9,12.7,32.7,12.9,32.4,12.9L32.4,12.9z"/>
	</g>
	<g>
		<path class="st0" d="M14.9,25.3h-3.6c-0.3,0-0.5-0.2-0.5-0.5s0.2-0.5,0.5-0.5h3.6c0.3,0,0.5,0.2,0.5,0.5S15.2,25.3,14.9,25.3
			L14.9,25.3z"/>
	</g>
	<g>
		<path class="st0" d="M17.1,31.5h-5.8c-0.3,0-0.5-0.2-0.5-0.5s0.2-0.5,0.5-0.5h5.8c0.3,0,0.5,0.2,0.5,0.5S17.3,31.5,17.1,31.5
			L17.1,31.5z"/>
	</g>
	<g>
		<path class="st0" d="M17.1,19.1h-5.8c-0.3,0-0.5-0.2-0.5-0.5c0-0.3,0.2-0.5,0.5-0.5h5.8c0.3,0,0.5,0.2,0.5,0.5
			C17.6,18.9,17.3,19.1,17.1,19.1L17.1,19.1z"/>
	</g>
	<g>
		<path class="st0" d="M26.9,33.4H25c-0.6,0-1-0.5-1-1v-1.2c0-0.1-0.1-0.2-0.1-0.2l-0.7-0.3c-0.1,0-0.1,0-0.2,0.1l-0.9,0.9
			c-0.4,0.4-1.1,0.4-1.4,0l-1.3-1.3c-0.2-0.2-0.3-0.4-0.3-0.7s0.1-0.5,0.3-0.7l0.9-0.9c0,0,0.1-0.2,0-0.2L20,27.2
			c0-0.1-0.1-0.2-0.2-0.2h-1.2c-0.6,0-1-0.5-1-1v-1.9c0-0.6,0.5-1,1-1h1.2c0.1,0,0.2-0.1,0.2-0.1l0.2-0.6c0-0.1,0-0.2,0-0.3
			l-0.9-0.9C19.1,21,19,20.8,19,20.5s0.1-0.5,0.3-0.7l1.3-1.3c0.4-0.4,1.1-0.4,1.4,0l0.9,0.9c0,0,0.1,0.1,0.2,0.1h0.1l0.5-0.2
			c0.1,0,0.2-0.1,0.2-0.2v-1.2c0-0.6,0.5-1,1-1h1.9c0.6,0,1,0.5,1,1v1.2c0,0.1,0.1,0.2,0.1,0.2l0.7,0.3c0.1,0,0.1,0,0.2-0.1l0.9-0.9
			c0.4-0.4,1-0.4,1.4,0l1.3,1.3c0.2,0.2,0.3,0.4,0.3,0.7c0,0.3-0.1,0.5-0.3,0.7l-0.9,0.9c0,0-0.1,0.2,0,0.2l0.2,0.6
			c0,0.1,0.1,0.2,0.2,0.2h1.2c0.6,0,1,0.5,1,1V26c0,0.6-0.5,1-1,1h-1.2c-0.1,0-0.2,0.1-0.2,0.1l-0.2,0.6c0,0.1,0,0.2,0,0.3l0.9,0.9
			c0.4,0.4,0.4,1,0,1.4l-1.3,1.3c-0.4,0.4-1.1,0.4-1.4,0l-0.9-0.9c0,0-0.1-0.1-0.2-0.1h-0.1L28.1,31c-0.1,0-0.2,0.1-0.2,0.2v1.2
			C27.9,33,27.5,33.4,26.9,33.4L26.9,33.4z M23.2,29.7c0.2,0,0.4,0,0.5,0.1l0.5,0.2c0.4,0.1,0.8,0.6,0.8,1.1v1.2h1.9l0,0v-1.2
			c0-0.5,0.4-1,0.8-1.2l0.5-0.2c0.3-0.2,1-0.1,1.4,0.2l0.9,0.9l1.4-1.3L31,28.7c-0.4-0.4-0.5-1-0.2-1.4l0.2-0.5
			c0.1-0.4,0.6-0.8,1.1-0.8h1.2v-1.9h-1.2c-0.5,0-1-0.4-1.2-0.8l-0.2-0.5c-0.2-0.4-0.1-1,0.2-1.4l0.9-0.9l-1.3-1.4L29.6,20
			c-0.3,0.3-1,0.4-1.4,0.2L27.7,20c-0.4-0.1-0.8-0.6-0.8-1.1v-1.2H25v1.2c0,0.5-0.4,1-0.8,1.2l-0.5,0.2c-0.4,0.2-1,0.1-1.4-0.2
			l-0.9-0.9L20,20.5l0.9,0.9c0.4,0.4,0.4,1,0.2,1.4L21,23.3c-0.1,0.4-0.6,0.8-1.1,0.8h-1.2V26h1.2c0.5,0,1,0.4,1.2,0.8l0.2,0.5
			c0.2,0.4,0.1,1-0.2,1.4l-0.9,0.9l1.3,1.4l0.9-0.9C22.5,29.9,22.8,29.7,23.2,29.7L23.2,29.7z M26,28c-1.6,0-3-1.3-3-3s1.3-3,3-3
			c1.6,0,3,1.3,3,3S27.6,28,26,28L26,28z M26,23.1c-1.1,0-2,0.9-2,2c0,1.1,0.9,2,2,2s2-0.9,2-2C28,24,27,23.1,26,23.1L26,23.1z"/>
	</g>
</g>
</svg>
