<?xml version="1.0" encoding="utf-8"?>
<!-- Generator: Adobe Illustrator 16.0.0, SVG Export Plug-In . SVG Version: 6.00 Build 0)  -->
<!DOCTYPE svg PUBLIC "-//W3C//DTD SVG 1.1//EN" "http://www.w3.org/Graphics/SVG/1.1/DTD/svg11.dtd">
<svg version="1.1" id="Слой_1" xmlns="http://www.w3.org/2000/svg" xmlns:xlink="http://www.w3.org/1999/xlink" x="0px" y="0px"
	 width="22px" height="22.3px" viewBox="11.5 11.3 22 22.3" style="enable-background:new 11.5 11.3 22 22.3;" xml:space="preserve"
	>
<style type="text/css">
<![CDATA[
	.st0{fill:#FFFFFF;}
]]>
</style>
<g>
	<g>
		<path class="st0" d="M21,30.3c-5.2,0-9.5-4.2-9.5-9.5c0-5.2,4.2-9.5,9.5-9.5s9.5,4.2,9.5,9.5S26.3,30.3,21,30.3L21,30.3z M21,12.4
			c-4.7,0-8.5,3.8-8.5,8.5s3.8,8.5,8.5,8.5s8.5-3.8,8.5-8.5S25.7,12.4,21,12.4L21,12.4z"/>
	</g>
	<g>
		<path class="st0" d="M15.4,20.9h-1c0-3.6,3-6.6,6.6-6.6v1C18,15.2,15.4,17.8,15.4,20.9L15.4,20.9z"/>
	</g>
	<g>
		<path class="st0" d="M32.9,33.6c-0.1,0-0.3,0-0.4-0.1L27,27.9c-0.2-0.2-0.2-0.5,0-0.7s0.5-0.2,0.7,0l5.6,5.6
			c0.2,0.2,0.2,0.5,0,0.7C33.2,33.6,33.1,33.6,32.9,33.6L32.9,33.6z"/>
	</g>
</g>
</svg>
