<?xml version="1.0" encoding="utf-8"?>
<!-- Generator: Adobe Illustrator 16.0.0, SVG Export Plug-In . SVG Version: 6.00 Build 0)  -->
<!DOCTYPE svg PUBLIC "-//W3C//DTD SVG 1.1//EN" "http://www.w3.org/Graphics/SVG/1.1/DTD/svg11.dtd">
<svg version="1.1" id="Слой_1" xmlns="http://www.w3.org/2000/svg" xmlns:xlink="http://www.w3.org/1999/xlink" x="0px" y="0px"
	 width="23.4px" height="24.7px" viewBox="-1.1 0 23.4 24.7" style="enable-background:new -1.1 0 23.4 24.7;" xml:space="preserve"
	>
<style type="text/css">
<![CDATA[
	.st0{fill:none;stroke:#FFFFFF;stroke-miterlimit:10;}
	.st1{stroke:#FFFFFF;stroke-miterlimit:10;}
]]>
</style>
<polygon class="st0" points="22.4,4.8 17.1,4.8 17.1,2.4 4.4,2.4 4.4,4.8 -1.1,4.8 -1.1,19.2 4.4,19.2 4.4,21.4 17.1,21.4 
	17.1,19.2 22.4,19.2 "/>
<line class="st0" x1="4.4" y1="4.8" x2="4.4" y2="19.2"/>
<line class="st0" x1="17.1" y1="4.8" x2="17" y2="18.8"/>
<g>
	<path class="st1" d="M-0.1,11.8l3-1.6v0.5L0.4,12v0L3,13.3v0.5l-3-1.6V11.8z"/>
</g>
<polygon class="st1" points="18.2,10.3 18.2,10.7 20.9,12 20.9,12 18.2,13.3 18.2,13.8 21.3,12.2 21.3,11.8 "/>
</svg>
