<?xml version="1.0" encoding="utf-8"?>
<!-- Generator: Adobe Illustrator 16.0.0, SVG Export Plug-In . SVG Version: 6.00 Build 0)  -->
<!DOCTYPE svg PUBLIC "-//W3C//DTD SVG 1.1//EN" "http://www.w3.org/Graphics/SVG/1.1/DTD/svg11.dtd">
<svg version="1.1" id="Слой_1" xmlns="http://www.w3.org/2000/svg" xmlns:xlink="http://www.w3.org/1999/xlink" x="0px" y="0px"
	 width="20.5px" height="22.7px" viewBox="12 11.2 20.5 22.7" style="enable-background:new 12 11.2 20.5 22.7;"
	 xml:space="preserve">
<style type="text/css">
<![CDATA[
	.st0{fill:#FFFFFF;}
]]>
</style>
<g>
	<g>
		<path class="st0" d="M32,33.9H14.8c-0.3,0-0.5-0.2-0.5-0.5V11.7c0-0.3,0.2-0.5,0.5-0.5H32c0.3,0,0.5,0.2,0.5,0.5v21.7
			C32.5,33.7,32.3,33.9,32,33.9L32,33.9z M15.3,32.9h16.3V12.2H15.3V32.9L15.3,32.9z"/>
	</g>
	<g>
		<path class="st0" d="M16.5,16.3H13c-0.3,0-0.5-0.2-0.5-0.5c0-0.3,0.2-0.5,0.5-0.5h3.5c0.3,0,0.5,0.2,0.5,0.5
			C17,16.1,16.8,16.3,16.5,16.3L16.5,16.3z"/>
	</g>
	<g>
		<path class="st0" d="M16.5,20.8H13c-0.3,0-0.5-0.2-0.5-0.5c0-0.3,0.2-0.5,0.5-0.5h3.5c0.3,0,0.5,0.2,0.5,0.5
			C17,20.6,16.8,20.8,16.5,20.8L16.5,20.8z"/>
	</g>
	<g>
		<path class="st0" d="M16.5,25.2H13c-0.3,0-0.5-0.2-0.5-0.5s0.2-0.5,0.5-0.5h3.5c0.3,0,0.5,0.2,0.5,0.5S16.8,25.2,16.5,25.2
			L16.5,25.2z"/>
	</g>
	<g>
		<path class="st0" d="M16.5,29.7H13c-0.3,0-0.5-0.2-0.5-0.5s0.2-0.5,0.5-0.5h3.5c0.3,0,0.5,0.2,0.5,0.5S16.8,29.7,16.5,29.7
			L16.5,29.7z"/>
	</g>
	<g>
		<path class="st0" d="M24,22.2c-1.5,0-2.8-1.4-2.8-3.2c0-1.7,1.3-3.2,2.8-3.2s2.8,1.4,2.8,3.2S25.6,22.2,24,22.2L24,22.2z M24,16.9
			c-1,0-1.8,1-1.8,2.2c0,1.2,0.8,2.2,1.8,2.2s1.8-1,1.8-2.2C25.8,17.9,25,16.9,24,16.9L24,16.9z"/>
	</g>
	<g>
		<path class="st0" d="M28.5,30.1h-8.9c-0.3,0-0.5-0.2-0.5-0.5l-0.2-2.9c-0.1-1,0.7-2.2,1.7-2.6c2.2-0.8,4.6-0.8,6.8,0
			c1,0.4,1.8,1.5,1.7,2.6L29,29.6C28.9,29.9,28.7,30.1,28.5,30.1L28.5,30.1z M20.1,29.1H28l0.2-2.4c0-0.5-0.4-1.3-1.1-1.5
			c-2-0.7-4.2-0.7-6.1,0c-0.6,0.2-1.1,1-1.1,1.5L20.1,29.1L20.1,29.1z"/>
	</g>
</g>
</svg>
