<?xml version="1.0" encoding="utf-8"?>
<!-- Generator: Adobe Illustrator 16.0.0, SVG Export Plug-In . SVG Version: 6.00 Build 0)  -->
<!DOCTYPE svg PUBLIC "-//W3C//DTD SVG 1.1//EN" "http://www.w3.org/Graphics/SVG/1.1/DTD/svg11.dtd">
<svg version="1.1" id="Слой_1" xmlns="http://www.w3.org/2000/svg" xmlns:xlink="http://www.w3.org/1999/xlink" x="0px" y="0px"
	 width="45.3px" height="45.3px" viewBox="0 0 45.3 45.3" style="enable-background:new 0 0 45.3 45.3;" xml:space="preserve">
<style type="text/css">
<![CDATA[
	.st0{fill:#184967;}
]]>
</style>
<path class="st0" d="M4,44.1c-1.1,0-2.1-0.4-2.8-1.2l1.4-1.4c0.8,0.8,2.1,0.8,2.8,0l14.8-14.8l1.4,1.4L6.8,43
	C6.1,43.7,5.1,44.1,4,44.1"/>
<path class="st0" d="M28.2,21.6l-1.4-1.4l2.7-2.7c0.3-0.3,0.8-0.4,1.1-0.2c3.4,1.6,6.2,1.3,8.4-0.9l1.4-1.4c1.9-1.9,2-4.7,1.4-7
	l-4.2,4.2c-0.4,0.4-1,0.4-1.4,0L31.9,8c-0.2-0.2-0.3-0.4-0.3-0.7s0.1-0.5,0.3-0.7l4.2-4.2c-2.3-0.7-5.2-0.5-7,1.4l-1.4,1.4
	c-2.2,2.2-2.5,5-0.9,8.4c0.2,0.4,0.1,0.8-0.2,1.1l-3,3l-1.4-1.4l2.5-2.5c-1.6-3.9-1.1-7.4,1.5-10l1.4-1.4c3-3,7.5-2.8,10.7-1.2
	c0.3,0.1,0.5,0.4,0.6,0.7c0.1,0.3,0,0.6-0.3,0.9L34,7.3l2.8,2.8l4.6-4.6c0.2-0.2,0.6-0.3,0.9-0.3c0.3,0.1,0.6,0.3,0.7,0.6
	c1.5,3.2,1.7,7.7-1.2,10.7l-1.4,1.4c-2.7,2.7-6.1,3.2-10,1.5L28.2,21.6z"/>
<path class="st0" d="M1.2,43C0.4,42.2,0,41.2,0,40.1c0-1.1,0.4-2.1,1.2-2.8l15.1-15.1l1.4,1.4L2.6,38.7C2.2,39.1,2,39.6,2,40.1
	s0.2,1,0.6,1.4L1.2,43z"/>
<rect x="4.1" y="37.6" transform="matrix(0.7071 0.7071 -0.7071 0.7071 29.1163 7.8681)" class="st0" width="2" height="3"/>
<path class="st0" d="M26.5,30.7l-16-16L7.2,14c-0.3-0.1-0.5-0.2-0.6-0.4L0.9,5.1C0.6,4.7,0.7,4.2,1,3.8L3.9,1
	c0.3-0.3,0.9-0.4,1.3-0.1l8.5,5.7C13.8,6.7,14,6.9,14,7.2l0.6,3.2l16,16l-1.4,1.4L13.1,11.6c-0.1-0.1-0.2-0.3-0.3-0.5L12.2,8L4.7,3
	L3,4.7l5,7.5l3.1,0.6c0.2,0,0.4,0.1,0.5,0.3l16.3,16.3L26.5,30.7z"/>
<path class="st0" d="M39.9,45.3c-1,0-2-0.4-2.8-1.2l-8.3-8.3c-0.8-0.2-3.2-0.6-3.2-0.6c-0.4-0.1-0.6-0.3-0.8-0.7
	c-0.9-2.7-0.9-2.7-0.5-3.1c0,0,0,0,0,0l7.1-7.1c0.4-0.5,0.4-0.5,3.2,0.5c0.3,0.1,0.6,0.4,0.7,0.8c0,0,0.5,2.4,0.6,3.2l8.3,8.3
	c0.8,0.8,1.2,1.8,1.2,2.8s-0.4,2.1-1.2,2.8l-1.4,1.4C42,44.9,41,45.3,39.9,45.3 M26.6,33.4c3.2,0.6,3.2,0.6,3.4,0.8l8.5,8.5
	c0.8,0.8,2.1,0.8,2.8,0l1.4-1.4c0.4-0.4,0.6-0.9,0.6-1.4c0-0.5-0.2-1-0.6-1.4L34.3,30c-0.2-0.2-0.2-0.2-0.9-3.5
	c-0.3-0.1-0.7-0.2-1-0.3l-6.2,6.2C26.3,32.7,26.5,33.1,26.6,33.4"/>
<rect x="29.7" y="34.7" transform="matrix(0.7071 0.7071 -0.7071 0.7071 35.6637 -14.7901)" class="st0" width="12" height="2"/>
</svg>
