<?xml version="1.0" encoding="utf-8"?>
<!-- Generator: Adobe Illustrator 16.0.0, SVG Export Plug-In . SVG Version: 6.00 Build 0)  -->
<!DOCTYPE svg PUBLIC "-//W3C//DTD SVG 1.1//EN" "http://www.w3.org/Graphics/SVG/1.1/DTD/svg11.dtd">
<svg version="1.1" id="Слой_1" xmlns="http://www.w3.org/2000/svg" xmlns:xlink="http://www.w3.org/1999/xlink" x="0px" y="0px"
	 width="127.4px" height="117.9px" viewBox="0 0 127.4 117.9" style="enable-background:new 0 0 127.4 117.9;" xml:space="preserve"
	>
<style type="text/css">
<![CDATA[
	.st0{fill:#184967;}
]]>
</style>
<path class="st0" d="M22.9,41.5l-2.2,0.7L17,30.4l1.8-0.6l8,5.5L24.6,28l2.2-0.7l3.7,11.8l-1.4,0.4l0,0l-8.7-6L22.9,41.5z
	 M41.3,35.7l-0.7-2.2L34,35.6L33.2,33l6.4-2l-0.6-2.1l-6.4,2l-0.8-2.7l6.6-2.1L37.6,24l-8.8,2.8c1.2,3.9,2.5,7.9,3.7,11.8L41.3,35.7
	z M48.6,33.4l0.3-4.1l0.1-4.1l2.4,3.3l2.6,3.2l1.9-0.6l0.6-13.1L54,18.9l0,9.3l-5.6-7.6l-1.4,0.5l-0.2,9.4l-5.4-7.6l-2.5,0.8l8,10.4
	L48.6,33.4z M64.3,22.9c1.6-0.3,2.9-0.2,3.3,0.9c0.4,1.3-0.8,2.2-2.2,2.6c-1.4,0.4-3,0.3-3.9-0.8L60,27.1c1.5,1.9,3.6,2,6,1.3
	c2.6-0.8,4.6-2.7,3.8-5.3c-0.9-2.8-3.4-2.7-5.9-2.3c-1.5,0.3-2.8,0.4-3.1-0.7c-0.3-0.9,0.3-1.8,2-2.3c1.3-0.4,2.6-0.1,3.2,0.4
	l1.5-1.5c-1.5-1.5-3.5-1.5-5.4-0.9c-2.2,0.7-4.2,2.4-3.5,4.9C59.4,23.4,61.9,23.3,64.3,22.9 M125.8,16.7l-1.2-0.2
	c-1-0.1-1.9,0.6-2.1,1.6c-0.1,1,0.6,1.9,1.6,2.1l1.2,0.2c0.1,0,0.2,0,0.3,0c0.9,0,1.7-0.7,1.8-1.6C127.6,17.8,126.9,16.9,125.8,16.7
	 M86.2,15l29.4,4c0.1,0,0.2,0,0.3,0c0.9,0,1.7-0.7,1.8-1.6c0.1-1-0.6-1.9-1.6-2.1l-29.4-4c-1-0.1-1.9,0.6-2.1,1.6
	C84.5,14,85.2,14.9,86.2,15 M96.5,40.1l13.5,1.8c0.1,0,0.2,0,0.3,0c0.9,0,1.7-0.7,1.8-1.6c0.1-1-0.6-1.9-1.6-2.1L97,36.4
	c-1-0.1-1.9,0.6-2.1,1.6S95.5,40,96.5,40.1 M95.1,49.9l13.5,1.8c0.1,0,0.2,0,0.3,0c0.9,0,1.7-0.7,1.8-1.6c0.1-1-0.6-1.9-1.6-2.1
	l-13.5-1.8c-1-0.1-1.9,0.6-2.1,1.6C93.4,48.8,94.1,49.8,95.1,49.9 M107.7,57.9l-9.2-1.3c-1-0.1-1.9,0.6-2.1,1.6
	c-0.1,1,0.6,1.9,1.6,2.1l9.2,1.3c0.1,0,0.2,0,0.3,0c0.9,0,1.7-0.7,1.8-1.6C109.5,58.9,108.8,58,107.7,57.9 M52.1,43.7
	c1-0.3,1.5-1.3,1.2-2.3s-1.3-1.5-2.3-1.2L22.7,49c-1,0.3-1.5,1.3-1.2,2.3c0.2,0.8,1,1.3,1.8,1.3c0.2,0,0.4,0,0.6-0.1L52.1,43.7z
	 M60.2,49c1-0.3,1.5-1.3,1.2-2.3c-0.3-1-1.4-1.5-2.3-1.2L24.9,56.1c-1,0.3-1.5,1.3-1.2,2.3c0.2,0.8,1,1.3,1.8,1.3
	c0.2,0,0.4,0,0.6-0.1L60.2,49z M73,52.7c1-0.3,1.5-1.3,1.2-2.3c-0.3-1-1.3-1.5-2.3-1.2l-44.8,14c-1,0.3-1.5,1.3-1.2,2.3
	c0.2,0.8,1,1.3,1.8,1.3c0.2,0,0.4,0,0.6-0.1L73,52.7z M61.1,64.2c1-0.3,1.5-1.3,1.2-2.3c-0.3-1-1.3-1.5-2.3-1.2l-30.6,9.6
	c-1,0.3-1.5,1.3-1.2,2.3c0.2,0.8,1,1.3,1.8,1.3c0.2,0,0.4,0,0.6-0.1L61.1,64.2z M55,73.9c1-0.3,1.5-1.3,1.2-2.3
	c-0.3-1-1.3-1.5-2.3-1.2l-22.4,7c-1,0.3-1.5,1.3-1.2,2.3c0.2,0.8,1,1.3,1.8,1.3c0.2,0,0.4,0,0.6-0.1L55,73.9z M65.5,78.4
	c1-0.3,1.5-1.3,1.2-2.3c-0.3-1-1.3-1.5-2.3-1.2l-30.6,9.6c-1,0.3-1.5,1.3-1.2,2.3c0.2,0.8,1,1.3,1.8,1.3c0.2,0,0.4,0,0.6-0.1
	L65.5,78.4z M83,78.7c-0.3-1-1.3-1.5-2.3-1.2l-44.8,14c-1,0.3-1.5,1.3-1.2,2.3c0.2,0.8,1,1.3,1.8,1.3c0.2,0,0.4,0,0.6-0.1l44.8-14
	C82.8,80.7,83.3,79.7,83,78.7 M59.4,91.9l-21.2,6.6c-1,0.3-1.5,1.3-1.2,2.3c0.2,0.8,1,1.3,1.8,1.3c0.2,0,0.4,0,0.6-0.1l21.2-6.6
	c1-0.3,1.5-1.3,1.2-2.3C61.4,92.1,60.3,91.6,59.4,91.9 M24.6,113.1c-0.3-1-1.3-1.5-2.3-1.2c-1,0.3-1.5,1.3-1.2,2.3l0.7,2.4
	c0.2,0.8,1,1.3,1.8,1.3c0.2,0,0.4,0,0.6-0.1c1-0.3,1.5-1.3,1.2-2.3L24.6,113.1z M22.4,106L3.6,45.9c-0.3-1-1.3-1.5-2.3-1.2
	C0.3,45-0.2,46,0.1,47l18.8,60.1c0.2,0.8,1,1.3,1.8,1.3c0.2,0,0.4,0,0.6-0.1C22.1,108,22.7,107,22.4,106 M126.5,28l-11.7,85
	c-0.1,0.5-0.3,0.9-0.7,1.2c-0.3,0.2-0.7,0.4-1.1,0.4c-0.1,0-0.2,0-0.3,0L57.6,107l-24.7,7.7c-0.2,0.1-0.4,0.1-0.6,0.1
	c-0.3,0-0.6-0.1-0.9-0.2c-0.4-0.2-0.8-0.6-0.9-1.1L2.6,24c-0.3-1,0.2-2,1.2-2.3L73.1,0.1c0.5-0.1,1-0.1,1.4,0.1
	c0.4,0.2,0.8,0.6,0.9,1.1L81.3,20l43.6,6C125.9,26.1,126.6,27,126.5,28 M33.5,110.7l65.8-20.5l-26.8-86L6.7,24.7L33.5,110.7z
	 M122.6,29.4l-40-5.5l20.9,66.9c0,0.1,0.1,0.2,0.1,0.4c0,0.1,0,0.2,0,0.2c0,0,0,0.1,0,0.1c0,0.1,0,0.2-0.1,0.3c0,0,0,0.1,0,0.1
	c-0.1,0.2-0.2,0.4-0.3,0.6c0,0,0,0-0.1,0.1c-0.1,0.1-0.1,0.1-0.2,0.2c0,0-0.1,0.1-0.1,0.1c-0.1,0-0.1,0.1-0.2,0.1
	c-0.1,0.1-0.2,0.1-0.3,0.1l-36.3,11.3l45.5,6.2L122.6,29.4z"/>
</svg>
