<?xml version="1.0" encoding="utf-8"?>
<!-- Generator: Adobe Illustrator 16.0.0, SVG Export Plug-In . SVG Version: 6.00 Build 0)  -->
<!DOCTYPE svg PUBLIC "-//W3C//DTD SVG 1.1//EN" "http://www.w3.org/Graphics/SVG/1.1/DTD/svg11.dtd">
<svg version="1.1" id="Слой_1" xmlns="http://www.w3.org/2000/svg" xmlns:xlink="http://www.w3.org/1999/xlink" x="0px" y="0px"
	 width="120.8px" height="66.6px" viewBox="0 0 120.8 66.6" style="enable-background:new 0 0 120.8 66.6;" xml:space="preserve">
<style type="text/css">
<![CDATA[
	.st0{fill:#184967;}
]]>
</style>
<path class="st0" d="M62.1,64.5c-1,0-2.2-0.2-3.3-0.8c-0.4-0.2-0.9-0.5-1.5-0.9l-0.5-0.3l0.4-0.4c1.4-1.3,3.1-3.4,3.7-5.5l0.2-0.7
	l7.3,5.4l-0.6,0.4l-0.5-0.1l0,0l0.4,0.2C67.2,62.9,64.9,64.5,62.1,64.5 M58.3,62.4c0.3,0.2,0.7,0.4,0.9,0.5c3.9,1.8,7.1-0.6,7.6-1.5
	c0,0,0,0,0,0l-5.2-3.8C60.9,59.4,59.5,61.1,58.3,62.4"/>
<path class="st0" d="M62.1,65c-1.2,0-2.4-0.3-3.5-0.8c-0.4-0.2-1-0.5-1.6-0.9l-1-0.7l0.9-0.9c1.3-1.3,3-3.3,3.6-5.3l0.4-1.4l8.5,6.2
	L68.1,62C67.5,63.3,65.2,65,62.1,65 M58,62.8c0.4,0.2,0.7,0.4,1,0.5c0.1,0,0.2,0.1,0.2,0.1c-0.1,0-0.2-0.1-0.2-0.1
	C58.7,63.2,58.4,63,58,62.8L58,62.8z M67,62c-0.3,0.4-0.8,0.8-1.4,1.1C66.2,62.7,66.7,62.3,67,62L67,62z M59.1,62.3
	c0.1,0.1,0.2,0.1,0.3,0.2c3.1,1.5,5.8-0.1,6.7-1l-4.3-3.1C61.3,59.6,60.3,60.9,59.1,62.3 M57.5,62.5C57.5,62.5,57.5,62.5,57.5,62.5
	l0.4-0.4C57.8,62.2,57.6,62.3,57.5,62.5 M61.4,56.7l3.9,2.8L61.4,56.7c-0.1,0.2-0.1,0.4-0.2,0.6L61.4,56.7z"/>
<path class="st0" d="M49.1,66.1c-2.1,0-3.7-1-4.2-1.4c-0.5-0.5-1-1.6-1.3-2.3l-0.2-0.6l0.3-0.2c2.4-2.1,8.3-7.4,9.2-8.1l0.1-0.1
	c0.7-0.7,1.5-1.2,2.2-1.5c0.4-0.2,1.3-0.3,1.4-0.3c1.4-0.2,2.5,0.2,3.3,1.2c0.4,0.5,0.7,1.1,0.8,1.8c0.1,0.4,0.1,0.8,0,1.3v0
	c-0.4,2.3-2.4,4.6-4,6.1c-0.9,0.8-1.9,1.7-2.9,2.4C52.1,65.7,50.5,66.1,49.1,66.1 M44.6,62.1c0.3,0.9,0.7,1.6,1,1.9
	c0.6,0.6,3.8,2.4,7.6-0.3c1-0.7,1.9-1.5,2.8-2.3c2.1-2,3.4-4,3.7-5.6c0.1-0.4,0.1-0.7,0-1c-0.1-0.5-0.3-0.9-0.6-1.3
	c-0.6-0.7-1.4-1-2.4-0.9c-0.1,0-0.8,0.2-1.1,0.3c-0.6,0.3-1.3,0.7-1.9,1.3L53.6,54C53.1,54.6,51.1,56.4,44.6,62.1"/>
<path class="st0" d="M49.1,66.6c-2.4,0-4.1-1.1-4.5-1.6c-0.5-0.5-0.9-1.3-1.4-2.5l-0.3-0.9l0.5-0.5c0.8-0.7,8.2-7.3,9.2-8.1l0.1-0.1
	c0.8-0.7,1.6-1.2,2.4-1.6c0.4-0.2,1.4-0.4,1.6-0.4c1.5-0.2,2.8,0.3,3.7,1.4c0.5,0.6,0.8,1.3,0.9,2.1c0.1,0.5,0.1,0.9,0,1.5
	c-0.4,2.4-2.5,4.8-4.1,6.4c-0.9,0.9-1.9,1.7-2.9,2.5C52.5,66,50.8,66.6,49.1,66.6 M45.2,62.2c0.3,0.8,0.6,1.2,0.8,1.4
	c0.5,0.5,3.4,2.2,6.9-0.4c0.9-0.7,1.9-1.5,2.7-2.3c2-1.9,3.3-3.8,3.5-5.3c0.1-0.3,0.1-0.6,0-0.8c-0.1-0.4-0.2-0.8-0.5-1.1
	c-0.5-0.6-1.1-0.8-2-0.7c-0.1,0-0.7,0.2-0.9,0.2c-0.6,0.2-1.2,0.6-1.8,1.2l-0.4,0.3l0,0C52.7,55.6,50.5,57.5,45.2,62.2 M53.7,63.9
	c-0.1,0-0.1,0.1-0.2,0.1c-0.2,0.2-0.4,0.3-0.6,0.4c0.2-0.1,0.4-0.3,0.6-0.4C53.6,64,53.6,64,53.7,63.9 M44.2,62.2
	c0.1,0.2,0.2,0.4,0.2,0.6C44.3,62.6,44.2,62.4,44.2,62.2L44.2,62.2z M60.1,56.1c-0.4,1.6-1.7,3.6-3.8,5.5c-0.3,0.3-0.7,0.6-1,0.9
	c0.3-0.3,0.7-0.6,1-0.9C57.8,60.3,59.6,58.2,60.1,56.1 M48.7,57.8c-1,0.9-2.1,1.8-2.9,2.6C46.9,59.4,47.8,58.6,48.7,57.8 M53.7,53.4
	L53.7,53.4c0.6-0.5,1.1-0.8,1.7-1c0.1,0,0.1-0.1,0.2-0.1c-0.1,0-0.2,0.1-0.2,0.1C54.9,52.6,54.3,52.9,53.7,53.4 M57.2,52
	c0.9,0,1.6,0.3,2.2,0.9c-0.6-0.7-1.4-0.9-2.4-0.9C57,52,57.1,52,57.2,52"/>
<path class="st0" d="M71.5,62.7c-0.1,0-0.2,0-0.3,0c-0.6-0.1-1.3-0.4-1.8-0.6L69.3,62L61,55.9l0-0.3c0-0.4,0-0.8,0-1.1
	c-0.1-0.8-0.4-1.4-0.9-2c-0.8-0.9-1.8-1.4-3-1.4c-0.2,0-1.2,0.1-1.3,0.2l-0.8,0.2l0.2-0.8c0.4-1.8-0.1-3.4-1.4-4.7
	c-0.3-0.3-1.7-1.1-3.1-1.1c-0.3,0-0.6,0-0.9,0.1c0,0-0.4,0.1-0.4,0.2l-0.8,0.3l0.1-0.8c0.1-1.3-0.3-2.4-1.4-3.5
	c-0.8-0.8-1.6-1.1-2.5-1.1c-0.9,0-1.8,0.3-3.1,1l-0.6,0.3L41,40.7c-0.1-0.8-0.6-1.6-1.3-2.3C39,37.5,38,37.1,37,37.1
	c-1.5,0-3.2,0.8-5.6,2.5c-0.1,0-0.4,0.3-0.6,0.5l-0.2,0.2l-0.3-0.1c-0.8-0.2-2.4-0.3-4.7-0.4l-0.6,0l6-27.7l0.4,0c0.1,0,0.2,0,0.3,0
	c0.6-0.1,2.8-1.6,5.1-3.2C42,5.3,49.2,0.5,52.9,0.5c4.3,0,8.2,1.2,9.7,1.8l1.5,0.5l-1.6,0.4c-1.4,0.4-8.7,2.2-9.2,2.3
	C52,5.8,51.1,6,50.4,6.3c-0.4,0.1-0.7,0.4-1,0.7c-0.3,0.3-0.7,0.8-0.8,0.9l-1.5,1.8c-1.6,2-5.6,7.1-7.2,9.7l-0.2,0.3
	c-0.4,0.8-0.5,1.1-0.5,1.4c0,0,0,0.2,0.1,0.3c0.1,0.2,0.4,0.5,0.5,0.6c0.4,0.4,1,1.2,1.7,1.6c1.2,0.8,2.9,1.3,5.1,1.3
	c1.5,0,3-0.3,4.5-1c2.9-1.2,5.2-2.6,6.7-4.1c0,0,0.3-0.3,0.3-0.3c0.1-0.1,0.5-0.6,0.5-0.6c0.1-0.1,0.2-0.3,0.2-0.4l0.1-0.2l0.2-0.1
	c2.2-0.6,4-1.1,5.3-1.5l0.3-0.1l2.4,2.1c1.8,1.6,3.5,3,4.2,3.8c1.1,1.2,5.4,4.6,10.8,9c4.4,3.6,10.5,9.6,10.6,9.7l0.7,0.7l1.4-0.3
	l0,0.6c0.1,1.2,0.1,3.5-1.3,5.2c-2.1,2.6-3.6,3.9-4.9,3.9c-0.1,0-0.1,0-0.2,0l-0.2,0.1L69.2,37c-0.1,0-0.1,0-0.2,0
	c0,0.1,0,0.1,0,0.2l17.9,13.6c0.8,0.6,1,1.8,0.5,2.6c-0.5,0.8-1.2,1.6-2.1,2.4c-3.6,3.2-6.7,2.2-7.3,1.7c-0.3-0.2-19-14.4-19.2-14.5
	c-0.1,0-0.1,0-0.2,0l0,0.2l19.2,14.5l0,0.3c0,0.1,0,0.2,0,0.3c0,0.6-0.4,1.3-1.3,2C75.2,61.6,72.9,62.7,71.5,62.7 M69.8,61.1
	c0.5,0.2,1,0.4,1.5,0.5c0.9,0.1,3.1-0.8,4.4-1.9c0.9-0.7,0.9-1.1,0.9-1.3c0,0,0-0.1,0-0.1L58,44.1c-0.2-0.2-0.4-0.4-0.4-0.7
	c0-0.3,0-0.6,0.2-0.8c0.4-0.5,1.1-0.6,1.6-0.2c4.5,3.4,19.1,14.5,19.2,14.5c0.3,0.3,3,1.1,6-1.7c0.8-0.8,1.5-1.5,2-2.2
	c0.3-0.4,0.2-1-0.2-1.3L68.4,38c-0.5-0.4-0.6-1.1-0.2-1.6c0.4-0.5,1.1-0.6,1.6-0.2l18.8,14.2c0,0,0.1,0,0.2,0c0.6,0,1.9-0.6,4.1-3.5
	c1-1.2,1.1-2.8,1.1-4l-0.8,0.2L92,42c-0.1-0.1-6.1-6.1-10.5-9.6c-5.7-4.5-9.8-7.9-10.9-9.1c-0.8-0.8-2.8-2.6-4.2-3.7l-1.9-1.7
	c-1.2,0.4-2.9,0.9-4.9,1.4c-0.1,0.1-0.1,0.2-0.2,0.3c0,0-0.5,0.6-0.5,0.7c0,0-0.2,0.3-0.3,0.3c-1.6,1.6-3.9,3-7,4.3
	c-1.7,0.7-3.3,1-4.9,1c-2.4,0-4.3-0.5-5.6-1.4c-0.8-0.5-1.4-1.4-1.8-1.8c-0.2-0.2-0.5-0.5-0.6-0.8c-0.2-0.3-0.2-0.7-0.3-0.8
	c0-0.6,0.2-1.2,0.6-2l0.2-0.3c1.5-2.6,5.2-7.2,7.3-9.8l1.5-1.8c0.1-0.1,0.5-0.6,0.8-0.9c0.4-0.4,0.8-0.8,1.3-1
	c0.7-0.3,1.7-0.5,3.1-0.8c0.4-0.1,4.8-1.2,7.5-1.9c-1.9-0.5-4.7-1.2-7.7-1.2c-3.4,0-10.7,4.9-15.5,8.2c-3.1,2.1-4.7,3.2-5.5,3.3l0,0
	l-5.6,25.8c1.8,0.1,3.2,0.2,4,0.3c0.2-0.2,0.4-0.4,0.5-0.4c2.6-1.8,4.5-2.7,6.2-2.7c1.3,0,2.5,0.5,3.5,1.5c0.7,0.7,1.1,1.4,1.4,2.2
	c2.7-1.3,4.5-1.1,6.2,0.6c1.1,1.1,1.7,2.3,1.7,3.6c2-0.4,4.2,0.7,4.8,1.3c1.4,1.4,2,3,1.8,4.9c0.3,0,0.7-0.1,0.8-0.1
	c1.6,0,2.8,0.6,3.8,1.8c0.6,0.7,1,1.6,1.1,2.5c0,0.3,0.1,0.6,0,1L69.8,61.1z"/>
<path class="st0" d="M71.5,63.2c-0.1,0-0.3,0-0.4,0c-0.7-0.1-1.4-0.4-2-0.6L69,62.4l-8.5-6.3l0.1-0.6c0-0.4,0-0.7,0-0.9
	c-0.1-0.7-0.3-1.3-0.8-1.8c-0.7-0.8-1.5-1.2-2.6-1.2c-0.1,0-1.1,0.1-1.2,0.1l-1.6,0.4l0.3-1.6c0.4-1.6-0.1-3-1.2-4.2
	c-0.3-0.3-1.5-1-2.8-1c-0.3,0-0.5,0-0.7,0.1c0,0-0.1,0-0.1,0c-0.1,0-0.3,0.1-0.3,0.1l-1.5,0.6l0.2-1.6c0.1-1.1-0.3-2.1-1.3-3.1
	c-1.4-1.3-2.6-1.4-5,0l-1.2,0.7l-0.2-1.4c-0.1-0.7-0.5-1.4-1.1-2.1c-0.7-0.7-1.5-1.1-2.4-1.1c-1.4,0-3,0.7-5.3,2.4
	c-0.1,0-0.3,0.3-0.5,0.4l-0.4,0.4l-0.5-0.1c-0.8-0.2-2.4-0.3-4.6-0.3l-1.2,0l6.2-28.7l0.7-0.1c0.1,0,0.2,0,0.2,0
	c0.5-0.1,2.9-1.8,4.9-3.1C41.8,4.9,49,0,52.9,0c4.4,0,8.4,1.3,9.9,1.8l3,1.1l-3.1,0.8C61.3,4.1,54,5.9,53.4,6
	c-1.3,0.3-2.2,0.5-2.8,0.7C50.3,6.8,50,7,49.8,7.3c-0.3,0.3-0.7,0.8-0.8,0.9L47.6,10c-1.6,2-5.6,7-7.1,9.6l-0.2,0.3
	c-0.4,0.6-0.4,0.9-0.5,1.1c0,0,0,0.1,0.1,0.2c0.1,0.1,0.2,0.3,0.4,0.5c0.4,0.5,1,1.1,1.6,1.6c1.1,0.8,2.7,1.2,4.8,1.2
	c1.4,0,2.9-0.3,4.4-0.9c2.9-1.2,5.1-2.5,6.5-4c0,0,0.2-0.3,0.2-0.3c0,0,0.3-0.3,0.4-0.5c0,0,0-0.1,0.1-0.1v0
	c0.1-0.1,0.2-0.3,0.2-0.4l0.2-0.4l0.4-0.1c2.2-0.6,4-1.1,5.3-1.5l0.5-0.2l2.6,2.2c1.9,1.6,3.5,3,4.3,3.8c1.1,1.2,5.3,4.6,10.8,9
	c4.5,3.6,10.5,9.7,10.6,9.7l0.5,0.5l1.7-0.4l0.1,1.1c0.1,1.3,0.1,3.7-1.4,5.6c-2.2,2.8-3.8,4.1-5.3,4.1L88.2,52
	c0.1,0.6,0,1.2-0.4,1.7c-0.6,0.9-1.3,1.7-2.2,2.5c-3.2,2.9-6,2.6-7.3,2.1c0,0,0,0.1,0,0.1c0,0.8-0.5,1.6-1.5,2.4
	C75.4,62,73.1,63.2,71.5,63.2 M61.6,55.7l8.1,5.9c0.3,0.1,0.7,0.3,1.1,0.4c-0.4-0.1-0.7-0.3-1.1-0.4l-0.1-0.1L61.6,55.7l0-0.2
	C61.6,55.5,61.6,55.6,61.6,55.7L61.6,55.7z M73.8,61.5c-0.4,0.2-0.8,0.3-1.1,0.4C73,61.8,73.4,61.7,73.8,61.5 M70.1,60.7
	c0.4,0.2,0.9,0.4,1.4,0.5c0.7,0.1,2.8-0.7,4-1.8c0.5-0.4,0.6-0.6,0.7-0.8l-18.5-14c-0.3-0.3-0.6-0.6-0.6-1.1
	c-0.1-0.4,0.1-0.9,0.3-1.2c0.5-0.7,1.6-0.8,2.3-0.3l1.7,1.3c12.7,9.6,17.4,13.2,17.5,13.2c0.3,0.2,2.7,0.8,5.4-1.7
	c0.8-0.7,1.4-1.4,1.9-2.1c0.1-0.2,0.1-0.5-0.1-0.6L68.1,38.4c-0.7-0.5-0.9-1.6-0.3-2.3c0.2-0.3,0.6-0.6,1.1-0.6
	c0.4-0.1,0.9,0,1.2,0.3l18.6,14.1c0.3,0,1.4-0.3,3.7-3.3c0.7-0.9,0.9-2.1,1-3L93,43.7l-1.3-1.3c-0.1-0.1-6.1-6.1-10.5-9.6
	c-5.7-4.6-9.8-7.9-11-9.1c-0.7-0.8-2.8-2.5-4.1-3.7l-1.7-1.5c-1.2,0.4-2.7,0.8-4.4,1.3c0,0.1-0.1,0.1-0.1,0.2c0,0-0.5,0.6-0.6,0.7
	C59.2,20.7,59,20.9,59,21c-1.6,1.6-4,3.1-7.2,4.4c-1.7,0.7-3.5,1.1-5.1,1.1c-2.5,0-4.5-0.5-5.9-1.5c-0.8-0.6-1.5-1.4-1.9-1.9
	c-0.3-0.3-0.5-0.6-0.7-0.9c-0.2-0.4-0.3-0.8-0.3-0.9c0-0.8,0.2-1.4,0.7-2.3l0.2-0.3C40.3,16,44,11.3,46,8.7l1.5-1.8
	C47.6,6.8,48,6.3,48.3,6c0.4-0.5,1-0.9,1.5-1.1c0.8-0.3,1.7-0.5,3.1-0.8c0.3-0.1,3.1-0.8,5.6-1.4C57,2.3,55,2,52.9,2
	c-3.3,0-10.8,5.1-15.2,8.1c-2.9,2-4.5,3-5.4,3.3l-5.4,25c1.4,0.1,2.5,0.1,3.3,0.3c0.2-0.1,0.3-0.3,0.4-0.3c2.6-1.9,4.6-2.7,6.5-2.7
	c1.5,0,2.8,0.6,3.9,1.7c0.6,0.6,1,1.2,1.3,1.9c2.6-1.1,4.5-0.8,6.3,0.9c1,1,1.6,2.1,1.8,3.3c2-0.2,4,0.9,4.7,1.5
	c1.4,1.3,2,2.9,2,4.7c0.1,0,0.2,0,0.3,0c1.7,0,3.1,0.7,4.2,2c0.7,0.8,1.1,1.7,1.2,2.8c0,0.3,0.1,0.5,0,0.8L70.1,60.7z M76.7,59.6
	c-0.1,0.2-0.3,0.3-0.5,0.5c-0.2,0.1-0.3,0.3-0.5,0.4c0.2-0.1,0.4-0.3,0.5-0.4C76.3,59.9,76.5,59.7,76.7,59.6 M77.2,58.4L77.2,58.4
	c0,0.2,0,0.4-0.2,0.6C77.2,58.8,77.2,58.6,77.2,58.4L77.2,58.4z M84.4,55.9c-0.2,0.2-0.4,0.3-0.6,0.4C84,56.3,84.2,56.1,84.4,55.9
	 M87,51.6c0.3,0.5,0.3,1.1,0,1.6c-0.3,0.4-0.5,0.7-0.9,1.1c0.3-0.4,0.6-0.7,0.9-1.1C87.3,52.7,87.3,52.1,87,51.6 M60.9,52.7
	c0.1,0.2,0.3,0.5,0.4,0.7C61.2,53.1,61,52.9,60.9,52.7 M54.1,45.6C54.2,45.6,54.2,45.7,54.1,45.6c1.5,1.5,2,3.2,1.6,5.2
	c0.2-0.1,1.2-0.2,1.4-0.2c-0.1,0-0.5,0-0.8,0.1l-0.6,0.1l0.1-0.6C56,48.4,55.5,46.9,54.1,45.6C54.2,45.7,54.2,45.6,54.1,45.6
	 M57.2,50.6c0.4,0,0.8,0.1,1.2,0.2C58,50.7,57.6,50.6,57.2,50.6 M48.6,42c0.5,0.9,0.7,1.8,0.6,2.7c0,0,0.1,0,0.1,0v0l0.4-0.1
	c0,0,0,0,0,0l-0.5,0.1l0-0.6C49.3,43.3,49,42.6,48.6,42 M94.4,42.4l-0.5,0.1L94.4,42.4L94.4,42.4z M44.8,39.5c1.1,0,2,0.4,2.9,1.2
	c-1.5-1.4-3-1.6-5.1-0.7C43.4,39.7,44.1,39.5,44.8,39.5 M40.9,39.1c0.3,0.5,0.5,1,0.6,1.5c0.2-0.1,0.3-0.2,0.5-0.2l-0.4,0.2L41.3,40
	C41.2,39.7,41.1,39.4,40.9,39.1 M30.1,39.7c0.1,0,0.2,0,0.3,0.1c0.2-0.2,0.6-0.5,0.6-0.5c2.5-1.8,4.3-2.6,5.9-2.6
	c-1.6,0-3.4,0.8-5.9,2.6c-0.1,0-0.3,0.2-0.5,0.4l-0.2,0.2L30.1,39.7C30.2,39.7,30.2,39.7,30.1,39.7 M25.6,39.4L25.6,39.4
	c1.4,0,2.5,0.1,3.4,0.2c-0.7-0.1-1.7-0.1-2.8-0.2L25.6,39.4L25.6,39.4z M37,36.6c1.2,0,2.3,0.5,3.1,1.4c0.1,0.1,0.1,0.1,0.2,0.2
	c-0.1-0.1-0.1-0.1-0.2-0.2C39.2,37.1,38.2,36.6,37,36.6 M71.3,23.2c1,1,3.4,2.9,6.6,5.5C74.7,26.2,72.3,24.2,71.3,23.2 M51,24.6
	c-1.5,0.6-2.9,0.8-4.3,0.8C48.1,25.4,49.5,25.2,51,24.6 M42.8,24.8c1.1,0.4,2.4,0.6,3.9,0.6C45.1,25.4,43.8,25.2,42.8,24.8
	 M58.2,20.4c-1.5,1.5-3.7,2.8-6.6,4C54.5,23.2,56.7,21.8,58.2,20.4 M69.1,21.2c0.7,0.6,1.3,1.2,1.7,1.6
	C70.4,22.3,69.8,21.8,69.1,21.2 M46.6,9.6c-2.1,2.6-5.5,7-7,9.4l-0.2,0.3c-0.1,0.1-0.1,0.2-0.1,0.3c0-0.1,0.1-0.2,0.1-0.3l0.2-0.3
	C41.1,16.6,44.8,11.8,46.6,9.6 M64.6,17.3l1.8,1.5L64.6,17.3c-0.7,0.2-1.6,0.5-2.6,0.8c0.9-0.3,1.7-0.5,2.4-0.7L64.6,17.3z M52.9,1
	c-3.6,0-10.6,4.8-15.8,8.3c-1,0.7-1.9,1.3-2.7,1.8c0.8-0.5,1.7-1.1,2.7-1.8C42,6,49.3,1,52.9,1 M48.3,7.5
	C48.3,7.5,48.3,7.5,48.3,7.5l-0.7,0.9L48.3,7.5C48.3,7.5,48.3,7.5,48.3,7.5 M50.5,5.7c-0.1,0-0.2,0.1-0.3,0.1
	C50,5.9,49.8,6,49.5,6.2C49.8,6,50,5.9,50.2,5.8C50.3,5.8,50.4,5.7,50.5,5.7 M56.6,4.2c-1.7,0.4-3.2,0.8-3.4,0.8
	c-0.3,0.1-0.6,0.1-0.9,0.2c0.3-0.1,0.6-0.1,0.9-0.2C53.4,5,54.9,4.7,56.6,4.2"/>
<path class="st0" d="M93.6,41.6l-0.2-0.2c-0.1-0.1-7.1-6.9-11-10.1c-5.2-4.2-9.7-7.8-10.8-9c-0.3-0.3-1.4-1.3-5.3-4.7l-0.6-0.5
	l0.4-0.4c0-0.1,0.2-0.5,0.4-1.1c-0.6,0.3-1.3,0.6-1.7,0.7c-1.9,0.7-4.7,1.4-5.8,1.7l-0.2,0c0,0.1-0.1,0.2-0.1,0.2
	c-0.1,0.2-0.2,0.5-0.6,0.9c0,0-0.4,0.5-0.5,0.5c-1,1-2.9,2.5-6.5,3.9c-1.5,0.6-3,0.9-4.4,0.9c-1.5,0-3.5-0.2-4.9-1.2
	c-0.6-0.4-1.2-1.1-1.6-1.5c-0.1-0.2-0.3-0.3-0.3-0.4l0.3-0.3l0,0l-0.5,0v-0.3l0.1,0c0.1-0.3,0.2-0.6,0.5-1.1v0l0.1-0.1
	c1.6-2.7,5.9-8,7.1-9.6l0.2-0.2c0.5-0.6,2-2.5,2.1-2.6L49.9,7c0.5-0.5,1.7-0.7,3.5-1.1c0.5-0.1,1-0.2,1.6-0.3
	c0.6-0.1,1.9-0.5,3.5-0.9c1.7-0.4,3.7-1,5.7-1.5l0.1,0c1.1-0.3,2-0.6,2.7-0.8c1.7-0.6,3-1,5.4-0.8c2.4,0.2,8.5,4.4,14.6,8.6
	c1.5,1,2.9,2,3.1,2.1c0,0,0.1,0,0.6,0l0.5,0l4.4,28.9L93.6,41.6z M67.1,17c2.9,2.5,4.8,4.2,5.3,4.7c1.1,1.2,6.4,5.5,10.7,8.9
	c3.5,2.9,9.7,8.8,10.9,10l0.4-0.1l-4.1-27.1c-0.2,0-0.4,0-0.5-0.1c-0.3-0.1-1.3-0.8-3.3-2.2c-4.1-2.9-11.7-8.3-14.1-8.5
	c-2.2-0.2-3.4,0.2-5,0.8c-0.8,0.3-1.7,0.6-2.9,0.9l-0.1,0c-2,0.5-4,1-5.6,1.5c-1.7,0.4-3,0.8-3.6,0.9c-0.5,0.1-1.1,0.2-1.6,0.3
	c-1.3,0.3-2.8,0.6-3,0.9l0,0c-0.3,0.4-2.2,2.7-2.2,2.7l-0.1,0.2c-1.3,1.7-5,6.2-6.6,8.9L41.2,20c-0.3,0.4-0.4,0.7-0.5,0.9
	c0.1,0.1,0.2,0.2,0.3,0.3c0.4,0.4,0.9,1,1.4,1.4c1.2,0.8,3,1,4.3,1c1.3,0,2.6-0.3,4-0.9c3.5-1.4,5.3-2.8,6.2-3.7
	c0,0,0.4-0.5,0.4-0.5c0.3-0.3,0.4-0.6,0.4-0.6c0,0,0.2-0.5,0.2-0.5l0.1-0.4h0.8c1.2-0.3,3.9-1,5.7-1.6c0.8-0.3,2.7-1.1,2.7-1.2
	l1-0.5l-0.4,1.1C67.4,16,67.2,16.6,67.1,17"/>
<path class="st0" d="M93.4,42.2l-0.4-0.4c-0.1-0.1-7.1-6.9-11-10.1c-5.3-4.2-9.7-7.8-10.8-9C71,22.4,69.9,21.4,66,18l-1-0.8l0.5-0.6
	c-0.2,0.1-0.5,0.2-0.7,0.3c-1.9,0.7-4.7,1.4-5.8,1.7c-0.2,0.3-0.4,0.6-0.6,1c0,0-0.5,0.5-0.5,0.5c-1,1-3,2.5-6.7,4
	c-1.6,0.6-3.1,1-4.6,1c-1.5,0-3.7-0.2-5.1-1.3c-0.6-0.5-1.2-1.2-1.6-1.6L39.8,22c-0.1-0.1-0.1-0.2-0.2-0.2l-0.3-0.3l-0.1,0v-1.2
	l0.2-0.1c0.1-0.2,0.2-0.5,0.4-0.8v0l0.1-0.3c1.6-2.7,5.9-8.1,7.2-9.7l0.2-0.2c0.5-0.6,2-2.5,2.1-2.5l0.2-0.2
	c0.7-0.6,1.8-0.8,3.8-1.2l0.1,0c0.5-0.1,1-0.2,1.5-0.3c0.5-0.1,1.8-0.4,3.3-0.8l0.2-0.1c1.7-0.5,3.7-1,5.7-1.5
	c1.2-0.3,2-0.6,2.8-0.8c1.7-0.6,3.1-1,5.6-0.9c2.6,0.2,8.5,4.2,14.8,8.7c1.1,0.8,2.6,1.8,3,2c0.1,0,0.2,0,0.4,0l0.9,0L96,41.6
	L93.4,42.2z M94.9,40.8L94,41L94.9,40.8z M67.7,16.8c2,1.7,4.4,3.9,5.1,4.5c1.1,1.2,6.6,5.6,10.6,8.8c3.2,2.6,8.6,7.8,10.4,9.5
	l-3.9-25.9c-0.1,0-0.2,0-0.3-0.1c-0.4-0.1-1.2-0.7-3.4-2.3C82.3,8.7,74.5,3.2,72.3,3c-2.1-0.1-3.2,0.2-4.8,0.8
	c-0.8,0.3-1.7,0.6-2.9,0.9c-2,0.5-4,1-5.6,1.5l-0.2,0.1c-1.6,0.4-2.9,0.7-3.4,0.9c-0.5,0.1-1,0.2-1.5,0.3c-0.9,0.2-2.6,0.5-2.9,0.7
	c-0.3,0.4-2.2,2.7-2.2,2.7L48.5,11c-1.1,1.4-4.9,6.2-6.6,8.8l-0.3,0.5c-0.1,0.2-0.2,0.4-0.3,0.5c0,0,0,0,0,0c0.3,0.4,0.8,1,1.3,1.3
	c1.1,0.8,2.7,0.9,4,0.9c1.2,0,2.5-0.3,3.8-0.8c3.4-1.4,5.1-2.7,6-3.6c0,0,0.3-0.4,0.4-0.4c0.2-0.3,0.3-0.4,0.3-0.5
	c0,0,0.1-0.2,0.1-0.4l0.3-0.8h1.1c1.1-0.3,3.8-1,5.6-1.6c0.7-0.3,2.3-1,2.7-1.1l2.1-1L68.3,15C68,15.9,67.8,16.4,67.7,16.8
	 M81.9,30.3c0.3,0.2,0.5,0.4,0.8,0.6c0.4,0.3,0.8,0.7,1.3,1.1c-0.5-0.4-0.9-0.8-1.3-1.1C82.5,30.7,82.2,30.5,81.9,30.3 M90.3,12.8
	l0.4,0l2.9,18.8l-2.9-18.8C90.5,12.8,90.3,12.8,90.3,12.8 M71.8,21.8C71.9,21.9,72,22,72,22c0.4,0.4,1.3,1.2,2.6,2.3
	c-1.2-1-2.2-1.9-2.6-2.3C72,22,71.9,21.9,71.8,21.8 M41.9,22.8c0.1,0.1,0.2,0.1,0.2,0.2c1.3,0.9,3.2,1.1,4.6,1.1
	c-1.4,0-3.3-0.2-4.6-1.1C42,22.9,42,22.8,41.9,22.8 M57.2,19.3c-0.7,0.7-1.8,1.6-3.7,2.6C55.4,20.9,56.6,20,57.2,19.3L57.2,19.3z
	 M40.8,19.8l-0.1,0.1c-0.2,0.3-0.3,0.5-0.4,0.7C40.5,20.3,40.6,20.1,40.8,19.8l0.3-0.5c0.3-0.5,0.7-1.1,1.2-1.8
	C41.7,18.4,41.2,19.1,40.8,19.8L40.8,19.8z M63,16.4c-1.5,0.5-3.2,0.9-4.2,1.1l0,0l0,0C59.6,17.4,61.4,16.9,63,16.4 M67.1,15.4
	l-0.1,0.4c0,0,0,0,0,0.1C67,15.7,67,15.6,67.1,15.4 M67.3,14.7c-0.3,0.1-1.5,0.7-2.3,1c0.3-0.1,0.8-0.3,1.3-0.5L67.3,14.7
	C67.3,14.7,67.3,14.7,67.3,14.7 M77,4.1c2.8,1.7,6.3,4.1,9.7,6.5c1.1,0.8,2,1.4,2.5,1.8c-0.5-0.4-1.3-0.9-2.5-1.8
	C84,8.7,80.1,6,77,4.1 M48,10l-0.1,0.2c-0.2,0.3-0.5,0.6-0.8,1.1c0.3-0.3,0.5-0.6,0.7-0.9l0.1-0.2C47.9,10.2,47.9,10.1,48,10
	 M50.1,7.5L50.1,7.5c0,0-0.4,0.4-0.8,0.9C49.7,8,50,7.6,50.1,7.5 M50.5,7.2c-0.1,0.1-0.3,0.1-0.4,0.2l0,0
	C50.3,7.3,50.4,7.3,50.5,7.2 M55.5,6c-0.2,0-0.3,0.1-0.4,0.1c-0.4,0.1-0.7,0.2-1.1,0.2c0.4-0.1,0.7-0.2,1.1-0.2
	C55.2,6.1,55.3,6,55.5,6 M61.1,4.5c-0.9,0.2-1.7,0.4-2.4,0.6l-0.3,0.1c-0.4,0.1-0.8,0.2-1.2,0.3c0.4-0.1,0.8-0.2,1.3-0.3l0.1,0
	C59.4,5,60.2,4.7,61.1,4.5 M71.9,2c0.1,0,0.3,0,0.4,0c0.1,0,0.2,0,0.3,0c-0.1,0-0.2,0-0.3,0C72.2,2,72.1,2,71.9,2"/>
<path class="st0" d="M96,41.9l-5.2-34l8.1-1.2l5.2,34L96,41.9z M91.9,8.7l4.9,32.1l6.2-0.9L98.1,7.8L91.9,8.7z"/>
<path class="st0" d="M95.6,42.5l-5.3-35l9.1-1.4l5.3,35L95.6,42.5z M92.5,9.1l4.7,31.1l5.2-0.8L97.7,8.3L92.5,9.1z"/>
<path class="st0" d="M105.9,50.2l-7-46L113.2,2l7.1,46L105.9,50.2z M100.1,5l6.7,44.1l12.3-1.9l-0.3-2c-0.2,0.8-0.8,1.4-1.6,1.7
	c-0.6,0.2-1.3,0.2-1.9-0.1s-1.1-0.8-1.3-1.4c-0.2-0.6-0.2-1.3,0.1-1.9s0.8-1.1,1.4-1.3c1.1-0.4,2.4,0,3,1l-6.2-40L100.1,5z
	 M116.4,43c-0.2,0-0.4,0-0.5,0.1c-0.4,0.1-0.7,0.4-0.9,0.8s-0.2,0.8,0,1.2c0.1,0.4,0.4,0.7,0.8,0.9c0.4,0.2,0.8,0.2,1.2,0
	c0.8-0.3,1.2-1.2,0.9-2c-0.1-0.4-0.4-0.7-0.8-0.9C116.8,43.1,116.6,43,116.4,43 M111,47.8c-0.4,0-0.7-0.1-1-0.2
	c-0.6-0.3-1.1-0.8-1.3-1.4c-0.2-0.6-0.2-1.3,0.1-1.9s0.8-1.1,1.4-1.3c0.6-0.2,1.3-0.2,1.9,0.1c0.6,0.3,1.1,0.8,1.3,1.4
	c0.5,1.3-0.2,2.8-1.5,3.3C111.6,47.7,111.3,47.8,111,47.8 M111,43.7c-0.2,0-0.4,0-0.5,0.1c-0.4,0.1-0.7,0.4-0.9,0.8
	c-0.2,0.4-0.2,0.8,0,1.2c0.1,0.4,0.4,0.7,0.8,0.9c0.4,0.2,0.8,0.2,1.2,0c0.8-0.3,1.2-1.2,0.9-2c-0.1-0.4-0.4-0.7-0.8-0.9
	C111.4,43.8,111.2,43.7,111,43.7"/>
<path class="st0" d="M105.5,50.8l-7.2-47l15.2-2.3l7.3,47L105.5,50.8z M100.6,5.4l6.6,43.1l2.7-0.4c-0.1,0-0.1,0-0.2-0.1
	c-0.7-0.3-1.3-0.9-1.6-1.7c-0.3-0.8-0.3-1.6,0.1-2.3c0.3-0.7,0.9-1.3,1.7-1.6c0.8-0.3,1.6-0.3,2.3,0.1c0.5,0.2,1,0.6,1.3,1.1
	c0-0.1,0.1-0.2,0.1-0.3c0.3-0.7,0.9-1.3,1.7-1.6c0.8-0.3,1.7-0.2,2.5,0.2l-5.9-38.2L100.6,5.4z M113.8,46.2c-0.2,0.6-0.5,1.1-1,1.4
	l2.3-0.3C114.6,47.1,114.1,46.7,113.8,46.2 M110.2,47.2c0.5,0.2,1,0.2,1.4,0c0.1,0,0.2-0.1,0.3-0.1c-0.1,0.1-0.2,0.1-0.3,0.1
	C111.2,47.3,110.7,47.3,110.2,47.2 M115.6,46.4c0.5,0.2,1,0.2,1.5,0c0.1,0,0.1-0.1,0.2-0.1c-0.1,0-0.1,0.1-0.2,0.1
	C116.6,46.6,116,46.6,115.6,46.4 M109.1,44.5c-0.2,0.5-0.2,1,0,1.5c0.1,0.2,0.2,0.4,0.3,0.6c-0.1-0.2-0.3-0.4-0.3-0.6
	C108.9,45.5,108.9,45,109.1,44.5 M111,44.2c-0.1,0-0.2,0-0.4,0.1c-0.3,0.1-0.5,0.3-0.6,0.5c-0.1,0.3-0.1,0.5,0,0.8
	c0.1,0.3,0.3,0.5,0.5,0.6c0.2,0.1,0.5,0.1,0.8,0s0.5-0.3,0.6-0.5c0.1-0.3,0.1-0.5,0-0.8c-0.1-0.3-0.3-0.5-0.5-0.6
	C111.2,44.3,111.1,44.2,111,44.2 M114.5,43.8c-0.2,0.5-0.2,1,0,1.5c0.1,0.2,0.2,0.4,0.4,0.6c-0.2-0.2-0.3-0.4-0.4-0.6
	C114.3,44.8,114.3,44.3,114.5,43.8 M116.4,43.5c-0.1,0-0.2,0-0.4,0.1c-0.3,0.1-0.5,0.3-0.6,0.5c-0.1,0.3-0.1,0.5,0,0.8
	c0.1,0.3,0.3,0.5,0.5,0.6c0.3,0.1,0.5,0.1,0.8,0c0.3-0.1,0.5-0.3,0.6-0.5c0.1-0.3,0.1-0.5,0-0.8c-0.1-0.3-0.3-0.5-0.5-0.6
	C116.6,43.6,116.5,43.5,116.4,43.5 M112.5,43.9c0.2,0.2,0.3,0.4,0.4,0.6c0.1,0.1,0.1,0.3,0.1,0.5c0-0.2-0.1-0.3-0.1-0.5
	C112.8,44.3,112.6,44.1,112.5,43.9 M118.1,43.5c0.1,0.1,0.1,0.2,0.2,0.4c0.1,0.4,0.2,0.8,0.1,1.2l0.2-0.8L118.1,43.5z M110.5,43.3
	c-0.1,0-0.2,0-0.3,0.1c-0.2,0.1-0.5,0.2-0.6,0.4c0.2-0.2,0.4-0.3,0.6-0.4C110.3,43.3,110.4,43.3,110.5,43.3 M115.8,42.6
	c0,0-0.1,0-0.1,0c-0.2,0.1-0.5,0.2-0.6,0.4c0.2-0.2,0.4-0.3,0.6-0.4C115.7,42.6,115.7,42.6,115.8,42.6 M112.7,2.6L109.8,3L112.7,2.6
	z"/>
<path class="st0" d="M24,42.9l-8-1.7l7.3-33.7l8,1.7L24,42.9z M17.1,40.4l6.1,1.3L30.1,10L24,8.7L17.1,40.4z"/>
<path class="st0" d="M24.4,43.5l-9-2l7.5-34.6l9,2L24.4,43.5z M16.5,40.8l7.1,1.5l7.1-32.7l-7.1,32.7L16.5,40.8l7.1-32.7l6.7,1.5
	l-6.7-1.5L16.5,40.8z M17.7,40l5.1,1.1l6.7-30.7l-5.1-1.1L17.7,40z"/>
<path class="st0" d="M13.5,50.6L0.6,47.8L7.7,1.7l15.7,3.4l-0.1,0.5L13.5,50.6z M1.7,47l11,2.4l9.4-43.6l-13.7-3L2.2,43.5
	c0.4-0.8,1.3-1.4,2.3-1.4c1.4,0,2.5,1.1,2.5,2.5c0,1.4-1.1,2.5-2.5,2.5c-1.3,0-2.3-0.9-2.5-2.1L1.7,47z M4.5,43.1
	c-0.8,0-1.5,0.7-1.5,1.5s0.7,1.5,1.5,1.5c0.8,0,1.5-0.7,1.5-1.5S5.3,43.1,4.5,43.1 M9.8,48.3c-1.4,0-2.5-1.1-2.5-2.5
	c0-1.4,1.1-2.5,2.5-2.5s2.5,1.1,2.5,2.5C12.4,47.2,11.2,48.3,9.8,48.3 M9.8,44.3c-0.8,0-1.5,0.7-1.5,1.5s0.7,1.5,1.5,1.5
	c0.8,0,1.5-0.7,1.5-1.5S10.7,44.3,9.8,44.3"/>
<path class="st0" d="M13.9,51.2L0,48.2L7.3,1.1L24,4.7L13.9,51.2z M9.5,49.2l3.6,0.8l2.5-11.7L13.1,50L9.5,49.2z M11.2,48.5l1.2,0.3
	l9.2-42.6L8.9,3.5L3,42c0.5-0.3,1-0.4,1.5-0.4c1.4,0,2.6,1,3,2.4c0.6-0.7,1.4-1.1,2.4-1.1c1.7,0,3,1.4,3,3
	C12.9,47,12.2,48,11.2,48.5 M7.8,45.8c0,1.1,0.9,2,2,2c1.1,0,2-0.9,2-2c0,1.1-0.9,2-2,2C8.7,47.8,7.8,46.9,7.8,45.8 M5.7,47.4
	l1.7,0.4C7.2,47.4,7,47,6.9,46.5C6.6,46.9,6.2,47.2,5.7,47.4 M9.8,44.8c-0.6,0-1,0.5-1,1s0.5,1,1,1c0.6,0,1-0.5,1-1
	S10.4,44.8,9.8,44.8 M4.5,46.6L4.5,46.6c1.1,0,2-0.9,2-2C6.5,45.7,5.6,46.6,4.5,46.6L4.5,46.6z M4.5,43.6c-0.6,0-1,0.5-1,1
	s0.5,1,1,1s1-0.5,1-1S5.1,43.6,4.5,43.6 M2.4,44.3l0.1,0.6c0-0.1,0-0.2,0-0.3c0-1.1,0.9-2,2-2c-0.8,0-1.5,0.4-1.8,1.1L2.4,44.3z
	 M8.1,2.3l14.7,3.2L8.1,2.3z"/>
<path class="st0" d="M31.4,49.6l-0.7-0.2c-1.1-0.4-1.9-1.1-2.4-2.1c-1.3-2.7,2.3-6.6,3-7.2l0.1-0.1c3.9-2.8,6.1-3.1,7.9-1.3
	c0.8,0.9,1.2,1.8,1.2,2.9l0,0.2l-9.2,7.3V49.6z M37,38.5c-1,0-2.5,0.6-4.9,2.2L32,40.9c-0.7,0.5-3.7,4-2.7,5.9
	c0.4,0.7,0.9,1.2,1.5,1.5l8.8-7c0-0.7-0.3-1.3-0.9-1.9C38.3,38.9,37.8,38.5,37,38.5"/>
<path class="st0" d="M31.9,50.3l-1.3-0.4c-1.2-0.4-2.1-1.2-2.7-2.4c-1.5-2.9,2.3-7.2,3.2-7.8l0.1-0.1c4-2.9,6.6-3.3,8.6-1.2
	c0.9,1,1.4,2.1,1.3,3.3l0,0.5l-9.2,7.3V50.3z M30.9,48.8C30.9,48.8,30.9,48.9,30.9,48.8L30.9,48.8l2-1.6L30.9,48.8z M37,39
	c-1,0-2.6,0.7-4.6,2.1l-0.1,0.1c-0.7,0.5-3.3,3.7-2.5,5.3c0.3,0.5,0.6,0.9,1,1.2l8.4-6.7c-0.1-0.5-0.3-0.9-0.7-1.4
	C38,39.2,37.5,39,37,39 M39.4,39.3c0.5,0.6,0.8,1.2,0.8,1.9C40.1,40.5,39.9,39.9,39.4,39.3 M37,38c1.1,0,1.7,0.5,2.1,1
	c0,0,0.1,0.1,0.1,0.1c0,0-0.1-0.1-0.1-0.1c-0.8-0.8-1.8-1.4-3.8-0.6C35.9,38.1,36.5,38,37,38"/>
<path class="st0" d="M36.2,55.4l-0.3-0.1c-1-0.3-2.4-1-3.1-1.9c-0.8-1.1-1-2.6-1-3.6c0-0.2,0-0.2,0-0.3v-0.2l9.4-7.5
	c0.1-0.1,0.3-0.2,0.5-0.3c2.1-1.2,3.7-1.6,5.4,0c1.3,1.3,1.7,2.8,1,4.4l0,0.1l-0.1,0.1c-0.9,0.7-3.1,2.5-5.1,4.1l0,0L36.2,55.4z
	 M32.8,49.7L32.8,49.7c0,0.9,0.1,2.2,0.8,3.1c0.5,0.7,1.5,1.2,2.4,1.5l6.2-4.9c1.9-1.5,4.1-3.3,5-4c0.5-1.2,0.2-2.2-0.8-3.2
	c-0.9-0.9-1.8-1.1-4.2,0.2c-0.1,0.1-0.3,0.2-0.4,0.2L32.8,49.7z"/>
<path class="st0" d="M36.3,56l-0.5-0.2c-1.1-0.4-2.5-1-3.4-2.1c-0.9-1.2-1.1-2.8-1.1-3.9c0-0.2,0-0.2,0-0.3V49l9.6-7.6
	c0.2-0.1,0.4-0.2,0.5-0.3c2.2-1.3,4.1-1.7,5.9,0.1c1.5,1.4,1.8,3.1,1.1,5l-0.1,0.2l-0.2,0.2c-0.9,0.7-3.1,2.5-5.1,4.1L36.3,56z
	 M36.1,54.9l6.5-5.1c1.6-1.3,3.4-2.7,4.4-3.6c-1.1,0.9-2.9,2.3-4.5,3.6L36.1,54.9z M33.3,50c0,0.8,0.1,1.8,0.7,2.5
	c0.3,0.5,1,0.9,1.9,1.2l6-4.7c1.9-1.5,3.9-3.1,4.9-3.9c0.3-1,0.1-1.7-0.7-2.6c-0.7-0.7-1.3-1-3.6,0.3c-0.2,0.1-0.3,0.2-0.4,0.2
	L33.3,50z M32.3,49.8C32.3,49.8,32.3,49.8,32.3,49.8c0,1,0.1,2.3,0.8,3.2C32.4,52,32.3,50.7,32.3,49.8L32.3,49.8z M46.8,41.9
	c0.2,0.2,0.4,0.5,0.6,0.7C47.3,42.4,47.1,42.1,46.8,41.9 M44.8,40.9c-0.6,0-1.4,0.2-2.3,0.7c1.4-0.7,2.3-0.9,3.2-0.6
	C45.4,41,45.1,40.9,44.8,40.9"/>
<path class="st0" d="M42.9,61.7l-0.3-0.1c-2.1-0.7-3.4-1.4-3.9-2c-0.4-0.6-1-1.7-1.6-3.4l-0.3-0.8l6.2-4.8c1.9-1.5,5.1-4.1,5.5-4.4
	l0-0.1l0.1-0.1c0.4-0.2,0.8-0.4,1.1-0.5l0.1,0c1.5-0.5,3.3,0.5,3.7,0.9c1.3,1.3,1.7,2.8,1.2,4.7l0,0.1c0,0.1-0.1,0.2-0.1,0.3l0,0
	l0,0l-0.1,0.3h-0.1c-0.1,0.1-0.2,0.2-0.3,0.2c-0.5,0.3-1,0.7-1.4,1.1l-0.1,0.1c-0.8,0.7-6.1,5.4-9.2,8.1L42.9,61.7z M38.1,55.7
	l0,0.1c0.6,1.6,1.1,2.7,1.5,3.2c0.3,0.4,1.5,1,3.2,1.6l0.1-0.1c3-2.7,8.4-7.4,9.2-8.1l0.1-0.1c0.5-0.5,1.1-0.9,1.6-1.2l0,0v-0.4
	l0.1,0c0.4-1.5,0.1-2.6-0.9-3.7c-0.2-0.2-1.7-1-2.8-0.6l-0.1,0c-0.3,0.1-0.6,0.2-0.9,0.4c-0.3,0.3-1.5,1.2-5.5,4.5L38.1,55.7z"/>
<path class="st0" d="M43.1,62.3l-0.6-0.2c-2.2-0.8-3.6-1.5-4.1-2.2c-0.5-0.6-1-1.8-1.7-3.6l-0.4-1.2l6.4-5.1
	c1.9-1.5,4.8-3.9,5.4-4.3l0-0.1l0.3-0.2c0.4-0.2,0.8-0.4,1.2-0.5l0.1,0c1.7-0.5,3.7,0.5,4.2,1c1.5,1.4,1.9,3.2,1.3,5.2l0,0.1
	c0,0.1-0.1,0.2-0.1,0.3l-0.2,0.6h-0.2c-0.1,0.1-0.1,0.1-0.2,0.2c-0.5,0.3-0.9,0.6-1.3,1L53,53.5c-0.7,0.7-5.4,4.8-9.2,8.1L43.1,62.3
	z M41,60.5c0.4,0.2,1,0.4,1.7,0.6L42.5,61C42.1,60.9,41.5,60.7,41,60.5 M38.6,55.9c0.7,2,1.2,2.6,1.3,2.8c0.1,0.2,0.9,0.7,2.7,1.3
	c3.1-2.7,8.3-7.3,9-8l0.1-0.1c0.5-0.4,1-0.8,1.4-1.1v-0.5l0.2,0c0.3-1.2,0-2-0.9-2.9c-0.2-0.2-1.5-0.8-2.2-0.5l-0.1,0
	c-0.2,0.1-0.5,0.2-0.7,0.3c-0.4,0.3-1.4,1.2-5.5,4.5L38.6,55.9z M52.9,52.3c-0.2,0.1-0.3,0.3-0.5,0.4l-0.1,0.1
	c-0.6,0.6-3.9,3.5-6.8,6c3.2-2.8,6.3-5.5,6.8-6l0.1-0.1C52.6,52.5,52.7,52.4,52.9,52.3 M37.5,55.5l0.2,0.5c0.4,1.1,0.7,1.9,1,2.4
	c-0.4-0.7-0.7-1.6-1-2.4L37.5,55.5l5.9-4.6c2.2-1.8,3.7-3,4.6-3.7c-1.2,1-3.4,2.7-4.6,3.7L37.5,55.5z M52.8,46.4
	c0.2,0.1,0.4,0.2,0.5,0.3c1.1,1.1,1.5,2.3,1.2,3.8c0.3-1.5,0-2.7-1.2-3.8C53.2,46.6,53,46.5,52.8,46.4"/>
</svg>
